<?xml version="1.0" standalone="no"?>
<!DOCTYPE svg PUBLIC "-//W3C//DTD SVG 1.1//EN" "http://www.w3.org/Graphics/SVG/1.1/DTD/svg11.dtd" >
<svg xmlns="http://www.w3.org/2000/svg">
<metadata></metadata>
<defs>
<font id="pf_dintext_probold" horiz-adv-x="3909" >
<font-face units-per-em="2048" ascent="1536" descent="-512" />
<missing-glyph horiz-adv-x="601" />
<glyph unicode="fj" horiz-adv-x="1233" d="M43 825v238h121v129q0 105 36 180t99.5 123.5t148.5 71t182 22.5q109 0 220 -31t201 -126l-169 -205q-47 48 -106.5 72t-137.5 24q-55 0 -90 -16.5t-51.5 -39t-22.5 -48t-6 -43.5v-113h614v-1174q0 -144 -87.5 -231.5t-265.5 -87.5h-129v266h56q39 0 62.5 10t36.5 26.5 t16 35t3 41.5v876h-306v-825h-304v825h-121z" />
<glyph unicode="ffj" horiz-adv-x="1844" d="M39 825v238h121v86q0 105 36 180t99.5 124t148.5 71.5t182 22.5q69 0 140 -12.5t139 -44.5q62 49 148 74t188 25q109 0 220 -31t201 -126l-170 -205q-47 48 -106 72t-136 24q-56 0 -90.5 -16.5t-52 -39t-23 -48t-5.5 -43.5v-113h614v-1174q0 -144 -87.5 -231.5 t-265.5 -87.5h-129v266h55q39 0 62.5 10t37 26.5t16.5 35t3 41.5v876h-306v-825h-305v825h-310v-825h-304v825h-121zM464 1063h310v129v31t2 29q-66 28 -142 28q-55 0 -90 -16.5t-51.5 -39t-22.5 -48t-6 -43.5v-70z" />
<glyph unicode="ff" horiz-adv-x="1336" d="M49 825v240h121v90q0 105 34 184t95.5 131t147.5 78t189 26q62 0 124.5 -8.5t123.5 -32.5q43 37 101 54t125 17h206v-258h-146q-84 0 -84 -88v-193h209v-240h-209v-825h-306v825h-304v-825h-306v825h-121zM476 1065h304v219q-30 11 -63 17t-72 6q-58 0 -92 -16 t-51.5 -38.5t-21.5 -48.5t-4 -43v-96z" />
<glyph unicode="fi" horiz-adv-x="1233" d="M43 825v238h121v129q0 105 36 180t99.5 123.5t148.5 71t182 22.5q109 0 220 -31t201 -126l-169 -205q-47 48 -106.5 72t-137.5 24q-55 0 -90 -16.5t-51.5 -39t-22.5 -48t-6 -43.5v-113h614v-1063h-308v825h-306v-825h-304v825h-121z" />
<glyph unicode="fl" horiz-adv-x="1274" d="M43 825v238h121v115q0 105 33 180.5t92.5 124t140.5 71t179 22.5q51 0 174.5 -11.5t312.5 -76.5v-1114q0 -72 27.5 -89.5t70.5 -17.5h33v-267h-109q-64 0 -124.5 14t-105.5 49.5t-71.5 97t-26.5 155.5v970q-54 17 -87.5 20t-64.5 3q-55 0 -90 -15.5t-51.5 -38t-22.5 -49 t-6 -43.5v-100h211v-238h-211v-825h-304v825h-121z" />
<glyph unicode="ffi" horiz-adv-x="1824" d="M43 825v238h121v86q0 105 36 180t99.5 124t148.5 71.5t182 22.5q69 0 140 -12.5t139 -44.5q62 49 148.5 74t187.5 25q109 0 220 -31t201 -126l-170 -205q-47 48 -106 72t-136 24q-56 0 -90.5 -16.5t-52 -39t-22.5 -48t-5 -43.5v-113h613v-1063h-308v825h-305v-825h-306 v825h-310v-825h-304v825h-121zM468 1063h310v129v31t2 29q-66 28 -142 28q-55 0 -90 -16.5t-51.5 -39t-22.5 -48t-6 -43.5v-70z" />
<glyph unicode="ffl" horiz-adv-x="1824" d="M43 825v238h121v86q0 105 36 180t99.5 124t148.5 71.5t182 22.5q69 0 140 -12.5t139 -44.5q62 49 148.5 74t187.5 25q62 -2 177 -17t281 -70v-1128q0 -72 27 -89.5t70 -17.5h34v-267h-110q-64 0 -124.5 14t-105.5 49.5t-72 97t-27 155.5v983q-53 17 -85 20.5t-56 3.5 q-56 0 -90.5 -16.5t-52 -39t-22.5 -48t-5 -43.5v-113h196v-238h-196v-825h-306v825h-310v-825h-304v825h-121zM468 1063h310v89v53.5t1 29.5t1 17q-66 28 -142 28q-55 0 -90 -16.5t-51.5 -39t-22.5 -48t-6 -43.5v-70z" />
<glyph unicode="ft" horiz-adv-x="1309" d="M43 825v240h121v185q0 79 25.5 138t69.5 98t104 57t129 18h185v-258h-125q-84 0 -84 -88v-150h306v294h299v-292h162v-242h-158v-449q0 -69 22.5 -89t70.5 -20h67v-267h-166q-129 0 -215 75t-86 211v539h-302v-825h-304v825h-121z" />
<glyph unicode=" "  horiz-adv-x="601" />
<glyph unicode="&#x09;" horiz-adv-x="601" />
<glyph unicode="&#xa0;" horiz-adv-x="601" />
<glyph unicode="!" horiz-adv-x="632" d="M160 0v275h316v-275h-316zM162 1496h309l-22 -1085h-264z" />
<glyph unicode="&#x22;" horiz-adv-x="878" d="M117 1009v487h263v-487h-263zM480 1009v487h267v-487h-267z" />
<glyph unicode="#" horiz-adv-x="1272" d="M49 437v210h218l30 205h-188v213h220l65 431h253l-62 -431h183l65 431h253l-62 -431h195v-213h-226l-32 -205h198v-210h-228l-63 -437h-259l64 437h-178l-65 -437h-262l64 437h-183zM523 647h183l31 205h-183z" />
<glyph unicode="$" horiz-adv-x="1182" d="M37 217l185 237q84 -70 155.5 -106t153.5 -45v297q-82 30 -158 68t-137.5 91.5t-98 124t-36.5 167.5q0 92 30.5 171t87 138.5t136.5 95.5t176 48v143h118v-141q121 -4 229.5 -42t225.5 -118l-164 -273q-91 58 -156.5 88.5t-134.5 36.5v-282q116 -39 208.5 -82.5t156 -101 t98.5 -128.5t35 -161q0 -105 -38 -187t-104.5 -139t-158 -89t-197.5 -36v-220h-118v222q-133 8 -252 58.5t-242 164.5zM435 1077q0 -36 26.5 -63t69.5 -50v228q-43 -11 -69.5 -38t-26.5 -77zM649 306q66 10 95.5 40t29.5 71q0 55 -32 89t-93 58v-258z" />
<glyph unicode="%" horiz-adv-x="1988" d="M160 868v357q0 67 26.5 118.5t71.5 87.5t102 54.5t118 18.5q62 0 120 -18.5t103.5 -54.5t72 -87t26.5 -119v-357q0 -64 -26.5 -115.5t-72 -87t-103.5 -54t-120 -18.5q-60 0 -117.5 18.5t-102.5 54t-71.5 87t-26.5 115.5zM396 870q0 -38 22.5 -57t59.5 -19q36 0 60 19.5 t24 56.5v355q0 41 -24.5 60.5t-59.5 19.5q-37 0 -59.5 -19.5t-22.5 -60.5v-355zM411 -37l914 1570h253l-915 -1570h-252zM1186 269v357q0 66 27.5 118t72.5 87t102 53.5t118 18.5q62 0 120 -18.5t103 -53.5t72 -87t27 -118v-357q0 -64 -27 -116t-72 -87.5t-103 -53.5 t-120 -18q-60 0 -117.5 18t-102.5 53.5t-72.5 87.5t-27.5 116zM1424 271q0 -39 22.5 -58.5t59.5 -19.5q36 0 59.5 19.5t23.5 58.5v355q0 41 -24 60.5t-59 19.5q-37 0 -59.5 -19.5t-22.5 -60.5v-355z" />
<glyph unicode="&#x26;" horiz-adv-x="1422" d="M140 392q0 133 60 239t192 204l-29 33q-41 50 -69.5 114.5t-28.5 150.5q0 168 99.5 271.5t310.5 103.5q93 0 203.5 -29.5t215.5 -119.5l-165 -228q-82 69 -141 87.5t-115 18.5q-53 0 -88 -29.5t-35 -72.5q0 -37 12 -60.5t42 -63.5l340 -447q17 41 31 94.5t23 109.5 l270 -71q-16 -96 -53 -196.5t-86 -176.5l260 -324h-355l-92 123q-78 -64 -167 -100t-188 -36q-117 0 -201.5 33.5t-139.5 89.5t-80.5 129t-25.5 153zM421 402q0 -60 43 -101t127 -41q52 0 99 21.5t86 51.5l-224 289q-57 -43 -94 -100.5t-37 -119.5z" />
<glyph unicode="'" horiz-adv-x="558" d="M146 1009v487h265v-487h-265z" />
<glyph unicode="(" horiz-adv-x="801" d="M135 656q0 138 35 266.5t93.5 249.5t137.5 230.5t169 206.5l185 -119q-152 -203 -223.5 -418.5t-71.5 -404.5q0 -207 76.5 -425t220.5 -412l-178 -136q-91 99 -171.5 211t-140.5 234.5t-96 253t-36 263.5z" />
<glyph unicode=")" horiz-adv-x="801" d="M111 -170q146 193 221.5 411.5t75.5 425.5q0 189 -69.5 405t-224.5 418l185 119q91 -97 170 -206.5t137.5 -230.5t92.5 -249.5t34 -266.5q0 -133 -34 -263.5t-94.5 -253t-141 -234.5t-170.5 -211z" />
<glyph unicode="*" horiz-adv-x="997" d="M109 1116l69 220l239 -99l-27 255h242l-30 -255l237 99l68 -220l-249 -56l173 -192l-197 -139l-127 221l-135 -221l-194 139l177 192z" />
<glyph unicode="+" horiz-adv-x="1182" d="M41 517v248h417v394h266v-394h417v-248h-417v-400h-266v400h-417z" />
<glyph unicode="," horiz-adv-x="642" d="M135 -324l82 322h-77v357h363v-340l-210 -339h-158z" />
<glyph unicode="-" horiz-adv-x="946" d="M101 413v282h744v-282h-744z" />
<glyph unicode="." horiz-adv-x="638" d="M138 0v355h363v-355h-363z" />
<glyph unicode="/" horiz-adv-x="790" d="M-35 -90l544 1649h259l-546 -1649h-257z" />
<glyph unicode="0" horiz-adv-x="1182" d="M138 439v617q0 107 39.5 191t105.5 142t152 88.5t176 30.5q93 0 179 -30.5t152.5 -88.5t106 -142t39.5 -191v-617q0 -107 -39.5 -191t-106 -141.5t-152.5 -87t-179 -29.5q-90 0 -176 29.5t-152 87t-105.5 141t-39.5 191.5zM454 441q0 -84 43 -125t114 -41t115 41t44 125 v615q0 84 -44.5 124.5t-114.5 40.5q-71 0 -114 -41t-43 -124v-615z" />
<glyph unicode="1" horiz-adv-x="1182" d="M320 987v331l259 178h281v-1496h-316v1141z" />
<glyph unicode="2" horiz-adv-x="1182" d="M111 0v265l599 685q41 48 41 108q0 58 -40 105.5t-116 47.5q-62 0 -109 -44.5t-60 -146.5l-309 51q10 101 52 182t106.5 137.5t145 87t168.5 30.5q103 0 191 -26.5t153 -80t101.5 -132.5t36.5 -187q0 -82 -28 -161.5t-77 -138.5l-426 -485h529v-297h-958z" />
<glyph unicode="3" horiz-adv-x="1182" d="M97 383l305 43q13 -73 64 -106.5t117 -33.5q69 0 121.5 45t52.5 129q0 82 -48.5 134.5t-152.5 52.5h-128v248h134q103 0 146 49t43 112q0 66 -49.5 110.5t-118.5 44.5q-50 0 -99 -33.5t-65 -123.5l-302 54q18 96 64.5 170t111 124.5t141.5 78t161 27.5q127 0 220.5 -36 t154 -95t89.5 -137.5t29 -164.5q0 -37 -14 -82t-39.5 -87t-62 -78t-84.5 -56q54 -24 94 -60.5t65.5 -79.5t37 -89t11.5 -87q0 -103 -36 -189t-102 -147.5t-159 -95.5t-208 -34q-80 0 -158 21.5t-146 68.5t-118 121t-72 182z" />
<glyph unicode="4" horiz-adv-x="1182" d="M60 209v247l519 1040h352l-505 -1001h271v391h316v-391h120v-286h-120v-209h-316v209h-637z" />
<glyph unicode="5" horiz-adv-x="1182" d="M127 380l312 59q13 -90 58 -121.5t107 -31.5q53 0 86.5 23.5t52 60t25 81t6.5 87.5q0 45 -7.5 87t-27 74t-52.5 50.5t-83 18.5q-37 0 -81.5 -28t-75.5 -97h-287v853h889v-290h-587v-232q43 37 108.5 55t117.5 18q114 0 191.5 -35.5t124.5 -99t69.5 -150.5t27.5 -190 q0 -135 -30 -242.5t-91.5 -183t-153 -116t-213.5 -40.5q-75 0 -152.5 17t-145 59.5t-118.5 119t-70 194.5z" />
<glyph unicode="6" horiz-adv-x="1182" d="M129 462q0 69 15.5 133.5t44.5 122.5l415 778h355l-312 -587l2 -4q103 11 186 -17t141 -84.5t88 -139.5t30 -180q0 -131 -42.5 -224.5t-114 -154t-160.5 -88t-182 -27.5q-88 0 -171.5 30.5t-149 91t-105.5 149t-40 201.5zM445 466q0 -96 44 -138t118 -42q28 0 56.5 10 t52.5 32.5t39 55.5t15 82q0 97 -48.5 140t-114.5 43q-64 0 -113 -42.5t-49 -140.5z" />
<glyph unicode="7" horiz-adv-x="1182" d="M114 998v498h953v-263l-538 -1233h-334l506 1200h-271v-202h-316z" />
<glyph unicode="8" horiz-adv-x="1182" d="M107 449q0 46 11 94t35.5 91t62.5 80t90 56v10q-44 17 -76.5 48.5t-52 70.5t-29.5 82t-10 86q0 94 35.5 175t98.5 140t150 92.5t191 33.5q121 0 209.5 -33.5t149 -92.5t89.5 -140t29 -175q0 -86 -40.5 -165t-131.5 -122v-8q51 -19 89 -55t62.5 -80t36.5 -93t12 -95 q0 -103 -41 -188t-109.5 -145t-160 -93t-194.5 -33t-194.5 33t-160.5 93t-110 145t-41 188zM423 460q0 -76 52 -129.5t138 -53.5q88 0 138.5 53.5t50.5 129.5q0 73 -56 122.5t-133 49.5q-39 0 -73.5 -12.5t-60 -36.5t-41 -55t-15.5 -68zM452 1058q0 -75 48 -113t113 -38 q64 0 113.5 41t49.5 110q0 72 -43 119.5t-120 47.5q-75 0 -118 -46t-43 -121z" />
<glyph unicode="9" horiz-adv-x="1182" d="M129 1013q0 131 43 224.5t113 153.5t159 88.5t182 28.5q88 0 173 -31.5t150.5 -91.5t105 -148t39.5 -203q0 -69 -14.5 -133t-47.5 -123l-415 -778h-355l312 587l-2 4q-103 -10 -186 17.5t-140 85t-87 140.5t-30 179zM447 1030q0 -97 47.5 -140t114.5 -43q64 0 113.5 43 t49.5 140t-45.5 139t-117.5 42q-26 0 -55 -9.5t-52.5 -32t-39 -57.5t-15.5 -82z" />
<glyph unicode=":" horiz-adv-x="651" d="M144 0v355h363v-355h-363zM144 576v355h363v-355h-363z" />
<glyph unicode=";" horiz-adv-x="651" d="M140 -324l82 322h-78v357h363v-340l-210 -339h-157zM144 576v355h363v-355h-363z" />
<glyph unicode="&#x3c;" horiz-adv-x="1182" d="M39 521v240l1098 480v-282l-759 -321l759 -320v-281z" />
<glyph unicode="=" horiz-adv-x="1182" d="M39 275v238h1105v-238h-1105zM39 768v238h1105v-238h-1105z" />
<glyph unicode="&#x3e;" horiz-adv-x="1182" d="M41 37v281l759 320l-759 321v282l1098 -480v-240z" />
<glyph unicode="?" horiz-adv-x="1122" d="M71 1056q11 107 56 191t114 142t154 88.5t173 30.5q111 0 198.5 -32.5t148.5 -89.5t93.5 -135.5t32.5 -168.5q0 -70 -24 -123.5t-59 -100.5t-77 -91.5t-77.5 -89.5t-59.5 -96.5t-24 -116.5v-47h-316v59q0 62 11 112t35 99.5t60 103.5t90 123q28 34 60 79t32 91 q0 57 -44 92t-100 35q-71 0 -114.5 -44.5t-48.5 -146.5zM404 0v275h316v-275h-316z" />
<glyph unicode="@" horiz-adv-x="1978" d="M135 714q0 183 68 341t186 272t280 179.5t351 65.5q178 0 327 -52.5t257 -149.5t167 -234.5t59 -308.5q0 -103 -20.5 -204.5t-70 -181.5t-131 -129.5t-204.5 -49.5q-31 0 -67 8.5t-71.5 26t-65.5 43t-45 62.5h-8q-29 -49 -94.5 -92t-149.5 -43q-64 0 -120 16t-99.5 48 t-68 82.5t-24.5 122.5q0 55 21.5 104.5t61.5 87t99.5 59t135.5 21.5h199v29q0 15 -3.5 33t-18.5 35.5t-45 29t-82 11.5q-74 0 -112.5 -15t-85.5 -53l-121 160q82 72 166 98.5t181 26.5q69 0 134 -14t116 -49t81 -93.5t30 -144.5l-2 -308q0 -12 3 -27.5t13 -29t27 -23.5 t43 -10q58 0 94.5 30.5t57 81t27 115t6.5 132.5q0 129 -46 233.5t-128 177.5t-192 113t-236 40q-146 0 -267.5 -53.5t-210 -145.5t-137.5 -215.5t-49 -262.5q0 -146 52.5 -266t144.5 -206t218 -133t275 -47q79 0 147 8t127 22.5t115 35t111 46.5l70 -187 q-72 -28 -138.5 -50.5t-133 -38t-137.5 -22.5t-151 -7q-193 0 -360.5 57t-291.5 165t-194 266t-70 361zM835 556q0 -8 4 -21.5t16.5 -26.5t36.5 -22.5t62 -9.5q60 0 107 28.5t47 90.5v29h-166q-35 0 -55.5 -6.5t-32 -16.5t-15.5 -21.5t-4 -23.5z" />
<glyph unicode="A" horiz-adv-x="1418" d="M-4 0l580 1496h261l581 -1496h-349l-112 306h-501l-112 -306h-348zM559 585h295l-56 172l-88 297h-9l-86 -293z" />
<glyph unicode="B" horiz-adv-x="1369" d="M150 0v1496h630q119 0 211.5 -31t156 -86.5t95.5 -134t32 -171.5q0 -82 -42.5 -164t-144.5 -129v-8q51 -19 90 -56t65.5 -82t41 -94.5t14.5 -94.5q0 -101 -38 -182.5t-101.5 -140t-148 -90.5t-178.5 -32h-683zM482 297h281q105 0 150.5 49.5t45.5 113.5q0 32 -10.5 62 t-34.5 54t-61.5 38t-89.5 14h-281v-331zM482 901h253q103 0 146.5 47.5t43.5 109.5t-43 102t-147 40h-253v-299z" />
<glyph unicode="C" horiz-adv-x="1289" d="M97 572v353q0 117 35.5 222t107.5 185.5t180.5 128t254.5 47.5q215 0 358 -104.5t200 -276.5l-315 -112q-17 78 -79.5 130.5t-165.5 52.5q-62 0 -107 -20.5t-75.5 -55t-45.5 -78.5t-15 -90v-406q0 -49 15 -94.5t45.5 -79.5t75.5 -55.5t107 -21.5q101 0 164.5 52.5 t80.5 134.5l315 -121q-56 -176 -201.5 -276t-356.5 -100q-146 0 -254.5 43.5t-180.5 120.5t-107.5 184.5t-35.5 236.5z" />
<glyph unicode="D" horiz-adv-x="1412" d="M150 0v1496h597q168 0 302.5 -64t206.5 -213q41 -82 49.5 -193.5t8.5 -251.5q0 -158 -8.5 -273.5t-45.5 -203.5q-37 -84 -93.5 -141t-127.5 -91.5t-155 -49.5t-174 -15h-560zM482 297h217q84 0 138.5 22.5t87 64.5t46.5 101t14 132v273q0 155 -68 231.5t-225 76.5h-210 v-901z" />
<glyph unicode="E" horiz-adv-x="1257" d="M150 0v1496h1059v-296h-727v-303h619v-286h-619v-314h727v-297h-1059z" />
<glyph unicode="F" horiz-adv-x="1216" d="M150 0v1496h1059v-296h-727v-316h619v-287h-619v-597h-332z" />
<glyph unicode="G" horiz-adv-x="1369" d="M105 572v353q0 117 35.5 222t107.5 185.5t181 128t255 47.5q215 0 357.5 -104.5t199.5 -276.5l-314 -112q-17 78 -79.5 130.5t-166.5 52.5q-61 0 -106.5 -20.5t-76 -55t-45 -78.5t-14.5 -90v-406q0 -49 14.5 -94.5t45 -80.5t77 -56.5t108.5 -21.5q53 0 100 20t82 54.5 t55.5 80t20.5 96.5v10h-306v277h632v-300q0 -118 -46 -218t-125.5 -173t-186 -114t-226.5 -41q-146 0 -255 43.5t-181 120.5t-107.5 184.5t-35.5 236.5z" />
<glyph unicode="H" horiz-adv-x="1449" d="M150 0v1496h332v-599h490v599h327v-1496h-327v611h-490v-611h-332z" />
<glyph unicode="I" horiz-adv-x="632" d="M158 0v1496h330v-1496h-330z" />
<glyph unicode="J" horiz-adv-x="1098" d="M6 189l222 217q56 -62 112 -89t101 -27q28 0 62.5 8t64 30.5t49 63.5t19.5 107v997h328v-1012q0 -142 -42 -238t-111 -152.5t-160.5 -80t-190.5 -23.5q-66 0 -128.5 8t-121 30.5t-110 61.5t-94.5 99z" />
<glyph unicode="K" horiz-adv-x="1412" d="M150 0v1496h332v-640l4 -4l228 277l312 367h400l-525 -606l554 -890h-390l-388 636l-195 -219v-417h-332z" />
<glyph unicode="L" horiz-adv-x="1257" d="M150 0v1496h332v-1199h727v-297h-1059z" />
<glyph unicode="M" horiz-adv-x="1681" d="M150 0v1496h299l203 -433l193 -450h9l187 450l198 433h312v-1496h-330v712l-6 2l-136 -303l-100 -211h-255l-104 221l-132 293l-6 -6v-708h-332z" />
<glyph unicode="N" horiz-adv-x="1526" d="M150 0v1496h295l314 -458l288 -449l4 2v905h332v-1496h-295l-380 550l-222 357l-4 -2v-905h-332z" />
<glyph unicode="O" horiz-adv-x="1340" d="M88 572v353q0 117 36 222t107.5 185.5t180.5 128t255 47.5q135 0 244 -44t185 -122t117 -185.5t41 -231.5v-353q0 -133 -42 -241.5t-118.5 -185t-185 -117.5t-241.5 -41q-146 0 -255 47.5t-180.5 128t-107.5 187t-36 222.5zM421 548q0 -49 15.5 -94.5t45 -79.5t75 -55.5 t108.5 -21.5q120 0 185.5 72t65.5 179v406q0 99 -65.5 171.5t-185.5 72.5q-62 0 -108 -20.5t-75.5 -55t-45 -78.5t-15.5 -90v-406z" />
<glyph unicode="P" horiz-adv-x="1309" d="M150 0v1496h618q118 0 214.5 -33t165.5 -95.5t107 -151.5t38 -201q0 -100 -41 -186.5t-111 -149t-164.5 -98t-202.5 -35.5h-292v-546h-332zM482 843h277q82 0 140 48.5t58 130.5q0 90 -54 134t-152 44h-269v-357z" />
<glyph unicode="Q" horiz-adv-x="1369" d="M103 572v353q0 117 35.5 222t107.5 185.5t181 128t254 47.5q136 0 244.5 -44t184.5 -122t117 -185.5t41 -231.5v-353q0 -157 -59 -284l174 -140l-181 -204l-174 136q-146 -93 -347 -93q-145 0 -254 47.5t-181 128t-107.5 187t-35.5 222.5zM437 548q0 -49 14.5 -94.5 t45 -79.5t75.5 -55.5t107 -21.5q33 0 65 6l-151 118l181 217l155 -125q0 9 1 17t1 18v406q0 99 -65.5 171.5t-186.5 72.5q-62 0 -107 -20.5t-75.5 -55t-45 -78.5t-14.5 -90v-406z" />
<glyph unicode="R" horiz-adv-x="1401" d="M150 0v1496h663q98 0 185.5 -30t154 -86.5t105.5 -140.5t39 -192q0 -136 -70 -244t-205 -167l285 -636h-374l-236 579h-215v-579h-332zM482 876h273q90 0 143.5 42.5t53.5 126.5t-51.5 120.5t-135.5 36.5h-283v-326z" />
<glyph unicode="S" horiz-adv-x="1276" d="M17 193l192 254q105 -94 212.5 -125.5t223.5 -31.5q109 0 167 44t58 105q0 28 -6 54t-27.5 48.5t-62.5 38t-107 22.5q-107 10 -206.5 34t-176.5 74.5t-123.5 131.5t-46.5 207q0 119 46.5 206t120.5 143.5t166.5 84t184.5 27.5q138 0 273.5 -30.5t255.5 -109.5l-152 -264 q-53 34 -106.5 53t-101.5 30t-89 14t-72 3q-61 0 -99 -13t-60.5 -34.5t-30 -46t-7.5 -45.5q0 -37 14 -60.5t49.5 -41t97 -30t153.5 -28.5q92 -15 176 -43.5t147.5 -80.5t101 -130.5t37.5 -192.5q0 -117 -51.5 -205.5t-134.5 -148t-189.5 -89.5t-215.5 -30q-76 0 -153 7.5 t-154.5 30t-154 63.5t-149.5 105z" />
<glyph unicode="T" horiz-adv-x="1194" d="M17 1200v296h1146v-296h-408v-1200h-329v1200h-409z" />
<glyph unicode="U" horiz-adv-x="1412" d="M125 542v954h329v-930q0 -129 74 -199t180 -70q109 0 180 62t71 187v950h331v-973q0 -121 -46 -218.5t-124.5 -168t-185.5 -108.5t-226 -38q-121 0 -227.5 39.5t-186 111.5t-124.5 174t-45 227z" />
<glyph unicode="V" horiz-adv-x="1305" d="M-2 1496h348l192 -606l111 -381h11l105 375l189 612h347l-516 -1496h-268z" />
<glyph unicode="W" horiz-adv-x="1835" d="M2 1492h347l105 -443l94 -425h6l115 425l129 443h240l130 -441l114 -427h11l90 425l105 443h346l-400 -1496h-266l-140 486l-105 408h-7l-108 -414l-137 -480h-269z" />
<glyph unicode="X" horiz-adv-x="1352" d="M0 0l507 765l-479 731h376l267 -449l269 449h376l-479 -731l509 -765h-376l-299 486l-297 -486h-374z" />
<glyph unicode="Y" horiz-adv-x="1300" d="M15 1496h355l153 -322l129 -290h8l128 288l154 324h355l-484 -883v-613h-316v613z" />
<glyph unicode="Z" horiz-adv-x="1180" d="M60 0v281l658 921h-630v294h1030v-273l-656 -920h656v-303h-1058z" />
<glyph unicode="[" horiz-adv-x="675" d="M144 -205v1709h492v-229h-199v-1254h199v-226h-492z" />
<glyph unicode="\" horiz-adv-x="790" d="M-33 1559h259l544 -1649h-257z" />
<glyph unicode="]" horiz-adv-x="675" d="M39 21h197v1254h-197v229h490v-1709h-490v226z" />
<glyph unicode="^" horiz-adv-x="1182" d="M51 505l417 989h242l410 -985h-279l-254 646l-256 -650h-280z" />
<glyph unicode="_" horiz-adv-x="1075" d="M0 -148h1075v-196h-1075v196z" />
<glyph unicode="`" horiz-adv-x="1108" d="M238 1555l289 99l200 -417l-175 -82z" />
<glyph unicode="a" horiz-adv-x="1108" d="M76 316q0 66 25.5 126.5t74 105.5t120.5 71t164 26h241v34q0 17 -5.5 40t-23.5 42t-53.5 33t-95.5 14q-74 0 -136.5 -18t-115.5 -66l-148 209q96 89 207 115.5t224 26.5q93 0 176 -17t144.5 -59t96.5 -112t35 -175v-712h-305v99l-6 2q-28 -33 -63 -54t-70 -34t-69.5 -18 t-59.5 -5q-78 0 -143.5 19t-113 58.5t-74 101t-26.5 147.5zM370 342q0 -10 5 -26.5t20.5 -32.5t44 -28t77.5 -12q71 0 127.5 34.5t56.5 109.5v34h-202q-41 0 -67 -7.5t-40 -19t-18 -25.5t-4 -27z" />
<glyph unicode="b" horiz-adv-x="1145" d="M125 0v1563h308v-584l4 -3q19 22 46.5 40t60 31t66 20.5t59.5 7.5q127 0 203 -50.5t117 -128t54 -169t13 -173.5q0 -86 -12 -184.5t-53 -183.5t-117 -140.5t-205 -55.5q-56 0 -121.5 24.5t-110.5 73.5l-4 -4v-84h-308zM433 533q0 -38 3 -83.5t17.5 -85.5t46 -65.5 t85.5 -25.5q55 0 88 24.5t47.5 63.5t18 85t3.5 87q0 43 -3.5 88.5t-19 83t-47.5 62.5t-87 25q-54 0 -84 -25t-45 -63.5t-19 -84t-4 -86.5z" />
<glyph unicode="c" horiz-adv-x="995" d="M60 531q0 144 42 246.5t113 169t163.5 97.5t191.5 31q109 0 201.5 -36.5t174.5 -117.5l-197 -209q-50 47 -94 67.5t-85 20.5q-92 0 -141 -62.5t-49 -206.5q0 -141 43 -202.5t141 -61.5q43 0 90 20.5t99 69.5l201 -207q-88 -80 -189.5 -121.5t-212.5 -41.5 q-98 0 -187.5 31t-157 98t-107.5 170.5t-40 244.5z" />
<glyph unicode="d" horiz-adv-x="1145" d="M105 554q0 80 17.5 171.5t61.5 170t120 130t197 51.5q62 0 122.5 -24.5t103.5 -73.5l4 2v580h307v-1561h-307v84l-4 4q-48 -49 -112.5 -73.5t-122.5 -24.5q-137 0 -214.5 55.5t-116 140.5t-47.5 183.5t-9 184.5zM419 505q0 -39 5.5 -80.5t21.5 -75t47.5 -55t82.5 -21.5 q54 0 85 25.5t46 65.5t19.5 85.5t4.5 83.5q0 41 -4.5 86.5t-19.5 84t-45 63.5t-83 25q-58 0 -90.5 -28.5t-47.5 -71.5t-18.5 -93.5t-3.5 -93.5z" />
<glyph unicode="e" horiz-adv-x="1145" d="M76 529q0 150 42 254.5t110.5 169t155.5 93.5t178 29q127 0 219 -41t152 -113t89 -173t29 -221v-75h-657q10 -103 55.5 -145t122.5 -42q41 0 108 19t133 79l189 -211q-103 -94 -219 -129.5t-219 -35.5q-88 0 -175.5 25t-157 86.5t-112.5 165.5t-43 265zM404 649h316 q-8 73 -53 113t-103 40t-103.5 -41t-56.5 -112z" />
<glyph unicode="f" horiz-adv-x="698" d="M43 825v240h121v185q0 79 25.5 138t69.5 98t104 57t129 18h185v-258h-125q-84 0 -84 -88v-150h209v-240h-209v-825h-304v825h-121z" />
<glyph unicode="g" horiz-adv-x="1145" d="M86 507q0 86 11.5 185.5t53.5 184t121 140.5t214 56q60 0 116 -17.5t106 -68.5l4 2v76h308v-1037q0 -127 -42 -217t-111 -147.5t-159.5 -83t-186.5 -25.5q-97 0 -198 27.5t-198 109.5l150 214q64 -44 132.5 -60t111.5 -16q79 0 137 44t58 128v84l-4 2q-19 -24 -46.5 -42 t-57.5 -31t-61.5 -20.5t-56.5 -7.5q-133 0 -213 50.5t-122 128t-54.5 169t-12.5 172.5zM400 529q0 -43 4 -88t20.5 -83t47.5 -62.5t87 -24.5q53 0 83.5 24.5t46 63.5t19.5 84t4 86q0 39 -3 84t-18.5 84.5t-46.5 66t-85 26.5q-56 0 -88 -25t-48.5 -63.5t-19.5 -85t-3 -87.5z " />
<glyph unicode="h" horiz-adv-x="1184" d="M129 0v1561h308v-572l8 -2q21 19 51.5 35t63.5 28.5t68 18.5t64 6q76 0 141.5 -24.5t115 -73t77.5 -120.5t28 -165v-692h-305v628q0 82 -43 123t-109 41q-69 0 -114.5 -41t-45.5 -123v-628h-308z" />
<glyph unicode="i" horiz-adv-x="577" d="M135 0v1065h308v-1065h-308zM135 1227v269h308v-269h-308z" />
<glyph unicode="j" horiz-adv-x="614" d="M-19 -164h56q39 0 62.5 10t36 26.5t15.5 35t3 41.5v1118h308v-1178q0 -144 -87 -231.5t-266 -87.5h-128v266zM154 1227v269h308v-269h-308z" />
<glyph unicode="k" horiz-adv-x="1145" d="M129 0v1561h308v-860l4 -2l140 167l184 199h384l-407 -431l436 -634h-351l-285 421l-105 -113v-308h-308z" />
<glyph unicode="l" horiz-adv-x="614" d="M129 316v1245h308v-1187q0 -72 26.5 -89.5t69.5 -17.5h35v-267h-110q-64 0 -124.5 14t-105.5 49.5t-72 97t-27 155.5z" />
<glyph unicode="m" horiz-adv-x="1801" d="M129 0v1065h308v-99l8 -2q41 49 118 80t151 31q94 0 163 -35.5t110 -116.5q60 62 145 107t179 45q168 0 265 -96.5t97 -286.5v-692h-305v632q0 82 -45 123t-110 41q-70 0 -113.5 -41t-43.5 -123v-632h-307v632q0 82 -45.5 123t-110.5 41q-69 0 -112.5 -41t-43.5 -123 v-632h-308z" />
<glyph unicode="n" horiz-adv-x="1184" d="M129 0v1065h308v-89h4q49 46 123 72.5t135 26.5q175 0 265 -96.5t90 -286.5v-692h-305v628q0 82 -43 123t-109 41q-69 0 -114.5 -41t-45.5 -123v-628h-308z" />
<glyph unicode="o" horiz-adv-x="1108" d="M71 533q3 82 15.5 161.5t40.5 138.5q56 120 174.5 182t268.5 62q123 0 224 -45t160 -133q46 -66 66 -161q18 -83 18 -182v-29q0 -105 -21.5 -188t-59.5 -148q-67 -107 -177.5 -156.5t-237.5 -49.5q-125 0 -222.5 40.5t-157.5 128.5q-50 72 -72 168q-20 87 -19 191v20z M385 529q0 -55 6.5 -99.5t23.5 -76.5q19 -41 53.5 -64.5t81.5 -23.5q56 0 96 29.5t58 85.5q6 24 12 62t6 91v23q0 46 -6 84q-8 46 -19 70q-19 47 -57 69.5t-81 22.5q-46 0 -83 -24.5t-59 -67.5q-17 -35 -23.5 -80t-8.5 -101z" />
<glyph unicode="p" horiz-adv-x="1145" d="M135 -435v1500h306v-76l6 -2q45 49 109 67.5t121 18.5q138 0 216.5 -54.5t117 -136.5t47.5 -180t9 -183q0 -82 -15.5 -175.5t-58.5 -173.5t-122 -131.5t-211 -51.5q-53 0 -116.5 24t-96.5 73l-6 -2v-517h-306zM441 529q0 -41 4 -87t20.5 -85t46.5 -64.5t83 -25.5 q54 0 85.5 24.5t47.5 63.5t20.5 85t4.5 89q0 41 -3 87.5t-18.5 86t-47.5 65.5t-89 26q-55 0 -85 -27t-46.5 -67t-19.5 -86t-3 -85z" />
<glyph unicode="q" horiz-adv-x="1145" d="M109 507q0 86 13 185.5t55 184t124 140.5t222 56q56 0 108.5 -18.5t99.5 -67.5l4 2v76h308v-1500h-308v519l-4 2q-19 -21 -45 -39.5t-56 -31.5t-61 -20.5t-58 -7.5q-133 0 -212.5 47.5t-121.5 122.5t-55 167.5t-13 182.5zM423 529q0 -43 3.5 -89t18.5 -84t46.5 -62.5 t87.5 -24.5q53 0 84.5 25.5t47.5 64.5t20 84t4 86q0 39 -3 85t-18 84.5t-46.5 66t-84.5 27.5q-56 0 -88.5 -26t-48.5 -64.5t-19.5 -85t-3.5 -87.5z" />
<glyph unicode="r" horiz-adv-x="883" d="M129 -2v1067h301v-121l7 -2q41 58 103 95.5t133 37.5q66 0 118 -14t108 -52l-107 -269q-56 35 -106 45.5t-93 10.5q-69 0 -112.5 -41t-43.5 -123v-634h-308z" />
<glyph unicode="s" horiz-adv-x="1005" d="M30 152l151 216q79 -76 165.5 -99.5t174.5 -23.5q58 0 96.5 24t38.5 55t-23.5 56.5t-109.5 36.5q-80 8 -157.5 23.5t-137.5 49t-97 90t-37 151.5q0 86 33 151.5t87.5 107.5t128.5 63.5t156 21.5q123 0 228.5 -24.5t205.5 -100.5l-137 -228q-86 58 -166 73.5t-125 15.5 q-69 0 -97 -23t-28 -46q0 -36 48 -55.5t167 -34.5q74 -8 139.5 -26.5t115 -54t78.5 -94t29 -144.5t-37.5 -150t-101 -108.5t-144.5 -66t-167 -21.5q-60 0 -119 5.5t-118 24t-119.5 50.5t-120.5 85z" />
<glyph unicode="t" horiz-adv-x="715" d="M69 825v242h120v292h299v-292h161v-242h-157v-449q0 -69 23 -89t70 -20h67v-267h-166q-129 0 -215 75t-86 211v539h-116z" />
<glyph unicode="u" horiz-adv-x="1184" d="M131 370v695h308v-630q0 -82 42 -123t106 -41q69 0 116.5 41t47.5 123v630h307v-1065h-307v90h-4q-21 -26 -52.5 -45t-66.5 -32t-69 -19.5t-64 -6.5q-168 0 -266 97t-98 286z" />
<glyph unicode="v" horiz-adv-x="1092" d="M8 1065h330l95 -287l111 -357h4l112 357l97 287h327l-417 -1065h-239z" />
<glyph unicode="w" horiz-adv-x="1619" d="M10 1065h328l75 -265l84 -332h10l97 332l86 265h246l84 -265l94 -332h13l84 332l75 265h327l-363 -1065h-259l-82 262l-94 325h-7l-92 -322l-86 -265h-256z" />
<glyph unicode="x" horiz-adv-x="1156" d="M15 0l406 542l-391 523h368l178 -293l179 293h370l-394 -523l410 -542h-371l-194 306l-191 -306h-370z" />
<glyph unicode="y" horiz-adv-x="1079" d="M0 1065h329l104 -304l103 -335h8l101 331l108 308h326l-482 -1272q-49 -129 -139 -176t-198 -47h-122v252h79q50 0 78.5 30.5t44.5 73.5l52 160z" />
<glyph unicode="z" horiz-adv-x="995" d="M60 0v256l492 546h-462v263h843v-246l-490 -544h490v-275h-873z" />
<glyph unicode="{" horiz-adv-x="675" d="M26 536v223q164 6 163 193v278q0 122 74.5 194t181.5 72h211v-216h-88q-24 0 -41.5 -12t-27 -30.5t-13.5 -41t-4 -41.5v-252q0 -99 -51 -162.5t-113 -93.5q76 -29 120 -92t44 -159v-254q0 -19 1 -41.5t8.5 -42t26 -31.5t50.5 -12h88v-215h-211q-107 0 -181.5 72 t-74.5 194v283q0 187 -163 187z" />
<glyph unicode="|" horiz-adv-x="556" d="M144 -490v2060h267v-2060h-267z" />
<glyph unicode="}" horiz-adv-x="675" d="M24 15h87q33 0 51.5 12t25.5 31.5t8 42t1 41.5v254q0 96 44.5 160t119.5 91q-62 30 -113 93.5t-51 162.5v252q0 41 -18.5 83t-67.5 42h-87v216h210q107 0 180.5 -72t73.5 -194v-278q0 -187 166 -193v-223q-166 0 -166 -187v-283q0 -123 -73 -194.5t-181 -71.5h-210v215z " />
<glyph unicode="~" horiz-adv-x="1182" d="M92 486q64 127 140.5 197t190.5 70q49 0 97 -19.5t91 -41t80.5 -40t67.5 -18.5q43 0 84 29t90 92l166 -101q-66 -140 -140.5 -201t-164.5 -61q-52 0 -100.5 18t-93 38t-84.5 38.5t-75 18.5q-43 0 -87 -24.5t-100 -95.5z" />
<glyph unicode="&#xa1;" horiz-adv-x="632" d="M162 790v275h316v-275h-316zM166 -433l21 1087h265l24 -1087h-310z" />
<glyph unicode="&#xa2;" horiz-adv-x="1182" d="M146 531q0 129 34.5 225t93.5 161.5t136.5 103t165.5 48.5v299h125v-295q95 -6 176.5 -43t154.5 -109l-197 -209q-50 47 -94 67.5t-85 20.5q-92 0 -141 -62.5t-49 -206.5q0 -141 43 -202.5t140 -61.5q43 0 91 20.5t99 69.5l202 -207q-76 -69 -161.5 -108.5t-178.5 -49.5 v-282h-125v282q-90 8 -168.5 43.5t-136.5 102.5t-91.5 164.5t-33.5 228.5z" />
<glyph unicode="&#xa3;" horiz-adv-x="1182" d="M64 574v224h141q-24 80 -54 147.5t-30 129.5q0 80 26.5 157t86 137.5t152 98.5t225.5 38q74 0 139 -8t125.5 -34t119.5 -77t121 -140l-256 -174q-33 45 -61.5 74t-56.5 45.5t-55 22.5t-59 6q-28 0 -55 -10.5t-49.5 -31t-36 -49.5t-13.5 -65q0 -29 9 -56.5t24.5 -59 t29 -69t25.5 -82.5h302v-224h-300q-9 -82 -30 -161.5t-54 -143.5h610v-269h-1014v232q64 84 99.5 161.5t46.5 180.5h-158z" />
<glyph unicode="&#xa4;" horiz-adv-x="1194" d="M56 314l144 142q-65 116 -65 234q0 111 68 233l-147 144l157 158l146 -146q58 33 115 51.5t119 18.5q64 0 121.5 -16.5t112.5 -48.5q31 30 73 71t72 70l157 -158l-146 -144q32 -58 50 -116t18 -117q0 -64 -14.5 -118.5t-51.5 -115.5q30 -27 73 -69.5t71 -70.5l-157 -158 l-141 143q-56 -32 -115.5 -50.5t-122.5 -18.5q-62 0 -122 19.5t-114 49.5l-144 -143zM361 690q0 -47 18.5 -89t49.5 -73t73 -49.5t89 -18.5t89 18.5t75 49.5t50.5 73t17.5 89q0 49 -17.5 91t-50.5 73.5t-75 49t-89 17.5t-89 -17.5t-73 -49t-49.5 -73.5t-18.5 -91z" />
<glyph unicode="&#xa5;" horiz-adv-x="1182" d="M-28 1496h368l159 -355l101 -265h9l99 271l160 349h343l-368 -711h217v-176h-311v-90h311v-177h-311v-342h-316v342h-306v177h306v90h-306v176h211z" />
<glyph unicode="&#xa6;" horiz-adv-x="556" d="M144 471h267v-961h-267v961zM144 611v959h267v-959h-267z" />
<glyph unicode="&#xa7;" horiz-adv-x="1096" d="M66 -2l170 202q66 -60 144 -95.5t147 -35.5q90 0 133.5 31t43.5 83q0 19 -9 35t-32 32.5t-63.5 32.5t-104.5 35q-89 26 -162 55t-124 71t-79.5 103.5t-28.5 149.5q0 35 13 69t35.5 64t49.5 52.5t57 33.5q-55 43 -89 101t-34 122q0 84 32 151t90.5 114t137 73.5 t169.5 26.5q129 0 233 -25.5t207 -101.5l-146 -209q-84 49 -161.5 66.5t-148.5 17.5q-80 0 -109 -31t-29 -68q0 -35 34 -59.5t79 -42t93.5 -29t77.5 -20.5q60 -17 117 -43t101 -66.5t71.5 -102t27.5 -147.5q0 -39 -12 -76.5t-31.5 -70t-44 -56t-51.5 -34.5q52 -36 83.5 -92 t31.5 -114q0 -95 -38 -166t-101.5 -119t-147 -73t-177.5 -25q-129 0 -245 47.5t-210 133.5zM378 708q0 -56 98 -91q49 -16 105.5 -31.5t117.5 -37.5q37 21 36 78q0 19 -8.5 36t-32 33.5t-63.5 32.5t-104 33q-26 7 -49.5 13t-44.5 16q-33 -13 -44 -34t-11 -48z" />
<glyph unicode="&#xa8;" horiz-adv-x="1108" d="M164 1223v281h318v-281h-318zM632 1223v281h320v-281h-320z" />
<glyph unicode="&#xa9;" horiz-adv-x="1762" d="M121 735q0 168 57.5 309.5t161 245t243 162t301.5 58.5t301.5 -57.5t242.5 -160t161 -245t58 -312.5q0 -168 -58 -308.5t-161 -243.5t-242.5 -160.5t-301.5 -57.5t-301.5 56.5t-243 157t-161 243t-57.5 313.5zM310 735q0 -129 44 -238.5t120 -190t181.5 -127t228.5 -46.5 t228 46.5t181.5 127t120.5 190.5t44 238q0 133 -44 245t-120.5 192t-181.5 124t-228 44t-228.5 -46.5t-181.5 -128t-120 -191.5t-44 -239zM521 607v220q0 74 22.5 140.5t67.5 118t114 82t161 30.5q136 0 227 -65.5t126 -175.5l-198 -71q-11 50 -51 83t-106 33 q-80 0 -116.5 -47.5t-36.5 -107.5v-256q0 -62 36.5 -110t116.5 -48q62 0 104 33t53 86l198 -76q-35 -115 -126 -177.5t-227 -62.5q-92 0 -161 28.5t-114 77t-67.5 116t-22.5 149.5z" />
<glyph unicode="&#xaa;" horiz-adv-x="765" d="M45 815q0 90 70 149.5t203 59.5h150v25q0 21 -23.5 46t-79.5 25q-51 0 -95 -13t-79 -47l-125 138q66 69 146.5 91t159.5 22q69 0 129.5 -11.5t104 -39t69.5 -75.5t26 -118v-467h-233v75q-16 -26 -41 -42t-50.5 -26t-49.5 -13t-39 -3q-112 0 -177.5 54t-65.5 170zM271 831 q0 -11 15 -31t71 -20q43 0 77 18.5t34 61.5v22h-124q-47 0 -60 -19.5t-13 -31.5z" />
<glyph unicode="&#xab;" horiz-adv-x="1270" d="M99 482l314 460h301l-308 -460l308 -461h-301zM589 482l314 460h301l-305 -460l305 -461h-301z" />
<glyph unicode="&#xac;" horiz-adv-x="1182" d="M41 517v248h1100l3 -648h-266v400h-837z" />
<glyph unicode="&#xad;" horiz-adv-x="946" d="M101 413v282h744v-282h-744z" />
<glyph unicode="&#xae;" horiz-adv-x="1130" d="M97 1041q0 98 38.5 184t103 148.5t151 98.5t180.5 36q101 0 188 -36t150.5 -98.5t100 -148.5t36.5 -184q0 -99 -38.5 -184t-104 -146.5t-151.5 -96.5t-181 -35q-101 0 -187 35t-149.5 96.5t-100 146.5t-36.5 184zM215 1041q0 -76 27 -140t75 -112.5t113 -76.5t140 -28 q76 0 140 28t111 76.5t74.5 113t27.5 139.5t-27.5 140.5t-74.5 114t-111 75.5t-140 27q-75 0 -140 -27t-113 -75.5t-75 -114t-27 -140.5zM392 782v525h208q69 0 118.5 -42t49.5 -116q0 -43 -20.5 -81t-66.5 -66l101 -220h-126l-90 201h-63v-201h-111zM503 1088h92 q31 0 48 16t17 45q0 51 -60 51h-97v-112z" />
<glyph unicode="&#xaf;" horiz-adv-x="1108" d="M197 1243v253h717v-253h-717z" />
<glyph unicode="&#xb0;" horiz-adv-x="930" d="M114 1178q0 66 28 126.5t75.5 105.5t111 71.5t135.5 26.5q74 0 138.5 -26.5t111.5 -71.5t75 -105.5t28 -126.5q0 -69 -28 -129t-75 -105t-111.5 -71t-138.5 -26q-73 0 -136 26t-110.5 71t-75.5 105.5t-28 128.5zM324 1178q0 -56 42 -94.5t98 -38.5q58 0 99 38.5t41 94.5 t-40.5 93.5t-99.5 37.5q-56 0 -98 -37t-42 -94z" />
<glyph unicode="&#xb1;" horiz-adv-x="1182" d="M30 0v243h1123v-243h-1123zM39 688v250h419v391h266v-391h420v-250h-420v-372h-266v372h-419z" />
<glyph unicode="&#xb2;" horiz-adv-x="737" d="M45 794v178l385 398q25 24 24 50q0 30 -20.5 51t-59.5 21q-31 0 -59.5 -25.5t-37.5 -85.5l-232 32q9 66 39 118.5t74.5 89.5t100 56.5t113.5 19.5q139 0 229.5 -65.5t90.5 -197.5q0 -55 -20 -101.5t-55 -82.5l-241 -252h312v-204h-643z" />
<glyph unicode="&#xb3;" horiz-adv-x="743" d="M41 1045l228 30q8 -43 36 -63.5t65 -20.5q38 0 65 22.5t27 61.5t-27 66t-82 27h-78v174h80q56 0 79.5 23.5t23.5 54.5q0 30 -25 51t-63 21q-29 0 -55.5 -19.5t-37.5 -72.5l-226 34q29 125 122.5 194t204.5 69q86 0 147.5 -21.5t101.5 -58.5t59.5 -85t19.5 -102 q0 -41 -24 -94.5t-85 -79.5q33 -13 54.5 -34.5t35.5 -47t19.5 -53t5.5 -48.5q0 -127 -91.5 -206t-246.5 -79q-52 0 -105.5 13.5t-98.5 45t-79.5 79.5t-49.5 119z" />
<glyph unicode="&#xb4;" horiz-adv-x="1108" d="M394 1219l182 437l286 -93l-290 -408z" />
<glyph unicode="&#xb6;" horiz-adv-x="1210" d="M58 1079q0 78 24.5 156.5t75.5 139.5t125 100t175 39h170t163.5 1t165.5 1h176v-185h-92v-1501h-214v1501h-152v-1501h-219v839h-52q-84 0 -148.5 34t-108.5 91.5t-66.5 131.5t-22.5 153z" />
<glyph unicode="&#xb7;" horiz-adv-x="651" d="M144 426v354h363v-354h-363z" />
<glyph unicode="&#xb8;" horiz-adv-x="995" d="M252 -411l54 134q53 -26 87.5 -32.5t70.5 -6.5q35 0 60.5 16t25.5 48q0 21 -11.5 34t-27.5 17t-33.5 1t-30.5 -9l-84 43l86 271l155 2l-60 -185q111 -12 159 -70.5t48 -122.5q0 -39 -17.5 -74t-51 -64.5t-82 -47t-108.5 -17.5q-69 0 -131 16.5t-109 46.5z" />
<glyph unicode="&#xb9;" horiz-adv-x="612" d="M88 1348v234l177 108h199v-896h-236v642z" />
<glyph unicode="&#xba;" horiz-adv-x="765" d="M45 952q2 56 10.5 106t28.5 91q39 79 123 122t189 43q86 0 158 -31t115 -91q30 -43 44 -105.5t14 -138.5q0 -66 -15 -120t-43 -97q-45 -72 -125 -107t-168 -35t-157 29t-112 88q-37 49 -50.5 110.5t-11.5 135.5zM284 950q0 -66 19 -105q25 -51 80 -51q37 0 58 18.5 t33 47.5q4 15 8 39t4 53q0 76 -15 111q-10 24 -32.5 36.5t-48.5 12.5q-58 0 -87 -52q-18 -36 -19 -110z" />
<glyph unicode="&#xbb;" horiz-adv-x="1270" d="M99 21l305 461l-305 460h301l314 -460l-314 -461h-301zM589 21l308 461l-308 460h301l314 -460l-314 -461h-301z" />
<glyph unicode="&#xbc;" horiz-adv-x="1988" d="M222 1155v234l176 107h199v-896h-236v643zM380 -37l915 1570h254l-917 -1570h-252zM1051 121v163l336 613h265l-321 -577h124v160h235v-160h77v-199h-77v-121h-235v121h-404z" />
<glyph unicode="&#xbd;" horiz-adv-x="1988" d="M172 1155v234l177 107h199v-896h-236v643zM329 -37l914 1570h253l-915 -1570h-252zM1170 0v178l385 401v-3q21 21 21 50q0 30 -21.5 51.5t-60.5 21.5q-34 0 -59 -26t-33 -86l-232 33q8 66 37.5 119t72.5 89t97.5 55.5t112.5 19.5q69 0 128 -16.5t103 -49.5t69 -82 t25 -115q0 -51 -19 -99.5t-54 -84.5l-240 -251h310v-205h-642z" />
<glyph unicode="&#xbe;" horiz-adv-x="1988" d="M133 852l228 30q9 -43 37 -63.5t64 -20.5q39 0 65.5 22.5t26.5 61.5t-26.5 65.5t-82.5 26.5h-77v175h79q56 0 79.5 23.5t23.5 52.5q0 31 -24.5 52.5t-63.5 21.5q-28 0 -55 -19.5t-37 -73.5l-226 35q28 125 121.5 194t205.5 69q87 0 147.5 -21.5t100.5 -58.5t59.5 -85.5 t19.5 -101.5q0 -41 -23.5 -95t-84.5 -79q32 -13 53.5 -35t36 -48t19.5 -52.5t5 -47.5q0 -127 -91 -207t-247 -80q-51 0 -104.5 14.5t-99 45.5t-80 79t-49.5 120zM462 -37l915 1570h253l-916 -1570h-252zM1139 121v163l336 613h265l-320 -577h124v160h235v-160h76v-199h-76 v-121h-235v121h-405z" />
<glyph unicode="&#xbf;" horiz-adv-x="1063" d="M74 -19q0 69 23.5 123t58.5 101t77 91t77.5 89t59.5 96.5t24 115.5v48h316v-58q0 -62 -11 -113t-35 -100.5t-60 -103t-91 -122.5q-28 -35 -60 -79.5t-32 -89.5q0 -58 44 -92.5t101 -34.5q71 0 114.5 44t48.5 147l314 -37q-11 -107 -56 -191t-114 -142t-154 -88t-173 -30 q-111 0 -198.5 32.5t-148.5 89t-93 135.5t-32 169zM394 788v275h316v-275h-316z" />
<glyph unicode="&#xc0;" horiz-adv-x="1418" d="M-4 0l580 1496h261l581 -1496h-349l-112 306h-501l-112 -306h-348zM279 1770l195 230l386 -276l-120 -148zM559 585h295l-56 172l-88 297h-9l-86 -293z" />
<glyph unicode="&#xc1;" horiz-adv-x="1418" d="M-4 0l580 1496h261l581 -1496h-349l-112 306h-501l-112 -306h-348zM559 585h295l-56 172l-88 297h-9l-86 -293zM583 1724l387 276l193 -230l-459 -194z" />
<glyph unicode="&#xc2;" horiz-adv-x="1418" d="M-4 0l580 1496h261l581 -1496h-349l-112 306h-501l-112 -306h-348zM277 1688l320 258h211l325 -258l-109 -127l-320 170l-324 -168zM559 585h295l-56 172l-88 297h-9l-86 -293z" />
<glyph unicode="&#xc3;" horiz-adv-x="1418" d="M-4 0l580 1496h261l581 -1496h-349l-112 306h-501l-112 -306h-348zM267 1654q55 116 121 178t162 62q41 0 82 -16.5t78 -36t69 -36t58 -16.5q37 0 69 23.5t75 79.5l146 -86q-56 -125 -120.5 -179.5t-140.5 -54.5q-43 0 -84.5 16t-79 34.5t-72.5 34.5t-64 16 q-37 0 -74.5 -22.5t-85.5 -84.5zM559 585h295l-56 172l-88 297h-9l-86 -293z" />
<glyph unicode="&#xc4;" horiz-adv-x="1418" d="M-4 0l580 1496h261l581 -1496h-349l-112 306h-501l-112 -306h-348zM312 1600v286h328v-286h-328zM559 585h295l-56 172l-88 297h-9l-86 -293zM774 1600v286h327v-286h-327z" />
<glyph unicode="&#xc5;" horiz-adv-x="1418" d="M-4 0l580 1496h261l581 -1496h-349l-112 306h-501l-112 -306h-348zM439 1787q0 52 21.5 97t57.5 79.5t85 53.5t105 19q53 0 102.5 -19t85 -53.5t57 -79.5t21.5 -97q0 -51 -21.5 -96.5t-58 -80t-85 -54t-103.5 -19.5q-56 0 -105 19.5t-84 54t-56.5 80t-21.5 96.5zM559 585 h295l-56 172l-88 297h-9l-86 -293zM620 1787q0 -35 25.5 -58.5t62.5 -23.5q36 0 61 23.5t25 58.5t-25 57.5t-61 22.5q-37 0 -62.5 -22.5t-25.5 -57.5z" />
<glyph unicode="&#xc6;" horiz-adv-x="2345" d="M92 0l906 1496h1228v-296h-728v-303h620v-286h-620v-314h728v-297h-1058v320h-503l-181 -320h-392zM821 609h347v591h-9z" />
<glyph unicode="&#xc7;" horiz-adv-x="1289" d="M97 572v353q0 117 35.5 222t107.5 185.5t180.5 128t254.5 47.5q215 0 358 -104.5t200 -276.5l-315 -112q-17 78 -79.5 130.5t-165.5 52.5q-62 0 -107 -20.5t-75.5 -55t-45.5 -78.5t-15 -90v-406q0 -49 15 -94.5t45.5 -79.5t75.5 -55.5t107 -21.5q101 0 164.5 52.5 t80.5 134.5l315 -121q-52 -168 -184.5 -265.5t-324.5 -107.5l-20 -68q111 -12 158 -70.5t47 -122.5q0 -39 -16.5 -74t-50.5 -64.5t-82 -47t-108 -17.5q-69 0 -131.5 16.5t-109.5 46.5l53 134q54 -26 88.5 -32.5t71.5 -6.5q34 0 60 16t26 48q0 21 -12 34t-28 17t-33 1t-30 -9 l-84 43l49 160q-120 14 -209.5 62.5t-149 124t-88 175.5t-28.5 216z" />
<glyph unicode="&#xc8;" horiz-adv-x="1257" d="M150 0v1496h1059v-296h-727v-303h619v-286h-619v-314h727v-297h-1059zM232 1770l194 230l387 -276l-121 -148z" />
<glyph unicode="&#xc9;" horiz-adv-x="1257" d="M150 0v1496h1059v-296h-727v-303h619v-286h-619v-314h727v-297h-1059zM433 1724l386 276l194 -230l-461 -194z" />
<glyph unicode="&#xca;" horiz-adv-x="1257" d="M150 0v1496h1059v-296h-727v-303h619v-286h-619v-314h727v-297h-1059zM217 1688l321 258h211l324 -258l-109 -127l-321 170l-323 -168z" />
<glyph unicode="&#xcb;" horiz-adv-x="1257" d="M150 0v1496h1059v-296h-727v-303h619v-286h-619v-314h727v-297h-1059zM312 1600v286h328v-286h-328zM774 1600v286h327v-286h-327z" />
<glyph unicode="&#xcc;" horiz-adv-x="632" d="M-138 1770l194 230l387 -276l-121 -148zM158 0v1496h330v-1496h-330z" />
<glyph unicode="&#xcd;" horiz-adv-x="632" d="M158 0v1496h330v-1496h-330zM187 1724l387 276l194 -230l-460 -194z" />
<glyph unicode="&#xce;" horiz-adv-x="632" d="M-101 1688l320 258h211l325 -258l-110 -127l-321 170l-322 -168zM158 0v1496h330v-1496h-330z" />
<glyph unicode="&#xcf;" horiz-adv-x="632" d="M-78 1600v286h330v-286h-330zM158 0v1496h330v-1496h-330zM385 1600v286h327v-286h-327z" />
<glyph unicode="&#xd0;" horiz-adv-x="1412" d="M13 645v231h137v620h597q168 0 302.5 -64t206.5 -213q41 -82 49.5 -193.5t8.5 -251.5q0 -158 -8.5 -273.5t-45.5 -203.5q-37 -84 -93.5 -141t-127.5 -91.5t-155 -49.5t-174 -15h-560v645h-137zM482 297h217q84 0 138.5 22.5t87 64.5t46.5 101t14 132v273q0 155 -68 231.5 t-225 76.5h-210v-322h234v-231h-234v-348z" />
<glyph unicode="&#xd1;" horiz-adv-x="1526" d="M150 0v1496h295l314 -458l288 -449l4 2v905h332v-1496h-295l-380 550l-222 357l-4 -2v-905h-332zM314 1660q56 117 121.5 178.5t161.5 61.5q41 0 82 -16.5t78 -36t69 -35.5t58 -16q37 0 69 23.5t75 78.5l146 -86q-56 -125 -120.5 -179.5t-139.5 -54.5q-44 0 -85 16.5 t-79 34.5t-72.5 34t-64.5 16q-37 0 -74.5 -22.5t-84.5 -84.5z" />
<glyph unicode="&#xd2;" horiz-adv-x="1340" d="M88 572v353q0 117 36 222t107.5 185.5t180.5 128t255 47.5q135 0 244 -44t185 -122t117 -185.5t41 -231.5v-353q0 -133 -42 -241.5t-118.5 -185t-185 -117.5t-241.5 -41q-146 0 -255 47.5t-180.5 128t-107.5 187t-36 222.5zM279 1770l195 230l386 -276l-120 -148z M421 548q0 -49 15.5 -94.5t45 -79.5t75 -55.5t108.5 -21.5q120 0 185.5 72t65.5 179v406q0 99 -65.5 171.5t-185.5 72.5q-62 0 -108 -20.5t-75.5 -55t-45 -78.5t-15.5 -90v-406z" />
<glyph unicode="&#xd3;" horiz-adv-x="1340" d="M88 572v353q0 117 36 222t107.5 185.5t180.5 128t255 47.5q135 0 244 -44t185 -122t117 -185.5t41 -231.5v-353q0 -133 -42 -241.5t-118.5 -185t-185 -117.5t-241.5 -41q-146 0 -255 47.5t-180.5 128t-107.5 187t-36 222.5zM421 548q0 -49 15.5 -94.5t45 -79.5t75 -55.5 t108.5 -21.5q120 0 185.5 72t65.5 179v406q0 99 -65.5 171.5t-185.5 72.5q-62 0 -108 -20.5t-75.5 -55t-45 -78.5t-15.5 -90v-406zM433 1724l386 276l194 -230l-461 -194z" />
<glyph unicode="&#xd4;" horiz-adv-x="1340" d="M88 572v353q0 117 36 222t107.5 185.5t180.5 128t255 47.5q135 0 244 -44t185 -122t117 -185.5t41 -231.5v-353q0 -133 -42 -241.5t-118.5 -185t-185 -117.5t-241.5 -41q-146 0 -255 47.5t-180.5 128t-107.5 187t-36 222.5zM243 1688l321 258h210l325 -258l-110 -127 l-320 170l-323 -168zM421 548q0 -49 15.5 -94.5t45 -79.5t75 -55.5t108.5 -21.5q120 0 185.5 72t65.5 179v406q0 99 -65.5 171.5t-185.5 72.5q-62 0 -108 -20.5t-75.5 -55t-45 -78.5t-15.5 -90v-406z" />
<glyph unicode="&#xd5;" horiz-adv-x="1340" d="M88 572v353q0 117 36 222t107.5 185.5t180.5 128t255 47.5q135 0 244 -44t185 -122t117 -185.5t41 -231.5v-353q0 -133 -42 -241.5t-118.5 -185t-185 -117.5t-241.5 -41q-146 0 -255 47.5t-180.5 128t-107.5 187t-36 222.5zM234 1654q56 116 122 178t163 62 q41 0 81 -16.5t77 -36t69 -36t58 -16.5q37 0 69 23.5t75 79.5l146 -86q-56 -125 -120.5 -179.5t-138.5 -54.5q-43 0 -85 16t-80 34.5t-72 34.5t-65 16q-36 0 -74 -22.5t-85 -84.5zM421 548q0 -49 15.5 -94.5t45 -79.5t75 -55.5t108.5 -21.5q120 0 185.5 72t65.5 179v406 q0 99 -65.5 171.5t-185.5 72.5q-62 0 -108 -20.5t-75.5 -55t-45 -78.5t-15.5 -90v-406z" />
<glyph unicode="&#xd6;" horiz-adv-x="1340" d="M88 572v353q0 117 36 222t107.5 185.5t180.5 128t255 47.5q135 0 244 -44t185 -122t117 -185.5t41 -231.5v-353q0 -133 -42 -241.5t-118.5 -185t-185 -117.5t-241.5 -41q-146 0 -255 47.5t-180.5 128t-107.5 187t-36 222.5zM281 1600v286h330v-286h-330zM421 548 q0 -49 15.5 -94.5t45 -79.5t75 -55.5t108.5 -21.5q120 0 185.5 72t65.5 179v406q0 99 -65.5 171.5t-185.5 72.5q-62 0 -108 -20.5t-75.5 -55t-45 -78.5t-15.5 -90v-406zM744 1600v286h327v-286h-327z" />
<glyph unicode="&#xd7;" horiz-adv-x="1182" d="M71 1002l177 176l356 -357l338 340l189 -189l-339 -338l357 -357l-177 -176l-357 357l-344 -344l-187 187l344 344z" />
<glyph unicode="&#xd8;" horiz-adv-x="1340" d="M84 64l107 147q-53 76 -78 168t-25 193v353q0 117 36 222t107.5 185.5t180.5 128t255 47.5q116 0 211.5 -32.5t170.5 -92.5l95 131l110 -80l-110 -148q110 -152 110 -361v-353q0 -133 -42 -241.5t-118.5 -185t-185 -117.5t-241.5 -41q-123 0 -219.5 33.5t-166.5 93.5 l-92 -124zM421 527l435 591q-33 37 -81 58.5t-110 21.5t-108 -20.5t-75.5 -55t-45 -78.5t-15.5 -90v-406v-21zM476 378q30 -37 77 -59t112 -22q120 0 185.5 72t65.5 179v406q0 5 -1 10.5t-1 9.5z" />
<glyph unicode="&#xd9;" horiz-adv-x="1412" d="M125 542v954h329v-930q0 -129 74 -199t180 -70q109 0 180 62t71 187v950h331v-973q0 -121 -46 -218.5t-124.5 -168t-185.5 -108.5t-226 -38q-121 0 -227.5 39.5t-186 111.5t-124.5 174t-45 227zM275 1770l193 230l388 -276l-121 -148z" />
<glyph unicode="&#xda;" horiz-adv-x="1412" d="M125 542v954h329v-930q0 -129 74 -199t180 -70q109 0 180 62t71 187v950h331v-973q0 -121 -46 -218.5t-124.5 -168t-185.5 -108.5t-226 -38q-121 0 -227.5 39.5t-186 111.5t-124.5 174t-45 227zM523 1724l386 276l195 -230l-461 -194z" />
<glyph unicode="&#xdb;" horiz-adv-x="1412" d="M125 542v954h329v-930q0 -129 74 -199t180 -70q109 0 180 62t71 187v950h331v-973q0 -121 -46 -218.5t-124.5 -168t-185.5 -108.5t-226 -38q-121 0 -227.5 39.5t-186 111.5t-124.5 174t-45 227zM281 1688l321 258h211l324 -258l-109 -127l-320 170l-323 -168z" />
<glyph unicode="&#xdc;" horiz-adv-x="1412" d="M125 542v954h329v-930q0 -129 74 -199t180 -70q109 0 180 62t71 187v950h331v-973q0 -121 -46 -218.5t-124.5 -168t-185.5 -108.5t-226 -38q-121 0 -227.5 39.5t-186 111.5t-124.5 174t-45 227zM320 1600v286h329v-286h-329zM782 1600v286h328v-286h-328z" />
<glyph unicode="&#xdd;" horiz-adv-x="1300" d="M15 1496h355l153 -322l129 -290h8l128 288l154 324h355l-484 -883v-613h-316v613zM482 1724l386 276l195 -230l-461 -194z" />
<glyph unicode="&#xde;" horiz-adv-x="1309" d="M150 0v1496h332v-263h265q118 0 218 -33.5t173 -96t114 -152t41 -200.5q0 -101 -41 -187t-111 -148.5t-164.5 -98.5t-202.5 -36h-292v-281h-332zM482 579h283q82 0 140.5 48t58.5 130q0 90 -54 134.5t-153 44.5h-275v-357z" />
<glyph unicode="&#xdf;" horiz-adv-x="1216" d="M125 0v1114q0 107 34 190t97.5 138.5t149.5 85t189 29.5q123 0 208 -35.5t138.5 -92.5t77.5 -126.5t24 -136.5q0 -33 -6.5 -71.5t-24 -76t-46 -71t-74.5 -52.5v-7q67 -19 111 -63.5t70 -97t36.5 -107t10.5 -99.5q0 -82 -19 -173.5t-72 -169t-147 -128t-246 -50.5h-66v256 h50q75 0 127.5 59t52.5 188q0 37 -3 81t-20.5 83t-52 64.5t-96.5 25.5v224q35 0 59.5 15t39.5 37.5t21.5 48.5t6.5 49q0 21 -5.5 50.5t-21.5 55t-46 44t-82 18.5q-46 0 -77 -15.5t-50 -41t-27.5 -57.5t-8.5 -65v-1120h-312z" />
<glyph unicode="&#xe0;" horiz-adv-x="1108" d="M76 316q0 66 25.5 126.5t74 105.5t120.5 71t164 26h241v34q0 17 -5.5 40t-23.5 42t-53.5 33t-95.5 14q-74 0 -136.5 -18t-115.5 -66l-148 209q96 89 207 115.5t224 26.5q93 0 176 -17t144.5 -59t96.5 -112t35 -175v-712h-305v99l-6 2q-28 -33 -63 -54t-70 -34t-69.5 -18 t-59.5 -5q-78 0 -143.5 19t-113 58.5t-74 101t-26.5 147.5zM245 1555l288 99l200 -417l-174 -82zM370 342q0 -10 5 -26.5t20.5 -32.5t44 -28t77.5 -12q71 0 127.5 34.5t56.5 109.5v34h-202q-41 0 -67 -7.5t-40 -19t-18 -25.5t-4 -27z" />
<glyph unicode="&#xe1;" horiz-adv-x="1108" d="M76 316q0 66 25.5 126.5t74 105.5t120.5 71t164 26h241v34q0 17 -5.5 40t-23.5 42t-53.5 33t-95.5 14q-74 0 -136.5 -18t-115.5 -66l-148 209q96 89 207 115.5t224 26.5q93 0 176 -17t144.5 -59t96.5 -112t35 -175v-712h-305v99l-6 2q-28 -33 -63 -54t-70 -34t-69.5 -18 t-59.5 -5q-78 0 -143.5 19t-113 58.5t-74 101t-26.5 147.5zM370 342q0 -10 5 -26.5t20.5 -32.5t44 -28t77.5 -12q71 0 127.5 34.5t56.5 109.5v34h-202q-41 0 -67 -7.5t-40 -19t-18 -25.5t-4 -27zM430 1219l183 437l286 -93l-290 -408z" />
<glyph unicode="&#xe2;" horiz-adv-x="1108" d="M76 316q0 66 25.5 126.5t74 105.5t120.5 71t164 26h241v34q0 17 -5.5 40t-23.5 42t-53.5 33t-95.5 14q-74 0 -136.5 -18t-115.5 -66l-148 209q96 89 207 115.5t224 26.5q93 0 176 -17t144.5 -59t96.5 -112t35 -175v-712h-305v99l-6 2q-28 -33 -63 -54t-70 -34t-69.5 -18 t-59.5 -5q-78 0 -143.5 19t-113 58.5t-74 101t-26.5 147.5zM121 1225l316 334h221l318 -334l-120 -105l-310 224l-156 -112t-156 -110zM370 342q0 -10 5 -26.5t20.5 -32.5t44 -28t77.5 -12q71 0 127.5 34.5t56.5 109.5v34h-202q-41 0 -67 -7.5t-40 -19t-18 -25.5t-4 -27z " />
<glyph unicode="&#xe3;" horiz-adv-x="1108" d="M76 316q0 66 25.5 126.5t74 105.5t120.5 71t164 26h241v34q0 17 -5.5 40t-23.5 42t-53.5 33t-95.5 14q-74 0 -136.5 -18t-115.5 -66l-148 209q96 89 207 115.5t224 26.5q93 0 176 -17t144.5 -59t96.5 -112t35 -175v-712h-305v99l-6 2q-28 -33 -63 -54t-70 -34t-69.5 -18 t-59.5 -5q-78 0 -143.5 19t-113 58.5t-74 101t-26.5 147.5zM133 1288q56 117 121.5 179t162.5 62q41 0 82 -17.5t77.5 -37t68.5 -35t59 -15.5q36 0 68 23.5t75 79.5l146 -86q-55 -125 -120 -180t-140 -55q-43 0 -84.5 16.5t-79.5 34.5t-72.5 34t-63.5 16q-37 0 -75 -22.5 t-85 -84.5zM370 342q0 -10 5 -26.5t20.5 -32.5t44 -28t77.5 -12q71 0 127.5 34.5t56.5 109.5v34h-202q-41 0 -67 -7.5t-40 -19t-18 -25.5t-4 -27z" />
<glyph unicode="&#xe4;" horiz-adv-x="1108" d="M76 316q0 66 25.5 126.5t74 105.5t120.5 71t164 26h241v34q0 17 -5.5 40t-23.5 42t-53.5 33t-95.5 14q-74 0 -136.5 -18t-115.5 -66l-148 209q96 89 207 115.5t224 26.5q93 0 176 -17t144.5 -59t96.5 -112t35 -175v-712h-305v99l-6 2q-28 -33 -63 -54t-70 -34t-69.5 -18 t-59.5 -5q-78 0 -143.5 19t-113 58.5t-74 101t-26.5 147.5zM164 1223v281h318v-281h-318zM370 342q0 -10 5 -26.5t20.5 -32.5t44 -28t77.5 -12q71 0 127.5 34.5t56.5 109.5v34h-202q-41 0 -67 -7.5t-40 -19t-18 -25.5t-4 -27zM632 1223v281h320v-281h-320z" />
<glyph unicode="&#xe5;" horiz-adv-x="1108" d="M76 316q0 66 25.5 126.5t74 105.5t120.5 71t164 26h241v34q0 17 -5.5 40t-23.5 42t-53.5 33t-95.5 14q-74 0 -136.5 -18t-115.5 -66l-148 209q96 89 207 115.5t224 26.5q93 0 176 -17t144.5 -59t96.5 -112t35 -175v-712h-305v99l-6 2q-28 -33 -63 -54t-70 -34t-69.5 -18 t-59.5 -5q-78 0 -143.5 19t-113 58.5t-74 101t-26.5 147.5zM308 1383q0 51 21.5 96.5t57.5 80t85 53.5t104 19q54 0 103.5 -19t85 -53.5t57 -80t21.5 -96.5q0 -52 -21.5 -97t-58 -79.5t-85 -54t-104.5 -19.5q-55 0 -104 19.5t-84 54t-56.5 79.5t-21.5 97zM370 342 q0 -10 5 -26.5t20.5 -32.5t44 -28t77.5 -12q71 0 127.5 34.5t56.5 109.5v34h-202q-41 0 -67 -7.5t-40 -19t-18 -25.5t-4 -27zM488 1383q0 -35 26 -58.5t62 -23.5q37 0 62 23.5t25 58.5t-25 57.5t-62 22.5q-36 0 -62 -22.5t-26 -57.5z" />
<glyph unicode="&#xe6;" horiz-adv-x="1790" d="M76 316q0 66 25.5 126.5t74 105.5t120.5 71t164 26h241v34q0 17 -6.5 42.5t-26 48t-56 38t-95.5 15.5q-91 0 -154.5 -23.5t-110.5 -70.5l-138 198q41 45 90.5 74t102 45.5t108.5 22.5t112 6q41 0 90.5 -3t98.5 -16t94.5 -35.5t77.5 -61.5q60 62 141 89t155 27 q127 0 220.5 -41t155 -113t92 -173t30.5 -221v-75h-656q15 -106 68 -145.5t129 -39.5q41 0 97.5 18t122.5 78l189 -211q-103 -94 -213 -128t-213 -34q-98 0 -199.5 29.5t-175.5 109.5q-60 -55 -152 -97t-225 -42q-78 0 -147 19t-120.5 58.5t-81 101t-29.5 147.5zM370 342 q0 -10 5 -26.5t20.5 -32.5t44 -28t77.5 -12q71 0 127.5 34.5t56.5 109.5v34h-202q-41 0 -67 -7.5t-40 -19t-18 -25.5t-4 -27zM1036 649h323q-9 73 -57 111t-106 38t-103.5 -39t-56.5 -110z" />
<glyph unicode="&#xe7;" horiz-adv-x="995" d="M60 531q0 144 42 246.5t113 169t163.5 97.5t191.5 31q109 0 201.5 -36.5t174.5 -117.5l-197 -209q-50 47 -94 67.5t-85 20.5q-92 0 -141 -62.5t-49 -206.5q0 -141 43 -202.5t141 -61.5q43 0 90 20.5t99 69.5l201 -207q-170 -152 -380 -163l-22 -65q112 -12 159.5 -70.5 t47.5 -122.5q0 -39 -17.5 -74t-50.5 -64.5t-81 -47t-109 -17.5q-69 0 -131 16.5t-110 46.5l54 134q54 -26 88.5 -32.5t71.5 -6.5q34 0 59.5 16t25.5 48q0 21 -11.5 34t-28 17t-34 1t-29.5 -9l-84 43l51 166q-78 17 -144 58t-114 106.5t-76.5 156t-28.5 210.5z" />
<glyph unicode="&#xe8;" horiz-adv-x="1145" d="M76 529q0 150 42 254.5t110.5 169t155.5 93.5t178 29q127 0 219 -41t152 -113t89 -173t29 -221v-75h-657q10 -103 55.5 -145t122.5 -42q41 0 108 19t133 79l189 -211q-103 -94 -219 -129.5t-219 -35.5q-88 0 -175.5 25t-157 86.5t-112.5 165.5t-43 265zM238 1555l289 99 l200 -417l-175 -82zM404 649h316q-8 73 -53 113t-103 40t-103.5 -41t-56.5 -112z" />
<glyph unicode="&#xe9;" horiz-adv-x="1145" d="M76 529q0 150 42 254.5t110.5 169t155.5 93.5t178 29q127 0 219 -41t152 -113t89 -173t29 -221v-75h-657q10 -103 55.5 -145t122.5 -42q41 0 108 19t133 79l189 -211q-103 -94 -219 -129.5t-219 -35.5q-88 0 -175.5 25t-157 86.5t-112.5 165.5t-43 265zM404 649h316 q-8 73 -53 113t-103 40t-103.5 -41t-56.5 -112zM419 1219l183 437l286 -93l-291 -408z" />
<glyph unicode="&#xea;" horiz-adv-x="1145" d="M76 529q0 150 42 254.5t110.5 169t155.5 93.5t178 29q127 0 219 -41t152 -113t89 -173t29 -221v-75h-657q10 -103 55.5 -145t122.5 -42q41 0 108 19t133 79l189 -211q-103 -94 -219 -129.5t-219 -35.5q-88 0 -175.5 25t-157 86.5t-112.5 165.5t-43 265zM144 1225l316 334 h221l319 -334l-120 -105l-310 224q-78 -56 -156.5 -112t-155.5 -110zM404 649h316q-8 73 -53 113t-103 40t-103.5 -41t-56.5 -112z" />
<glyph unicode="&#xeb;" horiz-adv-x="1145" d="M76 529q0 150 42 254.5t110.5 169t155.5 93.5t178 29q127 0 219 -41t152 -113t89 -173t29 -221v-75h-657q10 -103 55.5 -145t122.5 -42q41 0 108 19t133 79l189 -211q-103 -94 -219 -129.5t-219 -35.5q-88 0 -175.5 25t-157 86.5t-112.5 165.5t-43 265zM164 1223v281h318 v-281h-318zM404 649h316q-8 73 -53 113t-103 40t-103.5 -41t-56.5 -112zM632 1223v281h320v-281h-320z" />
<glyph unicode="&#xec;" horiz-adv-x="577" d="M-69 1555l288 99l200 -417l-174 -82zM135 0v1065h308v-1065h-308z" />
<glyph unicode="&#xed;" horiz-adv-x="577" d="M135 0v1065h308v-1065h-308zM144 1219l183 437l286 -93l-291 -408z" />
<glyph unicode="&#xee;" horiz-adv-x="767" d="M-45 1225l316 334h221l319 -334l-121 -105l-310 224l-156 -112t-155 -110zM224 0v1065h307v-1065h-307z" />
<glyph unicode="&#xef;" horiz-adv-x="702" d="M-43 1223v281h318v-281h-318zM197 0v1065h308v-1065h-308zM426 1223v281h321v-281h-321z" />
<glyph unicode="&#xf0;" horiz-adv-x="1153" d="M62 507q0 86 21.5 177.5t75.5 167t144.5 124t227.5 48.5q39 0 78.5 -11t74 -28t62.5 -39.5t44 -48.5h4q2 0 4 2q-4 75 -20.5 153.5t-59.5 129.5l-105 -90l-100 108l104 90q-55 39 -124.5 59.5t-150.5 27.5l45 238q138 -11 249 -48.5t197 -113.5l131 115l107 -103 l-131 -115q47 -62 76 -136.5t45 -158t21.5 -175.5t5.5 -192q0 -142 -31 -268.5t-96.5 -223.5t-170 -154t-250.5 -57q-129 0 -219.5 40.5t-148.5 112t-84 166t-26 203.5zM380 492q0 -49 12 -97.5t38 -80.5q39 -47 114 -47q43 0 76.5 20.5t50.5 47.5q19 33 28 79t9 97 q0 103 -39 167t-125 64q-45 0 -76 -19t-50.5 -53t-28.5 -79t-9 -99z" />
<glyph unicode="&#xf1;" horiz-adv-x="1184" d="M129 0v1065h308v-89h4q49 46 123 72.5t135 26.5q175 0 265 -96.5t90 -286.5v-692h-305v628q0 82 -43 123t-109 41q-69 0 -114.5 -41t-45.5 -123v-628h-308zM131 1288q56 117 121.5 179t162.5 62q41 0 82 -17.5t77.5 -37t68.5 -35t58 -15.5q37 0 69 23.5t75 79.5l146 -86 q-55 -125 -120 -180t-140 -55q-43 0 -85 16.5t-79.5 34.5t-72 34t-64.5 16q-36 0 -74 -22.5t-85 -84.5z" />
<glyph unicode="&#xf2;" horiz-adv-x="1108" d="M71 533q3 82 15.5 161.5t40.5 138.5q56 120 174.5 182t268.5 62q123 0 224 -45t160 -133q46 -66 66.5 -161t17.5 -211q0 -105 -21.5 -188t-59.5 -148q-67 -107 -177.5 -156.5t-237.5 -49.5q-125 0 -222.5 40.5t-157.5 128.5q-50 72 -71.5 167.5t-19.5 211.5zM240 1555 l289 99l200 -417l-175 -82zM385 529q0 -55 6.5 -99.5t23.5 -76.5q19 -41 53.5 -64.5t81.5 -23.5q56 0 96 29.5t58 85.5q6 24 12 62t6 91q2 60 -6 106.5t-19 70.5q-19 47 -57 69.5t-81 22.5q-46 0 -83 -24.5t-59 -67.5q-17 -35 -23.5 -80t-8.5 -101z" />
<glyph unicode="&#xf3;" horiz-adv-x="1108" d="M71 533q3 82 15.5 161.5t40.5 138.5q56 120 174.5 182t268.5 62q123 0 224 -45t160 -133q46 -66 66.5 -161t17.5 -211q0 -105 -21.5 -188t-59.5 -148q-67 -107 -177.5 -156.5t-237.5 -49.5q-125 0 -222.5 40.5t-157.5 128.5q-50 72 -71.5 167.5t-19.5 211.5zM385 529 q0 -55 6.5 -99.5t23.5 -76.5q19 -41 53.5 -64.5t81.5 -23.5q56 0 96 29.5t58 85.5q6 24 12 62t6 91q2 60 -6 106.5t-19 70.5q-19 47 -57 69.5t-81 22.5q-46 0 -83 -24.5t-59 -67.5q-17 -35 -23.5 -80t-8.5 -101zM439 1219l183 437l285 -93l-290 -408z" />
<glyph unicode="&#xf4;" horiz-adv-x="1108" d="M71 533q3 82 15.5 161.5t40.5 138.5q56 120 174.5 182t268.5 62q123 0 224 -45t160 -133q46 -66 66.5 -161t17.5 -211q0 -105 -21.5 -188t-59.5 -148q-67 -107 -177.5 -156.5t-237.5 -49.5q-125 0 -222.5 40.5t-157.5 128.5q-50 72 -71.5 167.5t-19.5 211.5zM135 1225 l317 334h221l318 -334l-121 -105l-308 224q-78 -56 -156.5 -112t-155.5 -110zM385 529q0 -55 6.5 -99.5t23.5 -76.5q19 -41 53.5 -64.5t81.5 -23.5q56 0 96 29.5t58 85.5q6 24 12 62t6 91q2 60 -6 106.5t-19 70.5q-19 47 -57 69.5t-81 22.5q-46 0 -83 -24.5t-59 -67.5 q-17 -35 -23.5 -80t-8.5 -101z" />
<glyph unicode="&#xf5;" horiz-adv-x="1108" d="M71 533q3 82 15.5 161.5t40.5 138.5q56 120 174.5 182t268.5 62q123 0 224 -45t160 -133q46 -66 66.5 -161t17.5 -211q0 -105 -21.5 -188t-59.5 -148q-67 -107 -177.5 -156.5t-237.5 -49.5q-125 0 -222.5 40.5t-157.5 128.5q-50 72 -71.5 167.5t-19.5 211.5zM127 1288 q56 117 121.5 179t162.5 62q41 0 81.5 -17.5t77.5 -37t69 -35t58 -15.5q37 0 69 23.5t75 79.5l146 -86q-56 -125 -120.5 -180t-139.5 -55q-43 0 -85 16.5t-79.5 34.5t-72 34t-64.5 16q-36 0 -74 -22.5t-85 -84.5zM385 529q0 -55 6.5 -99.5t23.5 -76.5q19 -41 53.5 -64.5 t81.5 -23.5q56 0 96 29.5t58 85.5q6 24 12 62t6 91q2 60 -6 106.5t-19 70.5q-19 47 -57 69.5t-81 22.5q-46 0 -83 -24.5t-59 -67.5q-17 -35 -23.5 -80t-8.5 -101z" />
<glyph unicode="&#xf6;" horiz-adv-x="1108" d="M71 533q3 82 15.5 161.5t40.5 138.5q56 120 174.5 182t268.5 62q123 0 224 -45t160 -133q46 -66 66.5 -161t17.5 -211q0 -105 -21.5 -188t-59.5 -148q-67 -107 -177.5 -156.5t-237.5 -49.5q-125 0 -222.5 40.5t-157.5 128.5q-50 72 -71.5 167.5t-19.5 211.5zM164 1223 v281h318v-281h-318zM385 529q0 -55 6.5 -99.5t23.5 -76.5q19 -41 53.5 -64.5t81.5 -23.5q56 0 96 29.5t58 85.5q6 24 12 62t6 91q2 60 -6 106.5t-19 70.5q-19 47 -57 69.5t-81 22.5q-46 0 -83 -24.5t-59 -67.5q-17 -35 -23.5 -80t-8.5 -101zM632 1223v281h320v-281h-320z " />
<glyph unicode="&#xf7;" horiz-adv-x="1182" d="M39 517v248h1105v-248h-1105zM400 174q0 76 55.5 127.5t135.5 51.5t135.5 -51.5t55.5 -127.5q0 -39 -14.5 -71t-40.5 -57t-61.5 -38.5t-74.5 -13.5t-74 13.5t-61 38.5t-41 57t-15 71zM400 1086q0 39 15 71.5t41 57t61 38t74 13.5t74.5 -13.5t61.5 -38t40.5 -57 t14.5 -71.5q0 -76 -55.5 -127.5t-135.5 -51.5t-135.5 52t-55.5 127z" />
<glyph unicode="&#xf8;" horiz-adv-x="1108" d="M71 41l95 107q-4 4 -4 6q-50 72 -71.5 167.5t-19.5 211.5q3 82 15.5 161.5t40.5 138.5q56 120 174.5 182t268.5 62q93 0 173 -25.5t143 -77.5l93 108l70 -62l-101 -115l6 -6q46 -66 66.5 -161t17.5 -211q0 -105 -21.5 -188t-59.5 -148q-67 -107 -177.5 -156.5 t-237.5 -49.5q-97 0 -176.5 24t-139.5 73l-86 -99zM385 529q0 -73 9 -116l285 327q-21 31 -52.5 46.5t-67.5 15.5q-46 0 -83 -24.5t-59 -67.5q-17 -35 -23.5 -80t-8.5 -101zM435 318q43 -53 115 -53q56 0 96 29.5t58 85.5q6 24 12 62t6 91q0 60 -6 105z" />
<glyph unicode="&#xf9;" horiz-adv-x="1184" d="M131 370v695h308v-630q0 -82 42 -123t106 -41q69 0 116.5 41t47.5 123v630h307v-1065h-307v90h-4q-21 -26 -52.5 -45t-66.5 -32t-69 -19.5t-64 -6.5q-168 0 -266 97t-98 286zM258 1555l288 99l201 -417l-175 -82z" />
<glyph unicode="&#xfa;" horiz-adv-x="1184" d="M131 370v695h308v-630q0 -82 42 -123t106 -41q69 0 116.5 41t47.5 123v630h307v-1065h-307v90h-4q-21 -26 -52.5 -45t-66.5 -32t-69 -19.5t-64 -6.5q-168 0 -266 97t-98 286zM471 1219l183 437l286 -93l-291 -408z" />
<glyph unicode="&#xfb;" horiz-adv-x="1184" d="M131 370v695h308v-630q0 -82 42 -123t106 -41q69 0 116.5 41t47.5 123v630h307v-1065h-307v90h-4q-21 -26 -52.5 -45t-66.5 -32t-69 -19.5t-64 -6.5q-168 0 -266 97t-98 286zM164 1225l316 334h221l319 -334l-121 -105l-310 224l-156 -112t-156 -110z" />
<glyph unicode="&#xfc;" horiz-adv-x="1184" d="M131 370v695h308v-630q0 -82 42 -123t106 -41q69 0 116.5 41t47.5 123v630h307v-1065h-307v90h-4q-21 -26 -52.5 -45t-66.5 -32t-69 -19.5t-64 -6.5q-168 0 -266 97t-98 286zM189 1223v281h318v-281h-318zM658 1223v281h321v-281h-321z" />
<glyph unicode="&#xfd;" horiz-adv-x="1079" d="M0 1065h329l104 -304l103 -335h8l101 331l108 308h326l-482 -1272q-49 -129 -139 -176t-198 -47h-122v252h79q50 0 78.5 30.5t44.5 73.5l52 160zM443 1219l183 437l285 -93l-289 -408z" />
<glyph unicode="&#xfe;" horiz-adv-x="1145" d="M135 -435v1998h306v-574l6 -2q45 49 99 67.5t112 18.5q138 0 219.5 -56t123.5 -140.5t54 -184t12 -185.5q0 -82 -16.5 -173t-62.5 -168.5t-128 -128t-213 -50.5q-54 0 -108.5 27t-91.5 70l-6 -2v-517h-306zM441 529q0 -41 4 -87t20.5 -85t46.5 -64.5t83 -25.5 q54 0 85.5 24.5t47.5 63.5t20.5 85t4.5 89q0 41 -3 87.5t-18.5 86t-47.5 65.5t-89 26q-55 0 -85 -27t-46.5 -67t-19.5 -86t-3 -85z" />
<glyph unicode="&#xff;" horiz-adv-x="1079" d="M0 1065h329l104 -304l103 -335h8l101 331l108 308h326l-482 -1272q-49 -129 -139 -176t-198 -47h-122v252h79q50 0 78.5 30.5t44.5 73.5l52 160zM127 1223v281h318v-281h-318zM595 1223v281h321v-281h-321z" />
<glyph unicode="&#x100;" horiz-adv-x="1418" d="M-4 0l580 1496h261l581 -1496h-349l-112 306h-501l-112 -306h-348zM351 1630v254h716v-254h-716zM559 585h295l-56 172l-88 297h-9l-86 -293z" />
<glyph unicode="&#x101;" horiz-adv-x="1108" d="M76 316q0 66 25.5 126.5t74 105.5t120.5 71t164 26h241v34q0 17 -5.5 40t-23.5 42t-53.5 33t-95.5 14q-74 0 -136.5 -18t-115.5 -66l-148 209q96 89 207 115.5t224 26.5q93 0 176 -17t144.5 -59t96.5 -112t35 -175v-712h-305v99l-6 2q-28 -33 -63 -54t-70 -34t-69.5 -18 t-59.5 -5q-78 0 -143.5 19t-113 58.5t-74 101t-26.5 147.5zM197 1243v253h717v-253h-717zM370 342q0 -10 5 -26.5t20.5 -32.5t44 -28t77.5 -12q71 0 127.5 34.5t56.5 109.5v34h-202q-41 0 -67 -7.5t-40 -19t-18 -25.5t-4 -27z" />
<glyph unicode="&#x102;" horiz-adv-x="1418" d="M-4 0l580 1496h261l581 -1496h-349l-112 306h-501l-112 -306h-348zM370 1918h215q0 -21 7.5 -46t22.5 -47.5t37.5 -37.5t53.5 -15q30 0 52 15t37.5 37.5t22.5 47t7 46.5h216q-7 -49 -25 -109.5t-55.5 -113t-100 -88t-154.5 -35.5q-93 0 -155.5 35.5t-100 88t-56 113 t-24.5 109.5zM559 585h295l-56 172l-88 297h-9l-86 -293z" />
<glyph unicode="&#x103;" horiz-adv-x="1108" d="M76 316q0 66 25.5 126.5t74 105.5t120.5 71t164 26h241v34q0 17 -5.5 40t-23.5 42t-53.5 33t-95.5 14q-74 0 -136.5 -18t-115.5 -66l-148 209q96 89 207 115.5t224 26.5q93 0 176 -17t144.5 -59t96.5 -112t35 -175v-712h-305v99l-6 2q-28 -33 -63 -54t-70 -34t-69.5 -18 t-59.5 -5q-78 0 -143.5 19t-113 58.5t-74 101t-26.5 147.5zM236 1553h216q0 -21 7 -46t22.5 -48t38 -38t52.5 -15q31 0 53 15t37 38t22.5 47.5t7.5 46.5h215q-6 -49 -24.5 -109.5t-55.5 -113t-99.5 -88.5t-155.5 -36q-92 0 -154.5 36t-100.5 88.5t-56 113t-25 109.5z M370 342q0 -10 5 -26.5t20.5 -32.5t44 -28t77.5 -12q71 0 127.5 34.5t56.5 109.5v34h-202q-41 0 -67 -7.5t-40 -19t-18 -25.5t-4 -27z" />
<glyph unicode="&#x104;" horiz-adv-x="1418" d="M-4 0l580 1496h261l581 -1496h-152q-49 -69 -71.5 -114.5t-22.5 -76.5q0 -58 69 -59q19 0 53.5 8t84.5 25l59 -151q-55 -30 -115.5 -48.5t-116.5 -18.5q-102 0 -166 62.5t-64 148.5q0 48 20.5 99t70.5 127l-110 304h-501l-112 -306h-348zM559 585h295l-56 172l-88 297h-9 l-86 -293z" />
<glyph unicode="&#x105;" horiz-adv-x="1108" d="M76 316q0 66 25.5 126.5t74 105.5t120.5 71t164 26h241v34q0 17 -5.5 40t-23.5 42t-53.5 33t-95.5 14q-74 0 -136.5 -18t-115.5 -66l-148 209q96 89 207 115.5t224 26.5q93 0 176 -17t144.5 -59t96.5 -112t35 -175v-712h-105q-49 -69 -72 -114.5t-23 -76.5q0 -58 70 -59 q19 0 53.5 8t83.5 25l60 -151q-56 -30 -116 -48.5t-116 -18.5q-103 0 -166.5 62.5t-63.5 148.5q0 48 19 99t71 127v97l-6 2q-28 -33 -63 -54t-70 -34t-69.5 -18t-59.5 -5q-78 0 -143.5 19t-113 58.5t-74 101t-26.5 147.5zM370 342q0 -10 5 -26.5t20.5 -32.5t44 -28t77.5 -12 q71 0 127.5 34.5t56.5 109.5v34h-202q-41 0 -67 -7.5t-40 -19t-18 -25.5t-4 -27z" />
<glyph unicode="&#x106;" horiz-adv-x="1289" d="M97 572v353q0 117 35.5 222t107.5 185.5t180.5 128t254.5 47.5q215 0 358 -104.5t200 -276.5l-315 -112q-17 78 -79.5 130.5t-165.5 52.5q-62 0 -107 -20.5t-75.5 -55t-45.5 -78.5t-15 -90v-406q0 -49 15 -94.5t45.5 -79.5t75.5 -55.5t107 -21.5q101 0 164.5 52.5 t80.5 134.5l315 -121q-56 -176 -201.5 -276t-356.5 -100q-146 0 -254.5 43.5t-180.5 120.5t-107.5 184.5t-35.5 236.5zM390 1724l386 276l194 -230l-461 -194z" />
<glyph unicode="&#x107;" horiz-adv-x="995" d="M60 531q0 144 42 246.5t113 169t163.5 97.5t191.5 31q109 0 201.5 -36.5t174.5 -117.5l-197 -209q-50 47 -94 67.5t-85 20.5q-92 0 -141 -62.5t-49 -206.5q0 -141 43 -202.5t141 -61.5q43 0 90 20.5t99 69.5l201 -207q-88 -80 -189.5 -121.5t-212.5 -41.5 q-98 0 -187.5 31t-157 98t-107.5 170.5t-40 244.5zM394 1219l182 437l286 -93l-290 -408z" />
<glyph unicode="&#x108;" horiz-adv-x="1289" d="M97 572v353q0 117 35.5 222t107.5 185.5t180.5 128t254.5 47.5q215 0 358 -104.5t200 -276.5l-315 -112q-17 78 -79.5 130.5t-165.5 52.5q-62 0 -107 -20.5t-75.5 -55t-45.5 -78.5t-15 -90v-406q0 -49 15 -94.5t45.5 -79.5t75.5 -55.5t107 -21.5q101 0 164.5 52.5 t80.5 134.5l315 -121q-56 -176 -201.5 -276t-356.5 -100q-146 0 -254.5 43.5t-180.5 120.5t-107.5 184.5t-35.5 236.5zM238 1688l321 258h211l324 -258l-109 -127l-320 170l-323 -168z" />
<glyph unicode="&#x109;" horiz-adv-x="995" d="M60 531q0 144 42 246.5t113 169t163.5 97.5t191.5 31q109 0 201.5 -36.5t174.5 -117.5l-197 -209q-50 47 -94 67.5t-85 20.5q-92 0 -141 -62.5t-49 -206.5q0 -141 43 -202.5t141 -61.5q43 0 90 20.5t99 69.5l201 -207q-88 -80 -189.5 -121.5t-212.5 -41.5 q-98 0 -187.5 31t-157 98t-107.5 170.5t-40 244.5zM121 1225l316 334h221l318 -334l-120 -105l-310 224l-156 -112t-156 -110z" />
<glyph unicode="&#x10a;" horiz-adv-x="1289" d="M97 572v353q0 117 35.5 222t107.5 185.5t180.5 128t254.5 47.5q215 0 358 -104.5t200 -276.5l-315 -112q-17 78 -79.5 130.5t-165.5 52.5q-62 0 -107 -20.5t-75.5 -55t-45.5 -78.5t-15 -90v-406q0 -49 15 -94.5t45.5 -79.5t75.5 -55.5t107 -21.5q101 0 164.5 52.5 t80.5 134.5l315 -121q-56 -176 -201.5 -276t-356.5 -100q-146 0 -254.5 43.5t-180.5 120.5t-107.5 184.5t-35.5 236.5zM536 1611v279h318v-279h-318z" />
<glyph unicode="&#x10b;" horiz-adv-x="995" d="M60 531q0 144 42 246.5t113 169t163.5 97.5t191.5 31q109 0 201.5 -36.5t174.5 -117.5l-197 -209q-50 47 -94 67.5t-85 20.5q-92 0 -141 -62.5t-49 -206.5q0 -141 43 -202.5t141 -61.5q43 0 90 20.5t99 69.5l201 -207q-88 -80 -189.5 -121.5t-212.5 -41.5 q-98 0 -187.5 31t-157 98t-107.5 170.5t-40 244.5zM383 1223v281h318v-281h-318z" />
<glyph unicode="&#x10c;" horiz-adv-x="1289" d="M97 572v353q0 117 35.5 222t107.5 185.5t180.5 128t254.5 47.5q215 0 358 -104.5t200 -276.5l-315 -112q-17 78 -79.5 130.5t-165.5 52.5q-62 0 -107 -20.5t-75.5 -55t-45.5 -78.5t-15 -90v-406q0 -49 15 -94.5t45.5 -79.5t75.5 -55.5t107 -21.5q101 0 164.5 52.5 t80.5 134.5l315 -121q-56 -176 -201.5 -276t-356.5 -100q-146 0 -254.5 43.5t-180.5 120.5t-107.5 184.5t-35.5 236.5zM240 1826l104 125l323 -168l320 170l109 -127l-324 -258h-210z" />
<glyph unicode="&#x10d;" horiz-adv-x="995" d="M60 531q0 144 42 246.5t113 169t163.5 97.5t191.5 31q109 0 201.5 -36.5t174.5 -117.5l-197 -209q-50 47 -94 67.5t-85 20.5q-92 0 -141 -62.5t-49 -206.5q0 -141 43 -202.5t141 -61.5q43 0 90 20.5t99 69.5l201 -207q-88 -80 -189.5 -121.5t-212.5 -41.5 q-98 0 -187.5 31t-157 98t-107.5 170.5t-40 244.5zM121 1453l113 104q78 -53 156 -109.5t156 -111.5l310 223l120 -106l-318 -333h-221z" />
<glyph unicode="&#x10e;" horiz-adv-x="1412" d="M150 0v1496h597q168 0 302.5 -64t206.5 -213q41 -82 49.5 -193.5t8.5 -251.5q0 -158 -8.5 -273.5t-45.5 -203.5q-37 -84 -93.5 -141t-127.5 -91.5t-155 -49.5t-174 -15h-560zM273 1826l103 125l323 -168l321 170l109 -127l-325 -258h-211zM482 297h217q84 0 138.5 22.5 t87 64.5t46.5 101t14 132v273q0 155 -68 231.5t-225 76.5h-210v-901z" />
<glyph unicode="&#x10f;" horiz-adv-x="1513" d="M105 554q0 80 17.5 171.5t61.5 170t120 130t197 51.5q62 0 122.5 -24.5t103.5 -73.5l4 2v580h307v-1561h-307v84l-4 4q-48 -49 -112.5 -73.5t-122.5 -24.5q-137 0 -214.5 55.5t-116 140.5t-47.5 183.5t-9 184.5zM419 505q0 -39 5.5 -80.5t21.5 -75t47.5 -55t82.5 -21.5 q54 0 85 25.5t46 65.5t19.5 85.5t4.5 83.5q0 41 -4.5 86.5t-19.5 84t-45 63.5t-83 25q-58 0 -90.5 -28.5t-47.5 -71.5t-18.5 -93.5t-3.5 -93.5zM1166 1009l75 232h-71v325h332v-308l-193 -249h-143z" />
<glyph unicode="&#x110;" horiz-adv-x="1412" d="M13 645v231h137v620h597q168 0 302.5 -64t206.5 -213q41 -82 49.5 -193.5t8.5 -251.5q0 -158 -8.5 -273.5t-45.5 -203.5q-37 -84 -93.5 -141t-127.5 -91.5t-155 -49.5t-174 -15h-560v645h-137zM482 297h217q84 0 138.5 22.5t87 64.5t46.5 101t14 132v273q0 155 -68 231.5 t-225 76.5h-210v-322h234v-231h-234v-348z" />
<glyph unicode="&#x111;" horiz-adv-x="1145" d="M105 554q0 80 17.5 171.5t61.5 170t120 130t197 51.5q62 0 122.5 -24.5t103.5 -73.5l4 2v189h-245v187h245v204h307v-204h109v-187h-109v-1170h-307v84l-4 4q-48 -49 -112.5 -73.5t-122.5 -24.5q-137 0 -214.5 55.5t-116 140.5t-47.5 183.5t-9 184.5zM419 505 q0 -39 5.5 -80.5t21.5 -75t47.5 -55t82.5 -21.5q54 0 85 25.5t46 65.5t19.5 85.5t4.5 83.5q0 41 -4.5 86.5t-19.5 84t-45 63.5t-83 25q-58 0 -90.5 -28.5t-47.5 -71.5t-18.5 -93.5t-3.5 -93.5z" />
<glyph unicode="&#x112;" horiz-adv-x="1257" d="M150 0v1496h1059v-296h-727v-303h619v-286h-619v-314h727v-297h-1059zM308 1630v254h716v-254h-716z" />
<glyph unicode="&#x113;" horiz-adv-x="1145" d="M76 529q0 150 42 254.5t110.5 169t155.5 93.5t178 29q127 0 219 -41t152 -113t89 -173t29 -221v-75h-657q10 -103 55.5 -145t122.5 -42q41 0 108 19t133 79l189 -211q-103 -94 -219 -129.5t-219 -35.5q-88 0 -175.5 25t-157 86.5t-112.5 165.5t-43 265zM219 1243v253h717 v-253h-717zM404 649h316q-8 73 -53 113t-103 40t-103.5 -41t-56.5 -112z" />
<glyph unicode="&#x114;" horiz-adv-x="1257" d="M150 0v1496h1059v-296h-727v-303h619v-286h-619v-314h727v-297h-1059zM349 1918h215q0 -21 7.5 -46t22.5 -47.5t37.5 -37.5t52.5 -15t52.5 15t38 37.5t22.5 47t7 46.5h216q-7 -49 -25.5 -109.5t-56 -113t-100 -88t-154.5 -35.5q-93 0 -155.5 35.5t-99.5 88t-55.5 113 t-24.5 109.5z" />
<glyph unicode="&#x115;" horiz-adv-x="1145" d="M76 529q0 150 42 254.5t110.5 169t155.5 93.5t178 29q127 0 219 -41t152 -113t89 -173t29 -221v-75h-657q10 -103 55.5 -145t122.5 -42q41 0 108 19t133 79l189 -211q-103 -94 -219 -129.5t-219 -35.5q-88 0 -175.5 25t-157 86.5t-112.5 165.5t-43 265zM236 1553h216 q0 -21 7 -46t22.5 -48t38 -38t52.5 -15q31 0 53 15t37 38t22.5 47.5t7.5 46.5h215q-6 -49 -24.5 -109.5t-55.5 -113t-99.5 -88.5t-155.5 -36q-92 0 -154.5 36t-100.5 88.5t-56 113t-25 109.5zM404 649h316q-8 73 -53 113t-103 40t-103.5 -41t-56.5 -112z" />
<glyph unicode="&#x116;" horiz-adv-x="1257" d="M150 0v1496h1059v-296h-727v-303h619v-286h-619v-314h727v-297h-1059zM525 1611v279h318v-279h-318z" />
<glyph unicode="&#x117;" horiz-adv-x="1145" d="M76 529q0 150 42 254.5t110.5 169t155.5 93.5t178 29q127 0 219 -41t152 -113t89 -173t29 -221v-75h-657q10 -103 55.5 -145t122.5 -42q41 0 108 19t133 79l189 -211q-103 -94 -219 -129.5t-219 -35.5q-88 0 -175.5 25t-157 86.5t-112.5 165.5t-43 265zM404 649h316 q-8 73 -53 113t-103 40t-103.5 -41t-56.5 -112zM423 1223v281h319v-281h-319z" />
<glyph unicode="&#x118;" horiz-adv-x="1257" d="M150 0v1496h1059v-296h-727v-303h619v-286h-619v-314h727v-297q-50 -69 -72.5 -114.5t-22.5 -76.5q0 -58 68 -59q19 0 53.5 8t84.5 25l61 -151q-56 -30 -116.5 -48.5t-115.5 -18.5q-103 0 -167 62.5t-64 148.5q0 46 19.5 98t68.5 126h-856z" />
<glyph unicode="&#x119;" horiz-adv-x="1145" d="M76 529q0 150 42 254.5t110.5 169t155.5 93.5t178 29q127 0 219 -41t152 -113t89 -173t29 -221v-75h-657q10 -103 55.5 -145t122.5 -42q41 0 108 19t133 79l189 -211q-29 -24 -55 -44t-57 -37q-49 -66 -70.5 -111.5t-21.5 -78.5q0 -57 68 -57q19 0 53.5 7t84.5 25 l61 -151q-56 -31 -116.5 -48.5t-115.5 -17.5q-103 0 -167 62.5t-64 148.5q0 32 9 65.5t29 76.5q-18 -2 -38.5 -3.5t-37.5 -1.5q-88 0 -175.5 25t-157 86.5t-112.5 165.5t-43 265zM404 649h316q-8 73 -53 113t-103 40t-103.5 -41t-56.5 -112z" />
<glyph unicode="&#x11a;" horiz-adv-x="1257" d="M150 0v1496h1059v-296h-727v-303h619v-286h-619v-314h727v-297h-1059zM248 1826l103 125l322 -168l320 170l111 -127l-326 -258h-210z" />
<glyph unicode="&#x11b;" horiz-adv-x="1145" d="M76 529q0 150 42 254.5t110.5 169t155.5 93.5t178 29q127 0 219 -41t152 -113t89 -173t29 -221v-75h-657q10 -103 55.5 -145t122.5 -42q41 0 108 19t133 79l189 -211q-103 -94 -219 -129.5t-219 -35.5q-88 0 -175.5 25t-157 86.5t-112.5 165.5t-43 265zM146 1453l114 104 q78 -53 156.5 -109.5t155.5 -111.5l310 223l120 -106l-318 -333h-222zM404 649h316q-8 73 -53 113t-103 40t-103.5 -41t-56.5 -112z" />
<glyph unicode="&#x11c;" horiz-adv-x="1369" d="M105 572v353q0 117 35.5 222t107.5 185.5t181 128t255 47.5q215 0 357.5 -104.5t199.5 -276.5l-314 -112q-17 78 -79.5 130.5t-166.5 52.5q-61 0 -106.5 -20.5t-76 -55t-45 -78.5t-14.5 -90v-406q0 -49 14.5 -94.5t45 -80.5t77 -56.5t108.5 -21.5q53 0 100 20t82 54.5 t55.5 80t20.5 96.5v10h-306v277h632v-300q0 -118 -46 -218t-125.5 -173t-186 -114t-226.5 -41q-146 0 -255 43.5t-181 120.5t-107.5 184.5t-35.5 236.5zM238 1688l321 258h211l324 -258l-109 -127l-320 170l-323 -168z" />
<glyph unicode="&#x11d;" horiz-adv-x="1145" d="M86 507q0 86 11.5 185.5t53.5 184t121 140.5t214 56q60 0 116 -17.5t106 -68.5l4 2v76h308v-1037q0 -127 -42 -217t-111 -147.5t-159.5 -83t-186.5 -25.5q-97 0 -198 27.5t-198 109.5l150 214q64 -44 132.5 -60t111.5 -16q79 0 137 44t58 128v84l-4 2q-19 -24 -46.5 -42 t-57.5 -31t-61.5 -20.5t-56.5 -7.5q-133 0 -213 50.5t-122 128t-54.5 169t-12.5 172.5zM142 1225l316 334h221l319 -334l-120 -105l-310 224q-78 -56 -156.5 -112t-155.5 -110zM400 529q0 -43 4 -88t20.5 -83t47.5 -62.5t87 -24.5q53 0 83.5 24.5t46 63.5t19.5 84t4 86 q0 39 -3 84t-18.5 84.5t-46.5 66t-85 26.5q-56 0 -88 -25t-48.5 -63.5t-19.5 -85t-3 -87.5z" />
<glyph unicode="&#x11e;" horiz-adv-x="1369" d="M105 572v353q0 117 35.5 222t107.5 185.5t181 128t255 47.5q215 0 357.5 -104.5t199.5 -276.5l-314 -112q-17 78 -79.5 130.5t-166.5 52.5q-61 0 -106.5 -20.5t-76 -55t-45 -78.5t-14.5 -90v-406q0 -49 14.5 -94.5t45 -80.5t77 -56.5t108.5 -21.5q53 0 100 20t82 54.5 t55.5 80t20.5 96.5v10h-306v277h632v-300q0 -118 -46 -218t-125.5 -173t-186 -114t-226.5 -41q-146 0 -255 43.5t-181 120.5t-107.5 184.5t-35.5 236.5zM344 1918h215q0 -21 7.5 -46t22.5 -47.5t37.5 -37.5t52.5 -15q31 0 53.5 15t37.5 37.5t22.5 47t7.5 46.5h215 q-6 -49 -24.5 -109.5t-56 -113t-100 -88t-155.5 -35.5q-92 0 -154.5 35.5t-100 88t-55.5 113t-25 109.5z" />
<glyph unicode="&#x11f;" horiz-adv-x="1145" d="M86 507q0 86 11.5 185.5t53.5 184t121 140.5t214 56q60 0 116 -17.5t106 -68.5l4 2v76h308v-1037q0 -127 -42 -217t-111 -147.5t-159.5 -83t-186.5 -25.5q-97 0 -198 27.5t-198 109.5l150 214q64 -44 132.5 -60t111.5 -16q79 0 137 44t58 128v84l-4 2q-19 -24 -46.5 -42 t-57.5 -31t-61.5 -20.5t-56.5 -7.5q-133 0 -213 50.5t-122 128t-54.5 169t-12.5 172.5zM236 1553h216q0 -21 7 -46t22.5 -48t38 -38t52.5 -15q31 0 53 15t37 38t22.5 47.5t7.5 46.5h215q-6 -49 -24.5 -109.5t-55.5 -113t-99.5 -88.5t-155.5 -36q-92 0 -154.5 36t-100.5 88.5 t-56 113t-25 109.5zM400 529q0 -43 4 -88t20.5 -83t47.5 -62.5t87 -24.5q53 0 83.5 24.5t46 63.5t19.5 84t4 86q0 39 -3 84t-18.5 84.5t-46.5 66t-85 26.5q-56 0 -88 -25t-48.5 -63.5t-19.5 -85t-3 -87.5z" />
<glyph unicode="&#x120;" horiz-adv-x="1369" d="M105 572v353q0 117 35.5 222t107.5 185.5t181 128t255 47.5q215 0 357.5 -104.5t199.5 -276.5l-314 -112q-17 78 -79.5 130.5t-166.5 52.5q-61 0 -106.5 -20.5t-76 -55t-45 -78.5t-14.5 -90v-406q0 -49 14.5 -94.5t45 -80.5t77 -56.5t108.5 -21.5q53 0 100 20t82 54.5 t55.5 80t20.5 96.5v10h-306v277h632v-300q0 -118 -46 -218t-125.5 -173t-186 -114t-226.5 -41q-146 0 -255 43.5t-181 120.5t-107.5 184.5t-35.5 236.5zM521 1611v279h318v-279h-318z" />
<glyph unicode="&#x121;" horiz-adv-x="1145" d="M86 507q0 86 11.5 185.5t53.5 184t121 140.5t214 56q60 0 116 -17.5t106 -68.5l4 2v76h308v-1037q0 -127 -42 -217t-111 -147.5t-159.5 -83t-186.5 -25.5q-97 0 -198 27.5t-198 109.5l150 214q64 -44 132.5 -60t111.5 -16q79 0 137 44t58 128v84l-4 2q-19 -24 -46.5 -42 t-57.5 -31t-61.5 -20.5t-56.5 -7.5q-133 0 -213 50.5t-122 128t-54.5 169t-12.5 172.5zM400 529q0 -43 4 -88t20.5 -83t47.5 -62.5t87 -24.5q53 0 83.5 24.5t46 63.5t19.5 84t4 86q0 39 -3 84t-18.5 84.5t-46.5 66t-85 26.5q-56 0 -88 -25t-48.5 -63.5t-19.5 -85t-3 -87.5z M458 1223v281h318v-281h-318z" />
<glyph unicode="&#x122;" horiz-adv-x="1369" d="M105 572v353q0 117 35.5 222t107.5 185.5t181 128t255 47.5q215 0 357.5 -104.5t199.5 -276.5l-314 -112q-17 78 -79.5 130.5t-166.5 52.5q-61 0 -106.5 -20.5t-76 -55t-45 -78.5t-14.5 -90v-406q0 -49 14.5 -94.5t45 -80.5t77 -56.5t108.5 -21.5q53 0 100 20t82 54.5 t55.5 80t20.5 96.5v10h-306v277h632v-300q0 -118 -46 -218t-125.5 -173t-186 -114t-226.5 -41q-146 0 -255 43.5t-181 120.5t-107.5 184.5t-35.5 236.5zM476 -673l74 232h-70v324h331v-306l-191 -250h-144z" />
<glyph unicode="&#x123;" horiz-adv-x="1145" d="M86 507q0 86 11.5 185.5t53.5 184t121 140.5t214 56q60 0 116 -17.5t106 -68.5l4 2v76h308v-1037q0 -127 -42 -217t-111 -147.5t-159.5 -83t-186.5 -25.5q-97 0 -198 27.5t-198 109.5l150 214q64 -44 132.5 -60t111.5 -16q79 0 137 44t58 128v84l-4 2q-19 -24 -46.5 -42 t-57.5 -31t-61.5 -20.5t-56.5 -7.5q-133 0 -213 50.5t-122 128t-54.5 169t-12.5 172.5zM400 529q0 -43 4 -88t20.5 -83t47.5 -62.5t87 -24.5q53 0 83.5 24.5t46 63.5t19.5 84t4 86q0 39 -3 84t-18.5 84.5t-46.5 66t-85 26.5q-56 0 -88 -25t-48.5 -63.5t-19.5 -85t-3 -87.5z M437 1286v308l191 249h144l-75 -232h71v-325h-331z" />
<glyph unicode="&#x124;" horiz-adv-x="1449" d="M150 0v1496h332v-599h490v599h327v-1496h-327v611h-490v-611h-332zM316 1688l320 258h211l325 -258l-109 -127l-321 170l-323 -168z" />
<glyph unicode="&#x125;" horiz-adv-x="1184" d="M-150 1688l320 258h210l326 -258l-111 -127l-320 170l-322 -168zM129 0v1561h308v-572l8 -2q21 19 51.5 35t63.5 28.5t68 18.5t64 6q76 0 141.5 -24.5t115 -73t77.5 -120.5t28 -165v-692h-305v628q0 82 -43 123t-109 41q-69 0 -114.5 -41t-45.5 -123v-628h-308z" />
<glyph unicode="&#x126;" horiz-adv-x="1449" d="M45 1079v201h105v216h332v-216h490v216h327v-216h107v-201h-107v-1079h-327v611h-490v-611h-332v1079h-105zM482 897h490v182h-490v-182z" />
<glyph unicode="&#x127;" horiz-adv-x="1248" d="M33 1182v201h160v178h308v-178h391v-201h-391v-225l8 -3q43 37 119 63t150 26q150 0 245 -97t95 -286v-660h-305v595q0 82 -43 123t-107 41q-76 0 -119 -50.5t-43 -132.5v-576h-308v1182h-160z" />
<glyph unicode="&#x128;" horiz-adv-x="632" d="M-127 1654q56 116 122 178t163 62q40 0 80.5 -16.5t77.5 -36t69 -36t58 -16.5q37 0 69 23.5t75 79.5l146 -86q-56 -125 -120.5 -179.5t-138.5 -54.5q-44 0 -86 16t-79.5 34.5t-71.5 34.5t-65 16q-37 0 -74.5 -22.5t-84.5 -84.5zM158 0v1496h330v-1496h-330z" />
<glyph unicode="&#x129;" horiz-adv-x="786" d="M-28 1288q55 117 121.5 179t162.5 62q41 0 81.5 -17.5t77.5 -37t69.5 -35t57.5 -15.5q37 0 69 23.5t75 79.5l147 -86q-56 -125 -121 -180t-140 -55q-43 0 -85 16.5t-79.5 34.5t-72 34t-64.5 16q-37 0 -74 -22.5t-86 -84.5zM258 0v1065h308v-1065h-308z" />
<glyph unicode="&#x12a;" horiz-adv-x="657" d="M-19 1630v254h716v-254h-716zM183 0v1496h330v-1496h-330z" />
<glyph unicode="&#x12b;" horiz-adv-x="669" d="M-21 1243v253h716v-253h-716zM191 0v1065h308v-1065h-308z" />
<glyph unicode="&#x12c;" horiz-adv-x="632" d="M-17 1918h214q0 -21 8 -46t23 -47.5t37.5 -37.5t52.5 -15q31 0 53.5 15t37 37.5t22.5 47t8 46.5h215q-6 -49 -24.5 -109.5t-56 -113t-100 -88t-155.5 -35.5q-92 0 -154.5 35.5t-100 88t-55.5 113t-25 109.5zM158 0v1496h330v-1496h-330z" />
<glyph unicode="&#x12d;" horiz-adv-x="577" d="M-43 1566h215q0 -21 7.5 -46.5t22.5 -48t37.5 -37t53.5 -14.5q30 0 52.5 14.5t37.5 37t22.5 47.5t7.5 47h215q-6 -50 -24.5 -110.5t-56.5 -113t-100 -88t-154 -35.5t-154.5 35.5t-100.5 88t-56.5 113t-24.5 110.5zM135 0v1065h308v-1065h-308z" />
<glyph unicode="&#x12e;" horiz-adv-x="632" d="M129 -224q0 46 19.5 98t68.5 126h-59v1496h330v-1496h-69q-49 -69 -72 -114.5t-23 -76.5q0 -58 70 -59q19 0 53.5 8t83.5 25l60 -151q-55 -30 -115.5 -48.5t-116.5 -18.5q-103 0 -166.5 62.5t-63.5 148.5z" />
<glyph unicode="&#x12f;" horiz-adv-x="577" d="M99 -222q0 46 18 97t68 125h-50v1065h308v-1065h-56q-49 -66 -70.5 -112t-21.5 -77q0 -58 68 -59q19 0 54 8t84 25l61 -150q-56 -31 -116.5 -49.5t-116.5 -18.5q-103 0 -166.5 62.5t-63.5 148.5zM135 1227v269h308v-269h-308z" />
<glyph unicode="&#x130;" horiz-adv-x="632" d="M158 0v1496h330v-1496h-330zM160 1611v279h318v-279h-318z" />
<glyph unicode="&#x131;" horiz-adv-x="577" d="M135 0v1065h308v-1065h-308z" />
<glyph unicode="&#x132;" horiz-adv-x="1699" d="M158 0v1496h330v-1496h-330zM609 189l222 217q55 -62 111 -89t101 -27q28 0 62 8t64.5 30.5t50 63.5t19.5 107v997h327v-1012q0 -142 -42 -238t-111 -152.5t-160.5 -80t-189.5 -23.5q-67 0 -130 8t-120.5 30.5t-109 61.5t-94.5 99z" />
<glyph unicode="&#x133;" horiz-adv-x="1143" d="M135 0v1065h308v-1065h-308zM135 1227v269h308v-269h-308zM511 -164h57q39 0 62.5 10t36 26.5t16 35t3.5 41.5v1118h307v-1178q0 -144 -87 -231.5t-266 -87.5h-129v266zM686 1227v269h307v-269h-307z" />
<glyph unicode="&#x134;" horiz-adv-x="1098" d="M6 191l222 217q56 -62 112 -88.5t101 -26.5q28 0 62.5 7.5t64 30t49 63.5t19.5 107v997h328v-1012q0 -142 -42 -238t-111 -152.5t-160.5 -80t-190.5 -23.5q-66 0 -128.5 8t-121 31t-110 61.5t-94.5 98.5zM374 1693l321 258h210l325 -258l-110 -127l-320 170l-322 -168z " />
<glyph unicode="&#x135;" horiz-adv-x="765" d="M-41 1225l316 334h222l318 -334l-120 -105l-310 224q-77 -56 -156 -112t-155 -110zM69 -164h71q32 0 52.5 15.5t31 36t15 43t4.5 36.5v1100h307v-1178q0 -72 -26.5 -131t-74 -101t-112 -64.5t-140.5 -22.5h-128v266z" />
<glyph unicode="&#x136;" horiz-adv-x="1412" d="M150 0v1496h332v-640l4 -4l228 277l312 367h400l-525 -606l554 -890h-390l-388 636l-195 -219v-417h-332zM568 -630l75 232h-71v324h331v-306l-191 -250h-144z" />
<glyph unicode="&#x137;" horiz-adv-x="1145" d="M129 0v1561h308v-860l4 -2l140 167l184 199h384l-407 -431l436 -634h-351l-285 421l-105 -113v-308h-308zM441 -673l76 232h-72v324h331v-306l-191 -250h-144z" />
<glyph unicode="&#x138;" horiz-adv-x="1145" d="M129 0v1065h308v-364l4 -2l140 159l187 207h381l-407 -431l436 -634h-351l-285 421l-105 -113v-308h-308z" />
<glyph unicode="&#x139;" horiz-adv-x="1257" d="M150 0v1496h332v-1199h727v-297h-1059zM187 1724l387 276l194 -230l-460 -194z" />
<glyph unicode="&#x13a;" horiz-adv-x="614" d="M129 316v1245h308v-1187q0 -72 26.5 -89.5t69.5 -17.5h35v-267h-110q-64 0 -124.5 14t-105.5 49.5t-72 97t-27 155.5zM129 1746l388 275l193 -230l-460 -193z" />
<glyph unicode="&#x13b;" horiz-adv-x="1257" d="M150 0v1496h332v-1199h727v-297h-1059zM548 -673l76 232h-72v324h332v-306l-192 -250h-144z" />
<glyph unicode="&#x13c;" horiz-adv-x="614" d="M129 316v1245h308v-1187q0 -72 26.5 -89.5t69.5 -17.5h35v-267h-110q-64 0 -124.5 14t-105.5 49.5t-72 97t-27 155.5zM178 -663l76 233h-71v325h330v-308l-191 -250h-144z" />
<glyph unicode="&#x13d;" horiz-adv-x="1257" d="M150 0v1496h332v-1199h727v-297h-1059zM671 940l76 232h-72v324h331v-306l-191 -250h-144z" />
<glyph unicode="&#x13e;" horiz-adv-x="952" d="M129 316v1245h308v-1187q0 -72 26.5 -89.5t69.5 -17.5h35v-267h-110q-64 0 -124.5 14t-105.5 49.5t-72 97t-27 155.5zM613 1004l75 233h-71v324h331v-307l-191 -250h-144z" />
<glyph unicode="&#x13f;" horiz-adv-x="1257" d="M150 0v1496h332v-1199h727v-297h-1059zM718 652v279h318v-279h-318z" />
<glyph unicode="&#x140;" horiz-adv-x="913" d="M129 316v1245h308v-1187q0 -72 26.5 -89.5t69.5 -17.5h35v-267h-110q-64 0 -124.5 14t-105.5 49.5t-72 97t-27 155.5zM600 667v279h318v-279h-318z" />
<glyph unicode="&#x141;" horiz-adv-x="1328" d="M0 570l222 129v797h330v-606l188 110l107 -187l-295 -173v-343h728v-297h-1058v449l-115 -66z" />
<glyph unicode="&#x142;" horiz-adv-x="773" d="M0 671l232 133v757h308v-578l127 73l107 -188l-234 -135v-359q0 -72 26.5 -89.5t69.5 -17.5h35v-267h-109q-64 0 -125 14t-106 49.5t-72 97t-27 155.5v238l-123 -70z" />
<glyph unicode="&#x143;" horiz-adv-x="1526" d="M150 0v1496h295l314 -458l288 -449l4 2v905h332v-1496h-295l-380 550l-222 357l-4 -2v-905h-332zM497 1724l387 276l193 -230l-460 -194z" />
<glyph unicode="&#x144;" horiz-adv-x="1184" d="M129 0v1065h308v-89h4q49 46 123 72.5t135 26.5q175 0 265 -96.5t90 -286.5v-692h-305v628q0 82 -43 123t-109 41q-69 0 -114.5 -41t-45.5 -123v-628h-308zM394 1219l182 437l286 -93l-290 -408z" />
<glyph unicode="&#x145;" horiz-adv-x="1526" d="M150 0v1496h295l314 -458l288 -449l4 2v905h332v-1496h-295l-380 550l-222 357l-4 -2v-905h-332zM604 -630l75 232h-70v324h331v-306l-191 -250h-145z" />
<glyph unicode="&#x146;" horiz-adv-x="1184" d="M129 0v1065h308v-89h4q49 46 123 72.5t135 26.5q175 0 265 -96.5t90 -286.5v-692h-305v628q0 82 -43 123t-109 41q-69 0 -114.5 -41t-45.5 -123v-628h-308zM426 -673l75 232h-71v324h331v-306l-191 -250h-144z" />
<glyph unicode="&#x147;" horiz-adv-x="1526" d="M150 0v1496h295l314 -458l288 -449l4 2v905h332v-1496h-295l-380 550l-222 357l-4 -2v-905h-332zM331 1826l104 125l322 -168l320 170l109 -127l-324 -258h-210z" />
<glyph unicode="&#x148;" horiz-adv-x="1184" d="M129 0v1065h308v-89h4q49 46 123 72.5t135 26.5q175 0 265 -96.5t90 -286.5v-692h-305v628q0 82 -43 123t-109 41q-69 0 -114.5 -41t-45.5 -123v-628h-308zM140 1453l114 104q78 -53 156 -109.5t156 -111.5l310 223l119 -106l-318 -333h-221z" />
<glyph unicode="&#x149;" horiz-adv-x="1463" d="M-2 890l76 232h-72v325h331v-308l-191 -249h-144zM408 0v1065h308v-89h4q50 46 124 72.5t135 26.5q174 0 264.5 -96.5t90.5 -286.5v-692h-306v628q0 82 -43 123t-107 41q-70 0 -116 -41t-46 -123v-628h-308z" />
<glyph unicode="&#x14a;" horiz-adv-x="1526" d="M150 0v1496h295l314 -458l288 -449l4 2v905h332v-1638q0 -116 -75 -191t-218 -75q-56 0 -114 12.5t-116 42.5l67 207q24 -6 42 -9t35 -3q39 0 56 19.5t17 64.5v89l-369 535l-222 357l-4 -2v-905h-332z" />
<glyph unicode="&#x14b;" horiz-adv-x="1184" d="M129 0v1065h308v-89h4q49 46 112.5 72.5t123.5 26.5q175 0 276 -96.5t101 -286.5v-834q0 -116 -75.5 -191t-217.5 -75q-55 0 -113.5 12.5t-116.5 42.5l66 207q25 -6 43 -9t35 -3q39 0 56.5 19.5t17.5 64.5v702q0 82 -45.5 123t-110.5 41q-69 0 -112.5 -41t-43.5 -123 v-628h-308z" />
<glyph unicode="&#x14c;" horiz-adv-x="1340" d="M88 572v353q0 117 36 222t107.5 185.5t180.5 128t255 47.5q135 0 244 -44t185 -122t117 -185.5t41 -231.5v-353q0 -133 -42 -241.5t-118.5 -185t-185 -117.5t-241.5 -41q-146 0 -255 47.5t-180.5 128t-107.5 187t-36 222.5zM314 1630v254h716v-254h-716zM421 548 q0 -49 15.5 -94.5t45 -79.5t75 -55.5t108.5 -21.5q120 0 185.5 72t65.5 179v406q0 99 -65.5 171.5t-185.5 72.5q-62 0 -108 -20.5t-75.5 -55t-45 -78.5t-15.5 -90v-406z" />
<glyph unicode="&#x14d;" horiz-adv-x="1108" d="M71 533q3 82 15.5 161.5t40.5 138.5q56 120 174.5 182t268.5 62q123 0 224 -45t160 -133q46 -66 66.5 -161t17.5 -211q0 -105 -21.5 -188t-59.5 -148q-67 -107 -177.5 -156.5t-237.5 -49.5q-125 0 -222.5 40.5t-157.5 128.5q-50 72 -71.5 167.5t-19.5 211.5zM205 1243 v253h716v-253h-716zM385 529q0 -55 6.5 -99.5t23.5 -76.5q19 -41 53.5 -64.5t81.5 -23.5q56 0 96 29.5t58 85.5q6 24 12 62t6 91q2 60 -6 106.5t-19 70.5q-19 47 -57 69.5t-81 22.5q-46 0 -83 -24.5t-59 -67.5q-17 -35 -23.5 -80t-8.5 -101z" />
<glyph unicode="&#x14e;" horiz-adv-x="1340" d="M88 572v353q0 117 36 222t107.5 185.5t180.5 128t255 47.5q135 0 244 -44t185 -122t117 -185.5t41 -231.5v-353q0 -133 -42 -241.5t-118.5 -185t-185 -117.5t-241.5 -41q-146 0 -255 47.5t-180.5 128t-107.5 187t-36 222.5zM329 1918h215q0 -21 7.5 -46t22.5 -47.5 t37.5 -37.5t53.5 -15q30 0 52.5 15t37.5 37.5t22.5 47t7.5 46.5h215q-7 -49 -25 -109.5t-55.5 -113t-100 -88t-154.5 -35.5q-93 0 -155.5 35.5t-100 88t-56 113t-24.5 109.5zM421 548q0 -49 15.5 -94.5t45 -79.5t75 -55.5t108.5 -21.5q120 0 185.5 72t65.5 179v406 q0 99 -65.5 171.5t-185.5 72.5q-62 0 -108 -20.5t-75.5 -55t-45 -78.5t-15.5 -90v-406z" />
<glyph unicode="&#x14f;" horiz-adv-x="1108" d="M71 533q3 82 15.5 161.5t40.5 138.5q56 120 174.5 182t268.5 62q123 0 224 -45t160 -133q46 -66 66.5 -161t17.5 -211q0 -105 -21.5 -188t-59.5 -148q-67 -107 -177.5 -156.5t-237.5 -49.5q-125 0 -222.5 40.5t-157.5 128.5q-50 72 -71.5 167.5t-19.5 211.5zM224 1553 h215q0 -21 7.5 -46t22.5 -48t37.5 -38t52.5 -15t52.5 15t38 38t22.5 47.5t7 46.5h216q-7 -49 -25 -109.5t-56 -113t-100.5 -88.5t-154.5 -36q-93 0 -155 36t-99.5 88.5t-56 113t-24.5 109.5zM385 529q0 -55 6.5 -99.5t23.5 -76.5q19 -41 53.5 -64.5t81.5 -23.5q56 0 96 29.5 t58 85.5q6 24 12 62t6 91q2 60 -6 106.5t-19 70.5q-19 47 -57 69.5t-81 22.5q-46 0 -83 -24.5t-59 -67.5q-17 -35 -23.5 -80t-8.5 -101z" />
<glyph unicode="&#x150;" horiz-adv-x="1340" d="M88 572v353q0 117 36 222t107.5 185.5t180.5 128t255 47.5q135 0 244 -44t185 -122t117 -185.5t41 -231.5v-353q0 -133 -42 -241.5t-118.5 -185t-185 -117.5t-241.5 -41q-146 0 -255 47.5t-180.5 128t-107.5 187t-36 222.5zM230 1686l346 325l224 -203l-430 -253z M421 548q0 -49 15.5 -94.5t45 -79.5t75 -55.5t108.5 -21.5q120 0 185.5 72t65.5 179v406q0 99 -65.5 171.5t-185.5 72.5q-62 0 -108 -20.5t-75.5 -55t-45 -78.5t-15.5 -90v-406zM704 1686l345 325l224 -203l-430 -253z" />
<glyph unicode="&#x151;" horiz-adv-x="1108" d="M71 533q3 82 15.5 161.5t40.5 138.5q56 120 174.5 182t268.5 62q123 0 224 -45t160 -133q46 -66 66.5 -161t17.5 -211q0 -105 -21.5 -188t-59.5 -148q-67 -107 -177.5 -156.5t-237.5 -49.5q-125 0 -222.5 40.5t-157.5 128.5q-50 72 -71.5 167.5t-19.5 211.5zM248 1219 l182 437l286 -93l-290 -408zM385 529q0 -55 6.5 -99.5t23.5 -76.5q19 -41 53.5 -64.5t81.5 -23.5q56 0 96 29.5t58 85.5q6 24 12 62t6 91q2 60 -6 106.5t-19 70.5q-19 47 -57 69.5t-81 22.5q-46 0 -83 -24.5t-59 -67.5q-17 -35 -23.5 -80t-8.5 -101zM649 1219l184 437 l285 -93l-291 -408z" />
<glyph unicode="&#x152;" horiz-adv-x="1896" d="M88 572v353q0 117 36 222t107.5 185.5t180.5 128t255 47.5q32 0 62 -3t61 -9h1057v-296h-727v-303h620v-286h-620v-314h727v-297h-1039q-69 -13 -141 -13q-146 0 -255 47.5t-180.5 128t-107.5 187t-36 222.5zM421 548q0 -49 15.5 -94.5t45 -79.5t75.5 -55.5t108 -21.5 q69 0 125 27v846q-29 12 -59 20t-66 8q-62 0 -108 -20.5t-75.5 -55t-45 -78.5t-15.5 -90v-406z" />
<glyph unicode="&#x153;" horiz-adv-x="1808" d="M76 533q2 82 14.5 159.5t40.5 134.5q56 121 174 185.5t269 64.5q97 0 186 -35.5t141 -116.5q56 88 145 119t177 31q127 0 219.5 -41t153 -113t89.5 -173t29 -221v-75h-658q11 -103 56 -145t123 -42q41 0 107 19t133 79l189 -211q-103 -94 -219 -129.5t-220 -35.5 q-90 0 -183.5 36.5t-155.5 124.5q-55 -82 -149 -122.5t-191 -40.5q-125 0 -222.5 43t-157.5 132q-95 137 -90 373zM385 529q0 -55 6.5 -99.5t23.5 -76.5q19 -41 53.5 -64.5t85.5 -23.5q56 0 98.5 29.5t59.5 85.5q6 24 12.5 62t6.5 91q2 60 -6.5 106.5t-18.5 70.5 q-19 47 -59 69.5t-83 22.5q-50 0 -87.5 -24.5t-59.5 -67.5q-17 -35 -23.5 -80t-8.5 -101zM1067 649h316q-9 73 -54 113t-104 40q-57 0 -102.5 -41t-55.5 -112z" />
<glyph unicode="&#x154;" horiz-adv-x="1401" d="M150 0v1496h663q98 0 185.5 -30t154 -86.5t105.5 -140.5t39 -192q0 -136 -70 -244t-205 -167l285 -636h-374l-236 579h-215v-579h-332zM390 1724l386 276l194 -230l-461 -194zM482 876h273q90 0 143.5 42.5t53.5 126.5t-51.5 120.5t-135.5 36.5h-283v-326z" />
<glyph unicode="&#x155;" horiz-adv-x="883" d="M129 -2v1067h301v-121l7 -2q41 58 103 95.5t133 37.5q66 0 118 -14t108 -52l-107 -269q-56 35 -106 45.5t-93 10.5q-69 0 -112.5 -41t-43.5 -123v-634h-308zM279 1219l183 437l287 -93l-291 -408z" />
<glyph unicode="&#x156;" horiz-adv-x="1401" d="M150 0v1496h663q98 0 185.5 -30t154 -86.5t105.5 -140.5t39 -192q0 -136 -70 -244t-205 -167l285 -636h-374l-236 579h-215v-579h-332zM482 876h273q90 0 143.5 42.5t53.5 126.5t-51.5 120.5t-135.5 36.5h-283v-326zM540 -630l75 232h-71v324h332v-306l-192 -250h-144z " />
<glyph unicode="&#x157;" horiz-adv-x="883" d="M107 -673l76 232h-72v324h332v-306l-191 -250h-145zM129 -2v1067h301v-121l7 -2q41 58 103 95.5t133 37.5q66 0 118 -14t108 -52l-107 -269q-56 35 -106 45.5t-93 10.5q-69 0 -112.5 -41t-43.5 -123v-634h-308z" />
<glyph unicode="&#x158;" horiz-adv-x="1401" d="M150 0v1496h663q98 0 185.5 -30t154 -86.5t105.5 -140.5t39 -192q0 -136 -70 -244t-205 -167l285 -636h-374l-236 579h-215v-579h-332zM176 1826l103 125l323 -168l321 170l109 -127l-324 -258h-211zM482 876h273q90 0 143.5 42.5t53.5 126.5t-51.5 120.5t-135.5 36.5 h-283v-326z" />
<glyph unicode="&#x159;" horiz-adv-x="883" d="M10 1453l115 104q78 -53 156 -109.5t156 -111.5l310 223l119 -106l-318 -333h-221zM129 -2v1067h301v-121l7 -2q41 58 103 95.5t133 37.5q66 0 118 -14t108 -52l-107 -269q-56 35 -106 45.5t-93 10.5q-69 0 -112.5 -41t-43.5 -123v-634h-308z" />
<glyph unicode="&#x15a;" horiz-adv-x="1276" d="M17 193l192 254q105 -94 212.5 -125.5t223.5 -31.5q109 0 167 44t58 105q0 28 -6 54t-27.5 48.5t-62.5 38t-107 22.5q-107 10 -206.5 34t-176.5 74.5t-123.5 131.5t-46.5 207q0 119 46.5 206t120.5 143.5t166.5 84t184.5 27.5q138 0 273.5 -30.5t255.5 -109.5l-152 -264 q-53 34 -106.5 53t-101.5 30t-89 14t-72 3q-61 0 -99 -13t-60.5 -34.5t-30 -46t-7.5 -45.5q0 -37 14 -60.5t49.5 -41t97 -30t153.5 -28.5q92 -15 176 -43.5t147.5 -80.5t101 -130.5t37.5 -192.5q0 -117 -51.5 -205.5t-134.5 -148t-189.5 -89.5t-215.5 -30q-76 0 -153 7.5 t-154.5 30t-154 63.5t-149.5 105zM464 1724l388 276l193 -230l-460 -194z" />
<glyph unicode="&#x15b;" horiz-adv-x="1005" d="M30 152l151 216q79 -76 165.5 -99.5t174.5 -23.5q58 0 96.5 24t38.5 55t-23.5 56.5t-109.5 36.5q-80 8 -157.5 23.5t-137.5 49t-97 90t-37 151.5q0 86 33 151.5t87.5 107.5t128.5 63.5t156 21.5q123 0 228.5 -24.5t205.5 -100.5l-137 -228q-86 58 -166 73.5t-125 15.5 q-69 0 -97 -23t-28 -46q0 -36 48 -55.5t167 -34.5q74 -8 139.5 -26.5t115 -54t78.5 -94t29 -144.5t-37.5 -150t-101 -108.5t-144.5 -66t-167 -21.5q-60 0 -119 5.5t-118 24t-119.5 50.5t-120.5 85zM394 1219l182 437l286 -93l-290 -408z" />
<glyph unicode="&#x15c;" horiz-adv-x="1276" d="M17 193l192 254q105 -94 212.5 -125.5t223.5 -31.5q109 0 167 44t58 105q0 28 -6 54t-27.5 48.5t-62.5 38t-107 22.5q-107 10 -206.5 34t-176.5 74.5t-123.5 131.5t-46.5 207q0 119 46.5 206t120.5 143.5t166.5 84t184.5 27.5q138 0 273.5 -30.5t255.5 -109.5l-152 -264 q-53 34 -106.5 53t-101.5 30t-89 14t-72 3q-61 0 -99 -13t-60.5 -34.5t-30 -46t-7.5 -45.5q0 -37 14 -60.5t49.5 -41t97 -30t153.5 -28.5q92 -15 176 -43.5t147.5 -80.5t101 -130.5t37.5 -192.5q0 -117 -51.5 -205.5t-134.5 -148t-189.5 -89.5t-215.5 -30q-76 0 -153 7.5 t-154.5 30t-154 63.5t-149.5 105zM254 1688l320 258h211l325 -258l-110 -127l-321 170l-322 -168z" />
<glyph unicode="&#x15d;" horiz-adv-x="1005" d="M30 152l151 216q79 -76 165.5 -99.5t174.5 -23.5q58 0 96.5 24t38.5 55t-23.5 56.5t-109.5 36.5q-80 8 -157.5 23.5t-137.5 49t-97 90t-37 151.5q0 86 33 151.5t87.5 107.5t128.5 63.5t156 21.5q123 0 228.5 -24.5t205.5 -100.5l-137 -228q-86 58 -166 73.5t-125 15.5 q-69 0 -97 -23t-28 -46q0 -36 48 -55.5t167 -34.5q74 -8 139.5 -26.5t115 -54t78.5 -94t29 -144.5t-37.5 -150t-101 -108.5t-144.5 -66t-167 -21.5q-60 0 -119 5.5t-118 24t-119.5 50.5t-120.5 85zM121 1225l316 334h221l318 -334l-120 -105l-310 224l-156 -112t-156 -110z " />
<glyph unicode="&#x15e;" horiz-adv-x="1276" d="M17 193l192 254q105 -94 212.5 -125.5t223.5 -31.5q109 0 167 44t58 105q0 28 -6 54t-27.5 48.5t-62.5 38t-107 22.5q-107 10 -206.5 34t-176.5 74.5t-123.5 131.5t-46.5 207q0 119 46.5 206t120.5 143.5t166.5 84t184.5 27.5q138 0 273.5 -30.5t255.5 -109.5l-152 -264 q-53 34 -106.5 53t-101.5 30t-89 14t-72 3q-61 0 -99 -13t-60.5 -34.5t-30 -46t-7.5 -45.5q0 -37 14 -60.5t49.5 -41t97 -30t153.5 -28.5q92 -15 176 -43.5t147.5 -80.5t101 -130.5t37.5 -192.5q0 -103 -41 -185t-110.5 -140.5t-159 -94.5t-186.5 -46l-21 -72 q112 -12 159 -70.5t47 -122.5q0 -39 -17 -74t-50.5 -64.5t-81.5 -47t-109 -17.5q-69 0 -131 16.5t-110 46.5l54 134q54 -26 88.5 -32.5t71.5 -6.5q34 0 60 16t26 48q0 21 -12 34t-28 17t-33.5 1t-30.5 -9l-83 43l47 156q-69 2 -139 12.5t-138.5 33t-137.5 61t-136 96.5z" />
<glyph unicode="&#x15f;" horiz-adv-x="1005" d="M30 152l151 216q79 -76 165.5 -99.5t174.5 -23.5q58 0 96.5 24t38.5 55t-23.5 56.5t-109.5 36.5q-80 8 -157.5 23.5t-137.5 49t-97 90t-37 151.5q0 86 33 151.5t87.5 107.5t128.5 63.5t156 21.5q123 0 228.5 -24.5t205.5 -100.5l-137 -228q-86 58 -166 73.5t-125 15.5 q-69 0 -97 -23t-28 -46q0 -36 48 -55.5t167 -34.5q74 -8 139.5 -26.5t115 -54t78.5 -94t29 -144.5q0 -72 -26 -127.5t-70 -97.5t-103 -68.5t-126 -39.5l-23 -78q111 -12 158.5 -70.5t47.5 -122.5q0 -39 -17.5 -74t-50.5 -64.5t-81.5 -47t-109.5 -17.5q-69 0 -131 16.5 t-109 46.5l54 134q53 -26 87.5 -32.5t71.5 -6.5q35 0 60.5 16t25.5 48q0 21 -12 34t-28 17t-33 1t-31 -9l-83 43l48 153q-112 3 -222 33.5t-224 131.5z" />
<glyph unicode="&#x160;" horiz-adv-x="1276" d="M17 193l192 254q105 -94 212.5 -125.5t223.5 -31.5q109 0 167 44t58 105q0 28 -6 54t-27.5 48.5t-62.5 38t-107 22.5q-107 10 -206.5 34t-176.5 74.5t-123.5 131.5t-46.5 207q0 119 46.5 206t120.5 143.5t166.5 84t184.5 27.5q138 0 273.5 -30.5t255.5 -109.5l-152 -264 q-53 34 -106.5 53t-101.5 30t-89 14t-72 3q-61 0 -99 -13t-60.5 -34.5t-30 -46t-7.5 -45.5q0 -37 14 -60.5t49.5 -41t97 -30t153.5 -28.5q92 -15 176 -43.5t147.5 -80.5t101 -130.5t37.5 -192.5q0 -117 -51.5 -205.5t-134.5 -148t-189.5 -89.5t-215.5 -30q-76 0 -153 7.5 t-154.5 30t-154 63.5t-149.5 105zM248 1826l103 125l322 -168l320 170l111 -127l-326 -258h-210z" />
<glyph unicode="&#x161;" horiz-adv-x="1005" d="M30 152l151 216q79 -76 165.5 -99.5t174.5 -23.5q58 0 96.5 24t38.5 55t-23.5 56.5t-109.5 36.5q-80 8 -157.5 23.5t-137.5 49t-97 90t-37 151.5q0 86 33 151.5t87.5 107.5t128.5 63.5t156 21.5q123 0 228.5 -24.5t205.5 -100.5l-137 -228q-86 58 -166 73.5t-125 15.5 q-69 0 -97 -23t-28 -46q0 -36 48 -55.5t167 -34.5q74 -8 139.5 -26.5t115 -54t78.5 -94t29 -144.5t-37.5 -150t-101 -108.5t-144.5 -66t-167 -21.5q-60 0 -119 5.5t-118 24t-119.5 50.5t-120.5 85zM111 1453l115 104q77 -53 155.5 -109.5t156.5 -111.5l309 223l121 -106 l-319 -333h-221z" />
<glyph unicode="&#x162;" horiz-adv-x="1194" d="M17 1200v296h1146v-296h-408v-1200h-329v1200h-409zM426 -673l75 232h-71v324h331v-306l-191 -250h-144z" />
<glyph unicode="&#x163;" horiz-adv-x="715" d="M69 825v242h120v292h299v-292h161v-242h-157v-449q0 -69 23 -89t70 -20h67v-267h-166q-129 0 -215 75t-86 211v539h-116zM195 -673l76 232h-71v324h331v-306l-191 -250h-145z" />
<glyph unicode="&#x164;" horiz-adv-x="1194" d="M17 1200v296h1146v-296h-408v-1200h-329v1200h-409zM162 1826l103 125l322 -168l320 170l110 -127l-325 -258h-210z" />
<glyph unicode="&#x165;" horiz-adv-x="962" d="M69 825v242h120v292h299v-292h161v-242h-157v-449q0 -69 23 -89t70 -20h67v-267h-166q-129 0 -215 75t-86 211v539h-116zM628 1198l76 232h-72v325h332v-308l-192 -249h-144z" />
<glyph unicode="&#x166;" horiz-adv-x="1194" d="M17 1200v296h1146v-296h-408v-334h346v-212h-346v-654h-329v654h-344v212h344v334h-409z" />
<glyph unicode="&#x167;" horiz-adv-x="715" d="M69 825v242h120v292h299v-292h161v-242h-157v-156h157v-201h-157v-92q0 -69 23 -89t70 -20h67v-267h-166q-129 0 -215 75t-86 211v182h-114v201h114v156h-116z" />
<glyph unicode="&#x168;" horiz-adv-x="1412" d="M125 542v954h329v-930q0 -129 74 -199t180 -70q109 0 180 62t71 187v950h331v-973q0 -121 -46 -218.5t-124.5 -168t-185.5 -108.5t-226 -38q-121 0 -227.5 39.5t-186 111.5t-124.5 174t-45 227zM284 1654q55 116 121 178t163 62q41 0 81.5 -16.5t77 -36t68.5 -36 t59 -16.5q36 0 68 23.5t76 79.5l146 -86q-55 -125 -120 -179.5t-140 -54.5q-43 0 -85 16t-80 34.5t-72 34.5t-64 16q-37 0 -74.5 -22.5t-85.5 -84.5z" />
<glyph unicode="&#x169;" horiz-adv-x="1184" d="M131 370v695h308v-630q0 -82 42 -123t106 -41q69 0 116.5 41t47.5 123v630h307v-1065h-307v90h-4q-21 -26 -52.5 -45t-66.5 -32t-69 -19.5t-64 -6.5q-168 0 -266 97t-98 286zM150 1288q56 117 122 179t163 62q41 0 81 -17.5t77 -37t69.5 -35t57.5 -15.5q37 0 69 23.5 t75 79.5l147 -86q-55 -125 -120.5 -180t-139.5 -55q-43 0 -85 16.5t-80 34.5t-72 34t-65 16q-36 0 -73.5 -22.5t-85.5 -84.5z" />
<glyph unicode="&#x16a;" horiz-adv-x="1412" d="M125 542v954h329v-930q0 -129 74 -199t180 -70q109 0 180 62t71 187v950h331v-973q0 -121 -46 -218.5t-124.5 -168t-185.5 -108.5t-226 -38q-121 0 -227.5 39.5t-186 111.5t-124.5 174t-45 227zM357 1630v254h716v-254h-716z" />
<glyph unicode="&#x16b;" horiz-adv-x="1184" d="M131 370v695h308v-630q0 -82 42 -123t106 -41q69 0 116.5 41t47.5 123v630h307v-1065h-307v90h-4q-21 -26 -52.5 -45t-66.5 -32t-69 -19.5t-64 -6.5q-168 0 -266 97t-98 286zM240 1243v253h717v-253h-717z" />
<glyph unicode="&#x16c;" horiz-adv-x="1412" d="M125 542v954h329v-930q0 -129 74 -199t180 -70q109 0 180 62t71 187v950h331v-973q0 -121 -46 -218.5t-124.5 -168t-185.5 -108.5t-226 -38q-121 0 -227.5 39.5t-186 111.5t-124.5 174t-45 227zM370 1918h215q0 -21 7.5 -46t22.5 -47.5t37.5 -37.5t53.5 -15q30 0 52 15 t37.5 37.5t22.5 47t7 46.5h216q-7 -49 -25 -109.5t-55.5 -113t-100 -88t-154.5 -35.5q-93 0 -155.5 35.5t-100 88t-56 113t-24.5 109.5z" />
<glyph unicode="&#x16d;" horiz-adv-x="1184" d="M131 370v695h308v-630q0 -82 42 -123t106 -41q69 0 116.5 41t47.5 123v630h307v-1065h-307v90h-4q-21 -26 -52.5 -45t-66.5 -32t-69 -19.5t-64 -6.5q-168 0 -266 97t-98 286zM267 1553h215q0 -21 7.5 -46t22.5 -48t37.5 -38t52.5 -15t52.5 15t38 38t22.5 47.5t7 46.5h216 q-7 -49 -25 -109.5t-56 -113t-100.5 -88.5t-154.5 -36q-93 0 -155 36t-99.5 88.5t-56 113t-24.5 109.5z" />
<glyph unicode="&#x16e;" horiz-adv-x="1412" d="M125 542v954h329v-930q0 -129 74 -199t180 -70q109 0 180 62t71 187v950h331v-973q0 -121 -46 -218.5t-124.5 -168t-185.5 -108.5t-226 -38q-121 0 -227.5 39.5t-186 111.5t-124.5 174t-45 227zM439 1748q0 52 21.5 97t57.5 79.5t85 54t105 19.5q53 0 102.5 -19.5t85 -54 t57 -79.5t21.5 -97q0 -51 -21.5 -96.5t-58 -80t-85 -54t-103.5 -19.5q-56 0 -105 19.5t-84 54t-56.5 80t-21.5 96.5zM620 1748q0 -34 25.5 -58t62.5 -24q36 0 61 24t25 58q0 35 -25 57.5t-61 22.5q-37 0 -62.5 -22.5t-25.5 -57.5z" />
<glyph unicode="&#x16f;" horiz-adv-x="1184" d="M131 370v695h308v-630q0 -82 42 -123t106 -41q69 0 116.5 41t47.5 123v630h307v-1065h-307v90h-4q-21 -26 -52.5 -45t-66.5 -32t-69 -19.5t-64 -6.5q-168 0 -266 97t-98 286zM331 1383q0 51 21.5 96.5t58 80t85 53.5t104.5 19q53 0 103 -19t85 -53.5t56.5 -80t21.5 -96.5 q0 -52 -21.5 -97t-57.5 -79.5t-84.5 -54t-105.5 -19.5q-55 0 -103.5 19.5t-84 54t-57 79.5t-21.5 97zM511 1383q0 -35 26.5 -58.5t62.5 -23.5t61 23.5t25 58.5t-25 57.5t-61 22.5q-37 0 -63 -22.5t-26 -57.5z" />
<glyph unicode="&#x170;" horiz-adv-x="1412" d="M125 542v954h329v-930q0 -129 74 -199t180 -70q109 0 180 62t71 187v950h331v-973q0 -121 -46 -218.5t-124.5 -168t-185.5 -108.5t-226 -38q-121 0 -227.5 39.5t-186 111.5t-124.5 174t-45 227zM226 1686l346 325l224 -203l-431 -253zM699 1686l346 325l223 -203 l-429 -253z" />
<glyph unicode="&#x171;" horiz-adv-x="1184" d="M131 370v695h308v-630q0 -82 42 -123t106 -41q69 0 116.5 41t47.5 123v630h307v-1065h-307v90h-4q-21 -26 -52.5 -45t-66.5 -32t-69 -19.5t-64 -6.5q-168 0 -266 97t-98 286zM256 1219l183 437l285 -93l-289 -408zM658 1219l183 437l286 -93l-290 -408z" />
<glyph unicode="&#x172;" horiz-adv-x="1412" d="M125 542v954h329v-930q0 -129 74 -199t180 -70q109 0 180 62t71 187v950h331v-973q0 -107 -37.5 -199t-102 -159.5t-154 -112t-192.5 -56.5q-47 -62 -67.5 -106t-20.5 -77q0 -58 69 -58q19 0 53.5 7.5t84.5 24.5l60 -150q-56 -31 -116.5 -49t-115.5 -18q-103 0 -166.5 62 t-63.5 149q0 45 16.5 95t64.5 122q-101 15 -188 60t-152 116t-101 163.5t-36 204.5z" />
<glyph unicode="&#x173;" horiz-adv-x="1184" d="M131 370v695h308v-630q0 -82 42 -123t106 -41q69 0 116.5 41t47.5 123v630h307v-1065h-110q-49 -66 -69.5 -110t-20.5 -77q0 -58 69 -58q19 0 53.5 7.5t84.5 24.5l60 -150q-56 -31 -116.5 -49t-116.5 -18q-102 0 -165.5 62t-63.5 149q0 45 19 97.5t69 125.5v86h-4 q-21 -26 -52.5 -45t-66.5 -32t-69 -19.5t-64 -6.5q-168 0 -266 97t-98 286z" />
<glyph unicode="&#x174;" horiz-adv-x="1835" d="M2 1492h347l105 -443l94 -425h6l115 425l129 443h240l130 -441l114 -427h11l90 425l105 443h346l-400 -1496h-266l-140 486l-105 408h-7l-108 -414l-137 -480h-269zM492 1688l321 258h211l324 -258l-109 -127l-321 170l-323 -168z" />
<glyph unicode="&#x175;" horiz-adv-x="1619" d="M10 1065h328l75 -265l84 -332h10l97 332l86 265h246l84 -265l94 -332h13l84 332l75 265h327l-363 -1065h-259l-82 262l-94 325h-7l-92 -322l-86 -265h-256zM378 1225l317 334h221l319 -334l-121 -105l-310 224q-77 -56 -155.5 -112t-156.5 -110z" />
<glyph unicode="&#x176;" horiz-adv-x="1300" d="M15 1496h355l153 -322l129 -290h8l128 288l154 324h355l-484 -883v-613h-316v613zM230 1688l320 258h211l325 -258l-110 -127l-320 170l-323 -168z" />
<glyph unicode="&#x177;" horiz-adv-x="1079" d="M0 1065h329l104 -304l103 -335h8l101 331l108 308h326l-482 -1272q-49 -129 -139 -176t-198 -47h-122v252h79q50 0 78.5 30.5t44.5 73.5l52 160zM114 1225l316 334h222l318 -334l-121 -105l-309 224l-156 -112t-156 -110z" />
<glyph unicode="&#x178;" horiz-adv-x="1300" d="M15 1496h355l153 -322l129 -290h8l128 288l154 324h355l-484 -883v-613h-316v613zM262 1600v286h329v-286h-329zM724 1600v286h327v-286h-327z" />
<glyph unicode="&#x179;" horiz-adv-x="1180" d="M60 0v281l658 921h-630v294h1030v-273l-656 -920h656v-303h-1058zM351 1724l386 276l194 -230l-460 -194z" />
<glyph unicode="&#x17a;" horiz-adv-x="995" d="M60 0v256l492 546h-462v263h843v-246l-490 -544h490v-275h-873zM372 1219l182 437l287 -93l-291 -408z" />
<glyph unicode="&#x17b;" horiz-adv-x="1180" d="M60 0v281l658 921h-630v294h1030v-273l-656 -920h656v-303h-1058zM430 1611v279h319v-279h-319z" />
<glyph unicode="&#x17c;" horiz-adv-x="995" d="M60 0v256l492 546h-462v263h843v-246l-490 -544h490v-275h-873zM363 1223v281h318v-281h-318z" />
<glyph unicode="&#x17d;" horiz-adv-x="1180" d="M60 0v281l658 921h-630v294h1030v-273l-656 -920h656v-303h-1058zM172 1826l103 125l322 -168l321 170l110 -127l-324 -258h-212z" />
<glyph unicode="&#x17e;" horiz-adv-x="995" d="M60 0v256l492 546h-462v263h843v-246l-490 -544h490v-275h-873zM86 1453l114 104q77 -53 156 -109.5t155 -111.5l310 223l121 -106l-318 -333h-222z" />
<glyph unicode="&#x192;" horiz-adv-x="1182" d="M30 -152l77 253q69 -29 102.5 -35t57.5 -6q49 0 80 57t45 164l47 377h-160l-4 269h201l14 118q9 80 33.5 161.5t73 148.5t126 109t191.5 42q55 -2 121 -16.5t116 -34.5l-65 -257q-37 13 -59.5 20t-39.5 11t-33 5t-36 1q-31 0 -51 -18.5t-35 -48t-23.5 -65.5t-12.5 -71 q-4 -30 -7.5 -52.5t-8.5 -52.5h199l4 -269h-230l-54 -404q-12 -94 -38.5 -180.5t-72.5 -152t-115 -104.5t-165 -39q-27 0 -62 5.5t-74 15.5t-75.5 22.5t-66.5 26.5z" />
<glyph unicode="&#x1a0;" horiz-adv-x="1362" d="M88 572v353q0 117 36 222t107.5 185.5t180.5 128t255 47.5q103 0 190 -26.5t156 -73.5q58 15 83.5 66t25.5 154v116h239v-181q0 -118 -47.5 -204t-135.5 -132q76 -133 76 -302v-353q0 -133 -42 -241.5t-118.5 -185t-185 -117.5t-241.5 -41q-146 0 -255 47.5t-180.5 128 t-107.5 187t-36 222.5zM421 548q0 -49 15.5 -94.5t45 -79.5t75 -55.5t108.5 -21.5q120 0 185.5 72t65.5 179v406q0 99 -65.5 171.5t-185.5 72.5q-62 0 -108 -20.5t-75.5 -55t-45 -78.5t-15.5 -90v-406z" />
<glyph unicode="&#x1a1;" horiz-adv-x="1201" d="M71 533q3 82 15.5 161.5t40.5 138.5q56 120 174.5 182t268.5 62q97 0 180 -27.5t145 -83.5q47 19 67.5 69.5t20.5 142.5v117h238v-181q0 -127 -54.5 -217.5t-153.5 -131.5q15 -53 20 -112.5t5 -125.5q0 -105 -21.5 -188t-59.5 -148q-67 -107 -177.5 -156.5t-237.5 -49.5 q-125 0 -222.5 40.5t-157.5 128.5q-50 72 -71.5 167.5t-19.5 211.5zM385 529q0 -55 6.5 -99.5t23.5 -76.5q19 -41 53.5 -64.5t81.5 -23.5q56 0 96 29.5t58 85.5q6 24 12 62t6 91q2 60 -6 106.5t-19 70.5q-19 47 -57 69.5t-81 22.5q-46 0 -83 -24.5t-59 -67.5 q-17 -35 -23.5 -80t-8.5 -101z" />
<glyph unicode="&#x1af;" horiz-adv-x="1576" d="M125 542v954h329v-930q0 -129 74 -199t180 -70q109 0 180 62t71 187v950h331v-76q58 12 84 61.5t26 152.5v110h239v-181q0 -168 -94 -269.5t-255 -109.5v-661q0 -121 -46 -218.5t-124.5 -168t-185.5 -108.5t-226 -38q-121 0 -227.5 39.5t-186 111.5t-124.5 174t-45 227z " />
<glyph unicode="&#x1b0;" horiz-adv-x="1383" d="M131 370v695h308v-630q0 -82 42 -123t106 -41q69 0 116.5 41t47.5 123v630h307v-104q56 17 79.5 66.5t23.5 150.5v117h239v-181q0 -166 -91.5 -266.5t-250.5 -112.5v-735h-307v90h-4q-21 -26 -52.5 -45t-66.5 -32t-69 -19.5t-64 -6.5q-168 0 -266 97t-98 286z" />
<glyph unicode="&#x1fc;" horiz-adv-x="2345" d="M92 0l906 1496h1228v-296h-728v-303h620v-286h-620v-314h728v-297h-1058v320h-503l-181 -320h-392zM821 609h347v591h-9zM1182 1724l388 276l193 -230l-460 -194z" />
<glyph unicode="&#x1fd;" horiz-adv-x="1717" d="M76 316q0 66 25.5 126.5t74 105.5t120.5 71t164 26h241v34q0 17 -6.5 42.5t-26 48t-56 38t-95.5 15.5q-91 0 -154.5 -23.5t-110.5 -70.5l-138 198q41 45 90.5 74t102 45.5t108.5 22.5t112 6q41 0 90.5 -3t98.5 -16t94.5 -35.5t77.5 -61.5q60 62 141 89t155 27 q127 0 220.5 -41t155 -113t92 -173t30.5 -221v-75h-656q15 -106 68 -145.5t129 -39.5q41 0 97.5 18t122.5 78l189 -211q-103 -94 -213 -128t-213 -34q-98 0 -199.5 29.5t-175.5 109.5q-60 -55 -152 -97t-225 -42q-78 0 -147 19t-120.5 58.5t-81 101t-29.5 147.5zM370 342 q0 -10 5 -26.5t20.5 -32.5t44 -28t77.5 -12q71 0 127.5 34.5t56.5 109.5v34h-202q-41 0 -67 -7.5t-40 -19t-18 -25.5t-4 -27zM780 1219l184 437l286 -93l-291 -408zM1036 649h323q-9 73 -57 111t-106 38t-103.5 -39t-56.5 -110z" />
<glyph unicode="&#x1fe;" horiz-adv-x="1340" d="M84 64l107 147q-53 76 -78 168t-25 193v353q0 117 36 222t107.5 185.5t180.5 128t255 47.5q116 0 211.5 -32.5t170.5 -92.5l95 131l110 -80l-110 -148q110 -152 110 -361v-353q0 -133 -42 -241.5t-118.5 -185t-185 -117.5t-241.5 -41q-123 0 -219.5 33.5t-166.5 93.5 l-92 -124zM421 527l435 591q-33 37 -81 58.5t-110 21.5t-108 -20.5t-75.5 -55t-45 -78.5t-15.5 -90v-406v-21zM454 1724l387 276l193 -230l-460 -194zM476 378q30 -37 77 -59t112 -22q120 0 185.5 72t65.5 179v406q0 5 -1 10.5t-1 9.5z" />
<glyph unicode="&#x1ff;" horiz-adv-x="1108" d="M71 41l95 107q-4 4 -4 6q-50 72 -71.5 167.5t-19.5 211.5q3 82 15.5 161.5t40.5 138.5q56 120 174.5 182t268.5 62q93 0 173 -25.5t143 -77.5l93 108l70 -62l-101 -115l6 -6q46 -66 66.5 -161t17.5 -211q0 -105 -21.5 -188t-59.5 -148q-67 -107 -177.5 -156.5 t-237.5 -49.5q-97 0 -176.5 24t-139.5 73l-86 -99zM385 529q0 -73 9 -116l285 327q-21 31 -52.5 46.5t-67.5 15.5q-46 0 -83 -24.5t-59 -67.5q-17 -35 -23.5 -80t-8.5 -101zM411 1219l182 437l287 -93l-291 -408zM435 318q43 -53 115 -53q56 0 96 29.5t58 85.5q6 24 12 62 t6 91q0 60 -6 105z" />
<glyph unicode="&#x218;" horiz-adv-x="1276" d="M17 193l192 254q105 -94 212.5 -125.5t223.5 -31.5q109 0 167 44t58 105q0 28 -6 54t-27.5 48.5t-62.5 38t-107 22.5q-107 10 -206.5 34t-176.5 74.5t-123.5 131.5t-46.5 207q0 119 46.5 206t120.5 143.5t166.5 84t184.5 27.5q138 0 273.5 -30.5t255.5 -109.5l-152 -264 q-53 34 -106.5 53t-101.5 30t-89 14t-72 3q-61 0 -99 -13t-60.5 -34.5t-30 -46t-7.5 -45.5q0 -37 14 -60.5t49.5 -41t97 -30t153.5 -28.5q92 -15 176 -43.5t147.5 -80.5t101 -130.5t37.5 -192.5q0 -117 -51.5 -205.5t-134.5 -148t-189.5 -89.5t-215.5 -30q-76 0 -153 7.5 t-154.5 30t-154 63.5t-149.5 105zM476 -673l74 232h-70v324h331v-306l-191 -250h-144z" />
<glyph unicode="&#x219;" horiz-adv-x="1005" d="M30 152l151 216q79 -76 165.5 -99.5t174.5 -23.5q58 0 96.5 24t38.5 55t-23.5 56.5t-109.5 36.5q-80 8 -157.5 23.5t-137.5 49t-97 90t-37 151.5q0 86 33 151.5t87.5 107.5t128.5 63.5t156 21.5q123 0 228.5 -24.5t205.5 -100.5l-137 -228q-86 58 -166 73.5t-125 15.5 q-69 0 -97 -23t-28 -46q0 -36 48 -55.5t167 -34.5q74 -8 139.5 -26.5t115 -54t78.5 -94t29 -144.5t-37.5 -150t-101 -108.5t-144.5 -66t-167 -21.5q-60 0 -119 5.5t-118 24t-119.5 50.5t-120.5 85zM331 -673l75 232h-71v324h332v-306l-191 -250h-145z" />
<glyph unicode="&#x259;" horiz-adv-x="1145" d="M76 536v75h657q-11 103 -56 145t-123 42q-41 0 -107.5 -19.5t-132.5 -79.5l-189 210q103 95 219 130.5t220 35.5q88 0 174.5 -24.5t157 -86t113 -165.5t42.5 -266q0 -150 -41.5 -254.5t-110 -169t-156 -93.5t-177.5 -29q-127 0 -219.5 41t-153 113t-89 173t-28.5 222z M406 413q9 -74 54 -113.5t104 -39.5q58 0 103 41t55 112h-316z" />
<glyph unicode="&#x2b9;" horiz-adv-x="605" d="M101 907l243 710l319 -115l-328 -671z" />
<glyph unicode="&#x2c6;" horiz-adv-x="1108" d="M121 1225l316 334h221l318 -334l-120 -105l-310 224l-156 -112t-156 -110z" />
<glyph unicode="&#x2c7;" horiz-adv-x="1108" d="M121 1453l113 104q78 -53 156 -109.5t156 -111.5l310 223l120 -106l-318 -333h-221z" />
<glyph unicode="&#x2d8;" horiz-adv-x="1145" d="M236 1553h216q0 -21 7 -46t22.5 -48t38 -38t52.5 -15q31 0 53 15t37 38t22.5 47.5t7.5 46.5h215q-6 -49 -24.5 -109.5t-55.5 -113t-99.5 -88.5t-155.5 -36q-92 0 -154.5 36t-100.5 88.5t-56 113t-25 109.5z" />
<glyph unicode="&#x2d9;" horiz-adv-x="726" d="M207 1223v281h318v-281h-318z" />
<glyph unicode="&#x2da;" horiz-adv-x="1108" d="M329 1383q0 51 21.5 96.5t58 80t85 53.5t103.5 19q54 0 104 -19t85 -53.5t56.5 -80t21.5 -96.5q0 -52 -21.5 -97t-57.5 -79.5t-84.5 -54t-105.5 -19.5q-55 0 -103.5 19.5t-84 54t-57 79.5t-21.5 97zM509 1383q0 -35 26.5 -58.5t61.5 -23.5q37 0 62 23.5t25 58.5t-25 57.5 t-62 22.5q-36 0 -62 -22.5t-26 -57.5z" />
<glyph unicode="&#x2db;" horiz-adv-x="632" d="M121 -224q0 48 20.5 101.5t73.5 130.5h191l5 -8q-50 -69 -72.5 -114.5t-22.5 -76.5q0 -58 69 -59q19 0 54 8t84 25l60 -151q-56 -30 -116.5 -48.5t-115.5 -18.5q-103 0 -166.5 62.5t-63.5 148.5z" />
<glyph unicode="&#x2dc;" horiz-adv-x="1108" d="M144 1288q56 117 122 179t162 62q41 0 81.5 -17.5t77.5 -37t69 -35t58 -15.5q37 0 69 23.5t75 79.5l146 -86q-56 -125 -120.5 -180t-139.5 -55q-43 0 -85 16.5t-79.5 34.5t-71.5 34t-65 16q-37 0 -74.5 -22.5t-84.5 -84.5z" />
<glyph unicode="&#x2dd;" horiz-adv-x="1237" d="M320 1219l183 437l287 -93l-291 -408zM722 1219l183 437l287 -93l-291 -408z" />
<glyph unicode="&#x384;" horiz-adv-x="1108" d="M394 1219l182 437l286 -93l-290 -408z" />
<glyph unicode="&#x385;" horiz-adv-x="1317" d="M78 1223v281h318v-281h-318zM437 1219l183 437l285 -93l-290 -408zM901 1223v281h320v-281h-320z" />
<glyph unicode="&#x386;" horiz-adv-x="1418" d="M-150 1155l183 437l285 -94l-290 -408zM-4 0l580 1496h261l581 -1496h-349l-112 306h-501l-112 -306h-348zM559 585h295l-56 172l-88 297h-9l-86 -293z" />
<glyph unicode="&#x387;" horiz-adv-x="651" d="M144 576v355h363v-355h-363z" />
<glyph unicode="&#x388;" horiz-adv-x="1257" d="M-398 1155l183 437l286 -94l-290 -408zM150 0v1496h1059v-296h-727v-303h619v-286h-619v-314h727v-297h-1059z" />
<glyph unicode="&#x389;" horiz-adv-x="1449" d="M-380 1155l183 437l285 -94l-291 -408zM150 0v1496h332v-599h490v599h327v-1496h-327v611h-490v-611h-332z" />
<glyph unicode="&#x38a;" horiz-adv-x="632" d="M-385 1155l182 437l287 -94l-291 -408zM158 0v1496h330v-1496h-330z" />
<glyph unicode="&#x38c;" horiz-adv-x="1340" d="M-346 1155l182 437l287 -94l-291 -408zM88 572v353q0 117 36 222t107.5 185.5t180.5 128t255 47.5q135 0 244 -44t185 -122t117 -185.5t41 -231.5v-353q0 -133 -42 -241.5t-118.5 -185t-185 -117.5t-241.5 -41q-146 0 -255 47.5t-180.5 128t-107.5 187t-36 222.5z M421 548q0 -49 15.5 -94.5t45 -79.5t75 -55.5t108.5 -21.5q120 0 185.5 72t65.5 179v406q0 99 -65.5 171.5t-185.5 72.5q-62 0 -108 -20.5t-75.5 -55t-45 -78.5t-15.5 -90v-406z" />
<glyph unicode="&#x38e;" horiz-adv-x="1300" d="M-501 1155l183 437l285 -94l-289 -408zM15 1496h355l153 -322l129 -290h8l128 288l154 324h355l-484 -883v-613h-316v613z" />
<glyph unicode="&#x38f;" horiz-adv-x="1350" d="M-340 1155l182 437l287 -94l-291 -408zM56 0v297h129l2 11q-60 57 -79.5 144.5t-19.5 175.5v297q0 117 36 222t107.5 185.5t180.5 128t255 47.5q135 0 244 -44t185 -122t117 -185.5t41 -231.5v-297q0 -97 -22.5 -177.5t-80.5 -149.5l2 -4h135v-297h-548v312 q86 21 131 86.5t45 155.5v400q0 99 -65.5 171.5t-185.5 72.5q-62 0 -108 -20.5t-75.5 -55t-45 -78.5t-15.5 -90v-400q0 -84 43 -154.5t138 -89.5v-310h-546z" />
<glyph unicode="&#x390;" horiz-adv-x="644" d="M-248 1223v281h319v-281h-319zM111 1219l184 437l286 -93l-291 -408zM133 312v753h306v-732q0 -43 20.5 -72t104.5 -29l-2 -249q-24 -2 -55 -2h-51q-117 0 -181 33t-96.5 82.5t-39 107.5t-6.5 108zM576 1223v281h321v-281h-321z" />
<glyph unicode="&#x391;" horiz-adv-x="1418" d="M-4 0l580 1496h261l581 -1496h-349l-112 306h-501l-112 -306h-348zM559 585h295l-56 172l-88 297h-9l-86 -293z" />
<glyph unicode="&#x392;" horiz-adv-x="1369" d="M150 0v1496h630q119 0 211.5 -31t156 -86.5t95.5 -134t32 -171.5q0 -82 -42.5 -164t-144.5 -129v-8q51 -19 90 -56t65.5 -82t41 -94.5t14.5 -94.5q0 -101 -38 -182.5t-101.5 -140t-148 -90.5t-178.5 -32h-683zM482 297h281q105 0 150.5 49.5t45.5 113.5q0 32 -10.5 62 t-34.5 54t-61.5 38t-89.5 14h-281v-331zM482 901h253q103 0 146.5 47.5t43.5 109.5t-43 102t-147 40h-253v-299z" />
<glyph unicode="&#x393;" horiz-adv-x="1216" d="M150 0v1496h1059v-296h-727v-1200h-332z" />
<glyph unicode="&#x394;" horiz-adv-x="1420" d="M-4 0l580 1496h261l581 -1496h-1422zM447 286h519l-131 406l-119 398h-15l-118 -398z" />
<glyph unicode="&#x395;" horiz-adv-x="1257" d="M150 0v1496h1059v-296h-727v-303h619v-286h-619v-314h727v-297h-1059z" />
<glyph unicode="&#x396;" horiz-adv-x="1180" d="M60 0v281l658 921h-630v294h1030v-273l-656 -920h656v-303h-1058z" />
<glyph unicode="&#x397;" horiz-adv-x="1449" d="M150 0v1496h332v-599h490v599h327v-1496h-327v611h-490v-611h-332z" />
<glyph unicode="&#x398;" horiz-adv-x="1340" d="M88 572v353q0 117 36 222t107.5 185.5t180.5 128t255 47.5q135 0 244 -44t185 -122t117 -185.5t41 -231.5v-353q0 -133 -42 -241.5t-118.5 -185t-185 -117.5t-241.5 -41q-146 0 -255 47.5t-180.5 128t-107.5 187t-36 222.5zM421 548q0 -49 15.5 -94.5t45 -79.5t75 -55.5 t108.5 -21.5q120 0 185.5 72t65.5 179v406q0 99 -65.5 171.5t-185.5 72.5q-62 0 -108 -20.5t-75.5 -55t-45 -78.5t-15.5 -90v-406zM484 613v265h370v-265h-370z" />
<glyph unicode="&#x399;" horiz-adv-x="632" d="M158 0v1496h330v-1496h-330z" />
<glyph unicode="&#x39a;" horiz-adv-x="1412" d="M150 0v1496h332v-640l4 -4l228 277l312 367h400l-525 -606l554 -890h-390l-388 636l-195 -219v-417h-332z" />
<glyph unicode="&#x39b;" horiz-adv-x="1369" d="M-26 0l580 1496h261l580 -1496h-348l-169 484l-190 542h-9l-184 -536l-173 -490h-348z" />
<glyph unicode="&#x39c;" horiz-adv-x="1681" d="M150 0v1496h299l203 -433l193 -450h9l187 450l198 433h312v-1496h-330v712l-6 2l-136 -303l-100 -211h-255l-104 221l-132 293l-6 -6v-708h-332z" />
<glyph unicode="&#x39d;" horiz-adv-x="1526" d="M150 0v1496h295l314 -458l288 -449l4 2v905h332v-1496h-295l-380 550l-222 357l-4 -2v-905h-332z" />
<glyph unicode="&#x39e;" horiz-adv-x="1309" d="M107 0v297h1093v-297h-1093zM114 1200v296h1076v-296h-1076zM224 611v286h855v-286h-855z" />
<glyph unicode="&#x39f;" horiz-adv-x="1340" d="M88 572v353q0 117 36 222t107.5 185.5t180.5 128t255 47.5q135 0 244 -44t185 -122t117 -185.5t41 -231.5v-353q0 -133 -42 -241.5t-118.5 -185t-185 -117.5t-241.5 -41q-146 0 -255 47.5t-180.5 128t-107.5 187t-36 222.5zM421 548q0 -49 15.5 -94.5t45 -79.5t75 -55.5 t108.5 -21.5q120 0 185.5 72t65.5 179v406q0 99 -65.5 171.5t-185.5 72.5q-62 0 -108 -20.5t-75.5 -55t-45 -78.5t-15.5 -90v-406z" />
<glyph unicode="&#x3a0;" horiz-adv-x="1449" d="M150 0v1496h1149v-1496h-327v1198h-490v-1198h-332z" />
<glyph unicode="&#x3a1;" horiz-adv-x="1309" d="M150 0v1496h618q118 0 214.5 -33t165.5 -95.5t107 -151.5t38 -201q0 -100 -41 -186.5t-111 -149t-164.5 -98t-202.5 -35.5h-292v-546h-332zM482 843h277q82 0 140 48.5t58 130.5q0 90 -54 134t-152 44h-269v-357z" />
<glyph unicode="&#x3a3;" horiz-adv-x="1180" d="M58 1200v296h1030v-296h-632l326 -430l-322 -464h658v-306h-1058v306l332 462z" />
<glyph unicode="&#x3a4;" horiz-adv-x="1194" d="M17 1200v296h1146v-296h-408v-1200h-329v1200h-409z" />
<glyph unicode="&#x3a5;" horiz-adv-x="1300" d="M15 1496h355l153 -322l129 -290h8l128 288l154 324h355l-484 -883v-613h-316v613z" />
<glyph unicode="&#x3a6;" horiz-adv-x="1683" d="M97 761q0 127 37.5 241t111.5 201t185 138.5t257 56.5v98h307v-98q155 -11 269.5 -61.5t188.5 -133.5t108.5 -194.5t34.5 -247.5q0 -127 -41 -240t-117.5 -198t-188.5 -134t-254 -51v-138h-307v138q-152 12 -264 64t-185 133.5t-107.5 190t-34.5 235.5zM415 763 q0 -75 13 -138t43 -111t83 -78t134 -38v733q-148 -19 -212.5 -112.5t-60.5 -255.5zM995 398q93 6 149 36t86 79t39 112t9 138q0 58 -10 121.5t-41 118.5t-86 91.5t-146 40.5v-737z" />
<glyph unicode="&#x3a7;" horiz-adv-x="1352" d="M0 0l507 765l-479 731h376l267 -449l269 449h376l-479 -731l509 -765h-376l-299 486l-297 -486h-374z" />
<glyph unicode="&#x3a8;" horiz-adv-x="1664" d="M123 858v638h318v-644q0 -110 53.5 -183.5t170.5 -87.5v915h328v-915q107 8 165.5 74.5t58.5 177.5v663h318v-657q0 -115 -41 -208t-113 -162t-170.5 -109t-217.5 -48v-312h-328v312q-123 8 -223 50t-171 113t-109.5 168t-38.5 215z" />
<glyph unicode="&#x3a9;" horiz-adv-x="1350" d="M56 0v297h129l2 11q-60 57 -79.5 144.5t-19.5 175.5v297q0 117 36 222t107.5 185.5t180.5 128t255 47.5q135 0 244 -44t185 -122t117 -185.5t41 -231.5v-297q0 -97 -22.5 -177.5t-80.5 -149.5l2 -4h135v-297h-548v312q86 21 131 86.5t45 155.5v400q0 99 -65.5 171.5 t-185.5 72.5q-62 0 -108 -20.5t-75.5 -55t-45 -78.5t-15.5 -90v-400q0 -84 43 -154.5t138 -89.5v-310h-546z" />
<glyph unicode="&#x3aa;" horiz-adv-x="632" d="M-84 1600v286h329v-286h-329zM158 0v1496h330v-1496h-330zM378 1600v286h328v-286h-328z" />
<glyph unicode="&#x3ab;" horiz-adv-x="1300" d="M15 1496h355l153 -322l129 -290h8l128 288l154 324h355l-484 -883v-613h-316v613zM252 1600v286h329v-286h-329zM714 1600v286h327v-286h-327z" />
<glyph unicode="&#x3ac;" horiz-adv-x="1145" d="M90 507q0 86 13.5 185.5t55 184t123 140.5t219.5 56q58 0 111 -18.5t98 -67.5l6 2v76h306v-1065h-306v84l-6 2q-37 -43 -97.5 -71t-113.5 -28q-134 0 -214 50.5t-123 128t-57.5 168.5t-14.5 173zM400 1219l183 437l285 -93l-289 -408zM404 529q0 -43 3.5 -89t19.5 -84 t47 -62.5t88 -24.5q53 0 83 25.5t46.5 64.5t20.5 84t4 86q0 39 -4 85t-19.5 84.5t-46.5 66t-84 27.5q-56 0 -88.5 -26t-47.5 -64.5t-18.5 -85t-3.5 -87.5z" />
<glyph unicode="&#x3ad;" horiz-adv-x="1022" d="M88 320q0 26 9.5 57t28 64t45 59.5t63.5 43.5v6q-39 11 -64.5 35t-40.5 53t-21.5 57.5t-6.5 51.5q0 69 30.5 129t86 104t138.5 69.5t188 25.5q123 0 227.5 -32t200.5 -129l-187 -210q-62 61 -119 76.5t-112 15.5q-16 0 -40 -4t-45.5 -14t-36.5 -26.5t-15 -39.5 q0 -31 22.5 -52.5t100.5 -21.5h131v-217h-144q-123 0 -123 -75q0 -24 31 -50.5t119 -26.5q54 0 116.5 17t117.5 79l197 -207q-103 -95 -217 -131.5t-237 -36.5q-96 0 -178 21.5t-141.5 63.5t-91.5 103.5t-32 141.5zM385 1219l183 437l286 -93l-290 -408z" />
<glyph unicode="&#x3ae;" horiz-adv-x="1184" d="M129 0v1065h308v-89h4q49 46 123 72.5t135 26.5q175 0 265 -96.5t90 -286.5v-692h-305v628q0 82 -43 123t-109 41q-69 0 -114.5 -41t-45.5 -123v-628h-308zM394 1219l182 437l286 -93l-290 -408z" />
<glyph unicode="&#x3af;" horiz-adv-x="644" d="M133 312v753h306v-732q0 -43 20.5 -72t104.5 -29l-2 -249q-24 -2 -55 -2h-51q-117 0 -181 33t-96.5 82.5t-39 107.5t-6.5 108zM135 1219l183 437l286 -93l-290 -408z" />
<glyph unicode="&#x3b0;" horiz-adv-x="1184" d="M26 1223v281h318v-281h-318zM129 394v671h308v-626q0 -82 44 -122t112 -40q66 0 112 40t46 122v626h305v-671q0 -93 -35.5 -168.5t-97 -128t-147.5 -80t-185 -27.5q-96 0 -180 28.5t-146 81t-99 128t-37 166.5zM385 1219l183 437l286 -93l-290 -408zM849 1223v281h321 v-281h-321z" />
<glyph unicode="&#x3b1;" horiz-adv-x="1145" d="M90 507q0 86 13.5 185.5t55 184t123 140.5t219.5 56q58 0 111 -18.5t98 -67.5l6 2v76h306v-1065h-306v84l-6 2q-37 -43 -97.5 -71t-113.5 -28q-134 0 -214 50.5t-123 128t-57.5 168.5t-14.5 173zM404 529q0 -43 3.5 -89t19.5 -84t47 -62.5t88 -24.5q53 0 83 25.5 t46.5 64.5t20.5 84t4 86q0 39 -4 85t-19.5 84.5t-46.5 66t-84 27.5q-56 0 -88.5 -26t-47.5 -64.5t-18.5 -85t-3.5 -87.5z" />
<glyph unicode="&#x3b2;" horiz-adv-x="1165" d="M121 -324v1403q0 216 111 345t324 129q119 0 204 -33.5t138.5 -86t78.5 -118t25 -131.5q0 -32 -8.5 -72.5t-27 -81.5t-47.5 -76.5t-72 -54.5v-7q86 -26 133.5 -76.5t69 -110.5t25.5 -118t4 -99q0 -105 -22.5 -195t-71.5 -158.5t-128 -106.5t-190 -38q-60 0 -124.5 23.5 t-109.5 70.5h-5v-408h-307zM428 517q0 -43 3.5 -90t18 -83t47 -60t90.5 -24q51 0 84 24t52 63.5t25.5 90t6.5 104.5q0 32 -7.5 67.5t-25.5 63.5t-52 46t-85 18h-76v237h57q35 0 60.5 16t42.5 41t26 56t9 62q0 60 -39 104t-101 44q-37 0 -62.5 -15.5t-42 -40t-24 -55.5 t-7.5 -64v-605z" />
<glyph unicode="&#x3b3;" horiz-adv-x="1098" d="M4 1058q43 15 90.5 22.5t79.5 7.5q58 0 97 -17t68 -51.5t51.5 -88t48.5 -125.5q30 -88 56 -173t55 -181h12q51 172 97.5 317t97.5 294h335q-103 -267 -198.5 -518.5t-185.5 -516.5v-458h-304v395q-55 187 -121 376.5t-133 364.5q-24 64 -43 86.5t-64 22.5h-19z" />
<glyph unicode="&#x3b4;" horiz-adv-x="1108" d="M76 505q2 82 14.5 143.5t40.5 119.5q24 51 73.5 103t105.5 79q-70 50 -101 122t-31 132q0 89 31 154.5t85.5 109.5t128.5 66.5t158 22.5q92 0 187.5 -17.5t212.5 -78.5l-115 -242q-86 47 -143.5 59t-107.5 12q-51 0 -77.5 -20t-26.5 -51q0 -28 21.5 -53t55.5 -47.5 t73.5 -42.5t73.5 -40q90 -49 148.5 -106t92 -122.5t46 -140t10.5 -154.5q0 -105 -21.5 -179t-60.5 -139q-66 -107 -174.5 -158.5t-235.5 -51.5q-125 0 -221.5 39.5t-156.5 127.5q-50 72 -69 155t-17 198zM383 519q0 -105 30 -166q19 -41 53.5 -64.5t81.5 -23.5q56 0 96 29.5 t57 85.5q7 24 13 56t6 87q2 60 -6 102t-19 65q-42 98 -145 118q-51 -14 -83 -43.5t-50 -65.5q-19 -43 -25.5 -90t-8.5 -90z" />
<glyph unicode="&#x3b5;" horiz-adv-x="1022" d="M88 320q0 26 9.5 57t28 64t45 59.5t63.5 43.5v6q-39 11 -64.5 35t-40.5 53t-21.5 57.5t-6.5 51.5q0 69 30.5 129t86 104t138.5 69.5t188 25.5q123 0 227.5 -32t200.5 -129l-187 -210q-62 61 -119 76.5t-112 15.5q-16 0 -40 -4t-45.5 -14t-36.5 -26.5t-15 -39.5 q0 -31 22.5 -52.5t100.5 -21.5h131v-217h-144q-123 0 -123 -75q0 -24 31 -50.5t119 -26.5q54 0 116.5 17t117.5 79l197 -207q-103 -95 -217 -131.5t-237 -36.5q-96 0 -178 21.5t-141.5 63.5t-91.5 103.5t-32 141.5z" />
<glyph unicode="&#x3b6;" horiz-adv-x="938" d="M88 449q0 99 47.5 213t123.5 223.5t173 207t194 161.5v4h-458v271h883v-232q-152 -109 -270 -219t-200 -216.5t-125 -204.5t-43 -181q0 -74 45 -122t135 -85l187 -69q109 -44 159 -104.5t50 -132.5q0 -49 -18.5 -99.5t-49.5 -101t-68.5 -100t-76.5 -95.5l-210 117l16 26 l34.5 57.5t36 65t16.5 44.5q0 31 -27 48t-76 34l-145 54q-71 26 -132 67t-105 94.5t-70 122t-26 152.5z" />
<glyph unicode="&#x3b7;" horiz-adv-x="1184" d="M129 0v1065h308v-89h4q49 46 123 72.5t135 26.5q175 0 265 -96.5t90 -286.5v-692h-305v628q0 82 -43 123t-109 41q-69 0 -114.5 -41t-45.5 -123v-628h-308z" />
<glyph unicode="&#x3b8;" horiz-adv-x="1130" d="M78 768q0 109 6 194t15.5 151.5t24 116.5t30.5 86q56 120 167.5 183.5t259.5 63.5q129 0 221.5 -46t151.5 -134q21 -33 40 -81t33 -121t21.5 -175.5t7.5 -242.5q0 -127 -7.5 -218t-20.5 -159t-29 -113t-35 -78q-66 -107 -175.5 -158.5t-234.5 -51.5q-122 0 -219 42 t-157 131q-49 75 -75.5 218t-24.5 392zM387 677q-4 -148 11 -222.5t30 -101.5q19 -41 54 -64.5t82 -23.5q64 0 100.5 29.5t53.5 85.5q2 8 6.5 25.5t10 51t7.5 86t2 134.5h-357zM387 903h355q0 80 -3.5 132.5t-9 85t-11.5 48t-10 27.5q-19 47 -57 69.5t-81 22.5 q-45 0 -81.5 -24.5t-58.5 -67.5q-6 -15 -14 -32t-13 -49.5t-9 -82t-7 -129.5z" />
<glyph unicode="&#x3b9;" horiz-adv-x="644" d="M133 312v753h306v-732q0 -43 20.5 -72t104.5 -29l-2 -249q-24 -2 -55 -2h-51q-117 0 -181 33t-96.5 82.5t-39 107.5t-6.5 108z" />
<glyph unicode="&#x3ba;" horiz-adv-x="1145" d="M129 0v1065h308v-364l4 -2l140 159l187 207h381l-407 -431l436 -634h-351l-285 421l-105 -113v-308h-308z" />
<glyph unicode="&#x3bb;" horiz-adv-x="1081" d="M21 0l390 1038l-48 162q-19 64 -49 90t-103 26h-21.5t-23.5 -2l-16 241q93 25 166 25q71 0 123.5 -18t90.5 -52.5t64 -81.5t44 -105l341 -1054q10 -35 30.5 -46.5t76.5 -11.5l8 -215q-43 -9 -80.5 -11t-61.5 -2q-69 0 -113.5 17t-74 46.5t-47.5 67.5t-31 83l-127 446h-13 l-129 -393l-84 -250h-312z" />
<glyph unicode="&#x3bc;" horiz-adv-x="1184" d="M129 -430l2 1495h308v-630q0 -82 44 -122t108 -40q69 0 113.5 40t44.5 122v630h307v-1063h-307v74l-9 4q-43 -43 -99 -65.5t-116 -22.5q-39 0 -86 10v-432h-310z" />
<glyph unicode="&#x3bd;" horiz-adv-x="1092" d="M8 1065h330l95 -287l111 -357h4l112 357l97 287h327l-417 -1065h-239z" />
<glyph unicode="&#x3be;" horiz-adv-x="941" d="M49 456q0 36 12.5 82.5t39 94.5t72.5 93.5t115 79.5l2 13q-56 24 -92 61.5t-58.5 79.5t-32.5 84t-10 74q0 99 40.5 181t108.5 139.5t158.5 89t188.5 31.5q33 0 82 -2t107.5 -15t122 -40t125.5 -76l-144 -224q-66 50 -137.5 70.5t-137.5 20.5q-53 0 -90 -17.5t-59.5 -43.5 t-33.5 -57t-11 -57q0 -88 62.5 -137.5t172.5 -49.5h202v-245h-265q-45 0 -84 -16t-68 -44.5t-45 -66.5t-16 -83q0 -46 15 -75t42 -50.5t65 -36.5t83 -35l207 -68q64 -21 102.5 -47t59 -56t28 -64t7.5 -70q0 -43 -20.5 -94.5t-51.5 -106t-71 -107.5t-79 -99l-211 127l18 25 q17 25 36.5 57.5t35.5 64.5t16 45q0 57 -104 90l-150 54q-69 25 -132 57t-113 80t-80 118t-30 171z" />
<glyph unicode="&#x3bf;" horiz-adv-x="1108" d="M71 533q3 82 15.5 161.5t40.5 138.5q56 120 174.5 182t268.5 62q123 0 224 -45t160 -133q46 -66 66.5 -161t17.5 -211q0 -105 -21.5 -188t-59.5 -148q-67 -107 -177.5 -156.5t-237.5 -49.5q-125 0 -222.5 40.5t-157.5 128.5q-50 72 -71.5 167.5t-19.5 211.5zM385 529 q0 -55 6.5 -99.5t23.5 -76.5q19 -41 53.5 -64.5t81.5 -23.5q56 0 96 29.5t58 85.5q6 24 12 62t6 91q2 60 -6 106.5t-19 70.5q-19 47 -57 69.5t-81 22.5q-46 0 -83 -24.5t-59 -67.5q-17 -35 -23.5 -80t-8.5 -101z" />
<glyph unicode="&#x3c0;" horiz-adv-x="1165" d="M114 0v1063h927v-1063h-308v802h-312v-802h-307z" />
<glyph unicode="&#x3c1;" horiz-adv-x="1135" d="M105 -430v963q2 82 13 163.5t34 130.5q56 121 174.5 185.5t268.5 64.5q123 0 224.5 -47t161.5 -135q45 -67 65.5 -159.5t18.5 -208.5q0 -105 -21.5 -188t-60.5 -148q-66 -107 -158 -154t-191 -47q-58 0 -114 14.5t-99 57.5l-8 -2v-490h-308zM411 529q0 -55 6 -99.5 t24 -76.5q19 -41 53.5 -64.5t81.5 -23.5q56 0 96 29.5t57 85.5q6 24 13 62t7 91q2 60 -7 106.5t-20 70.5q-18 47 -56 69.5t-81 22.5q-45 0 -83 -24.5t-59 -67.5q-17 -35 -23.5 -80t-8.5 -101z" />
<glyph unicode="&#x3c2;" horiz-adv-x="1034" d="M103 521q0 139 42 243t113 174.5t163 104.5t194 34q112 0 221.5 -37.5t197.5 -116.5l-185 -217q-53 49 -113.5 68.5t-101.5 19.5q-103 0 -163 -67t-60 -196q0 -90 34.5 -150.5t135.5 -101.5l180 -72q109 -43 159 -101.5t50 -131.5q0 -50 -17 -100t-46 -100.5t-67 -100 t-77 -94.5l-211 115l16 23q15 23 32 53t31 61t14 48q0 24 -14 45.5t-85 45.5q-133 43 -219.5 97t-135.5 121.5t-68.5 149.5t-19.5 183z" />
<glyph unicode="&#x3c3;" horiz-adv-x="1145" d="M76 533q2 82 14.5 154t40.5 130q56 121 174 184.5t269 63.5h538v-238h-174v-10q60 -45 83.5 -123.5t21.5 -166.5q0 -105 -21.5 -188t-60.5 -148q-66 -107 -177 -156.5t-238 -49.5q-125 0 -222.5 43t-157.5 132q-95 137 -90 373zM390 538q0 -56 6 -104.5t23 -80.5 q19 -41 53.5 -64.5t81.5 -23.5q56 0 96 29.5t58 85.5q6 24 12.5 66t6.5 96q2 60 -6.5 101t-19.5 65q-19 47 -56.5 69.5t-80.5 22.5q-45 0 -83 -24.5t-60 -67.5q-17 -35 -23 -75t-8 -95z" />
<glyph unicode="&#x3c4;" horiz-adv-x="810" d="M30 827v238h758v-238h-236v-451q0 -62 22.5 -83.5t70.5 -21.5h59v-271h-158q-129 0 -215 75t-86 211v541h-215z" />
<glyph unicode="&#x3c5;" horiz-adv-x="1184" d="M129 394v671h308v-626q0 -82 44 -122t112 -40q66 0 112 40t46 122v626h305v-671q0 -93 -35.5 -168.5t-97 -128t-147.5 -80t-185 -27.5q-96 0 -180 28.5t-146 81t-99 128t-37 166.5z" />
<glyph unicode="&#x3c6;" horiz-adv-x="1476" d="M82 533q0 58 4 115.5t19.5 111t45.5 104t83 97.5q31 26 66 47.5t80 38.5l110 -273q-49 -17 -75 -62q-13 -24 -18 -59.5t-5 -121.5q0 -43 6 -90t26.5 -86t58.5 -64.5t100 -25.5h2v810h305q31 0 75 -3t92.5 -14t97.5 -32.5t90 -57.5q54 -47 83 -99t43 -106.5t16 -113 t2 -116.5q0 -137 -20.5 -219t-69.5 -144q-72 -90 -175.5 -131t-233.5 -49v-420h-305q0 186 -1 276t-1 121v23q-136 8 -238 48t-173 132q-49 62 -69.5 150t-20.5 213zM890 265q62 0 100 25.5t57.5 64.5t25.5 86t6 90q0 86 -8 129.5t-17 59.5q-26 43 -70 60.5t-94 17.5v-533z " />
<glyph unicode="&#x3c7;" horiz-adv-x="1156" d="M15 0l406 542l-391 523h368l178 -293l179 293h370l-394 -523l410 -542h-371l-194 306l-191 -306h-370z" />
<glyph unicode="&#x3c8;" horiz-adv-x="1530" d="M127 441v624h308v-589q0 -60 18 -98t45 -60.5t57 -33.5t56 -15v839h307v-839q28 4 59.5 14t58.5 32.5t45 61t18 99.5v589h307v-624q0 -119 -46 -201t-118 -136.5t-158 -81t-166 -30.5v-427h-307v429q-84 2 -170 29.5t-156 83t-114 138t-44 196.5z" />
<glyph unicode="&#x3c9;" horiz-adv-x="1627" d="M86 536q0 98 20.5 191.5t71 168t133.5 122t210 57.5l45 -287q-105 -17 -138.5 -82.5t-33.5 -180.5q0 -33 2 -77t14.5 -84t41 -66.5t79.5 -26.5q60 0 99 37.5t39 124.5v277h297v-277q0 -87 38.5 -124.5t99.5 -37.5q51 0 79 26.5t42 66.5t16 84t2 77q0 58 -5 104 t-23.5 79.5t-53 53.5t-90.5 26l39 287q135 -4 221.5 -51.5t134.5 -122t66.5 -170t18.5 -195.5q0 -117 -23.5 -217t-75.5 -171.5t-134.5 -113.5t-203.5 -42q-94 0 -167.5 44t-115.5 118h-8q-43 -75 -113 -118.5t-160 -43.5q-129 0 -217 38.5t-143 109.5t-79.5 172t-24.5 224z " />
<glyph unicode="&#x3ca;" horiz-adv-x="644" d="M-119 1223v281h319v-281h-319zM133 312v753h306v-732q0 -43 20.5 -72t104.5 -29l-2 -249q-24 -2 -55 -2h-51q-117 0 -181 33t-96.5 82.5t-39 107.5t-6.5 108zM351 1223v281h320v-281h-320z" />
<glyph unicode="&#x3cb;" horiz-adv-x="1184" d="M129 394v671h308v-626q0 -82 44 -122t112 -40q66 0 112 40t46 122v626h305v-671q0 -93 -35.5 -168.5t-97 -128t-147.5 -80t-185 -27.5q-96 0 -180 28.5t-146 81t-99 128t-37 166.5zM189 1223v281h318v-281h-318zM658 1223v281h321v-281h-321z" />
<glyph unicode="&#x3cc;" horiz-adv-x="1108" d="M71 533q3 82 15.5 161.5t40.5 138.5q56 120 174.5 182t268.5 62q123 0 224 -45t160 -133q46 -66 66.5 -161t17.5 -211q0 -105 -21.5 -188t-59.5 -148q-67 -107 -177.5 -156.5t-237.5 -49.5q-125 0 -222.5 40.5t-157.5 128.5q-50 72 -71.5 167.5t-19.5 211.5zM385 529 q0 -55 6.5 -99.5t23.5 -76.5q19 -41 53.5 -64.5t81.5 -23.5q56 0 96 29.5t58 85.5q6 24 12 62t6 91q2 60 -6 106.5t-19 70.5q-19 47 -57 69.5t-81 22.5q-46 0 -83 -24.5t-59 -67.5q-17 -35 -23.5 -80t-8.5 -101zM400 1219l183 437l285 -93l-289 -408z" />
<glyph unicode="&#x3cd;" horiz-adv-x="1184" d="M129 394v671h308v-626q0 -82 44 -122t112 -40q66 0 112 40t46 122v626h305v-671q0 -93 -35.5 -168.5t-97 -128t-147.5 -80t-185 -27.5q-96 0 -180 28.5t-146 81t-99 128t-37 166.5zM439 1219l183 437l285 -93l-290 -408z" />
<glyph unicode="&#x3ce;" horiz-adv-x="1627" d="M86 536q0 98 20.5 191.5t71 168t133.5 122t210 57.5l45 -287q-105 -17 -138.5 -82.5t-33.5 -180.5q0 -33 2 -77t14.5 -84t41 -66.5t79.5 -26.5q60 0 99 37.5t39 124.5v277h297v-277q0 -87 38.5 -124.5t99.5 -37.5q51 0 79 26.5t42 66.5t16 84t2 77q0 58 -5 104 t-23.5 79.5t-53 53.5t-90.5 26l39 287q135 -4 221.5 -51.5t134.5 -122t66.5 -170t18.5 -195.5q0 -117 -23.5 -217t-75.5 -171.5t-134.5 -113.5t-203.5 -42q-94 0 -167.5 44t-115.5 118h-8q-43 -75 -113 -118.5t-160 -43.5q-129 0 -217 38.5t-143 109.5t-79.5 172t-24.5 224z M660 1219l183 437l286 -93l-290 -408z" />
<glyph unicode="&#x401;" horiz-adv-x="1257" d="M150 0v1496h1059v-296h-727v-303h619v-286h-619v-314h727v-297h-1059zM281 1600v286h330v-286h-330zM744 1600v286h327v-286h-327z" />
<glyph unicode="&#x402;" horiz-adv-x="1676" d="M17 1211v285h1249v-285h-524v-308h9q30 26 69.5 47.5t83.5 36.5t88 24t83 9q105 0 194.5 -33t156 -96.5t104.5 -159t38 -224.5q0 -121 -32 -223.5t-101.5 -178t-178.5 -118.5t-267 -43h-26t-27 2v265q154 0 224 77t70 213q0 45 -15 88t-44.5 75.5t-74.5 51.5t-105 19 q-55 0 -121 -21.5t-128 -89.5v-624h-329v1211h-396z" />
<glyph unicode="&#x403;" horiz-adv-x="1216" d="M150 0v1496h1059v-296h-727v-1200h-332zM476 1724l386 276l194 -230l-461 -194z" />
<glyph unicode="&#x404;" horiz-adv-x="1289" d="M97 572v353q0 117 35.5 222t107.5 185.5t180.5 128t254.5 47.5q215 0 358 -104.5t200 -276.5l-315 -112q-17 78 -79.5 130.5t-165.5 52.5q-62 0 -107 -20.5t-75.5 -55t-45.5 -78.5t-15 -90v-57h409v-286h-409v-63q0 -49 15 -94.5t45.5 -79.5t75.5 -55.5t107 -21.5 q101 0 164.5 52.5t80.5 134.5l315 -121q-56 -176 -201.5 -276t-356.5 -100q-146 0 -254.5 43.5t-180.5 120.5t-107.5 184.5t-35.5 236.5z" />
<glyph unicode="&#x405;" horiz-adv-x="1276" d="M17 193l192 254q105 -94 212.5 -125.5t223.5 -31.5q109 0 167 44t58 105q0 28 -6 54t-27.5 48.5t-62.5 38t-107 22.5q-107 10 -206.5 34t-176.5 74.5t-123.5 131.5t-46.5 207q0 119 46.5 206t120.5 143.5t166.5 84t184.5 27.5q138 0 273.5 -30.5t255.5 -109.5l-152 -264 q-53 34 -106.5 53t-101.5 30t-89 14t-72 3q-61 0 -99 -13t-60.5 -34.5t-30 -46t-7.5 -45.5q0 -37 14 -60.5t49.5 -41t97 -30t153.5 -28.5q92 -15 176 -43.5t147.5 -80.5t101 -130.5t37.5 -192.5q0 -117 -51.5 -205.5t-134.5 -148t-189.5 -89.5t-215.5 -30q-76 0 -153 7.5 t-154.5 30t-154 63.5t-149.5 105z" />
<glyph unicode="&#x406;" horiz-adv-x="632" d="M158 0v1496h330v-1496h-330z" />
<glyph unicode="&#x407;" horiz-adv-x="632" d="M-101 1609v279h318v-279h-318zM158 0v1496h330v-1496h-330zM368 1609v279h320v-279h-320z" />
<glyph unicode="&#x408;" horiz-adv-x="1098" d="M6 189l222 217q56 -62 112 -89t101 -27q28 0 62.5 8t64 30.5t49 63.5t19.5 107v997h328v-1012q0 -142 -42 -238t-111 -152.5t-160.5 -80t-190.5 -23.5q-66 0 -128.5 8t-121 30.5t-110 61.5t-94.5 99z" />
<glyph unicode="&#x409;" horiz-adv-x="2111" d="M26 240q97 19 151.5 66t81.5 120t34.5 171t7.5 224v675h936v-573h304q130 0 228 -38t162.5 -100.5t96.5 -141.5t32 -165q0 -224 -138.5 -351t-386.5 -127h-630v1198h-298v-357q0 -172 -17.5 -327t-73.5 -273t-161 -190t-284 -79zM1235 297h294q105 0 150 51.5t45 115.5 q0 62 -45 112t-150 50h-294v-329z" />
<glyph unicode="&#x40a;" horiz-adv-x="2029" d="M133 0v1496h331v-573h371v573h331v-573h305q129 0 227 -38t162.5 -100.5t96.5 -141.5t32 -165q0 -224 -138.5 -351t-385.5 -127h-630v626h-371v-626h-331zM1163 297h295q105 0 150.5 51.5t45.5 115.5q0 62 -45.5 112t-150.5 50h-295v-329z" />
<glyph unicode="&#x40b;" horiz-adv-x="1657" d="M17 1211v285h1249v-285h-524v-308h9q60 51 151 84t184 33q221 0 338 -112t117 -301v-607h-328v511q0 45 -8.5 85t-34.5 71.5t-70 49.5t-115 18q-54 0 -123.5 -29t-119.5 -82v-624h-329v1211h-396z" />
<glyph unicode="&#x40c;" horiz-adv-x="1401" d="M152 0v1498h330v-599h148q35 0 74.5 6t76 29t69 66t53.5 118l121 374h320l-135 -436q-31 -105 -82.5 -177.5t-120.5 -100.5l-2 -6q90 -31 141 -108t80 -184l145 -480h-338l-114 380q-24 74 -53.5 120t-65.5 70.5t-75.5 33.5t-83.5 9h-158v-613h-330zM486 1724l387 276 l194 -230l-460 -194z" />
<glyph unicode="&#x40e;" horiz-adv-x="1268" d="M26 1496h361l132 -404l117 -361h11l108 353l127 412h351l-400 -1088q-45 -120 -86 -204.5t-90.5 -139t-112 -78t-150.5 -23.5h-158v271h119q49 0 74 21.5t42 58.5l13 28zM314 1896h215q0 -21 7.5 -45.5t22.5 -47t38 -38t52 -15.5q30 0 52.5 15.5t38 38t23 47t7.5 45.5 h215q-6 -49 -24.5 -109t-56.5 -113t-100.5 -88t-154.5 -35q-93 0 -154.5 35t-99.5 88t-56.5 113t-24.5 109z" />
<glyph unicode="&#x40f;" horiz-adv-x="1449" d="M150 0v1496h332v-1197h490v1197h327v-1496h-421v-383h-297v383h-431z" />
<glyph unicode="&#x410;" horiz-adv-x="1418" d="M-4 0l580 1496h261l581 -1496h-349l-112 306h-501l-112 -306h-348zM559 585h295l-56 172l-88 297h-9l-86 -293z" />
<glyph unicode="&#x411;" horiz-adv-x="1309" d="M114 0v1496h992v-296h-661v-277h306q129 0 226.5 -38t163 -100.5t97.5 -141.5t32 -165q0 -224 -138.5 -351t-384.5 -127h-633zM445 297h295q105 0 150.5 51.5t45.5 115.5q0 62 -45.5 112t-150.5 50h-295v-329z" />
<glyph unicode="&#x412;" horiz-adv-x="1369" d="M150 0v1496h630q119 0 211.5 -31t156 -86.5t95.5 -134t32 -171.5q0 -82 -42.5 -164t-144.5 -129v-8q51 -19 90 -56t65.5 -82t41 -94.5t14.5 -94.5q0 -101 -38 -182.5t-101.5 -140t-148 -90.5t-178.5 -32h-683zM482 297h281q105 0 150.5 49.5t45.5 113.5q0 32 -10.5 62 t-34.5 54t-61.5 38t-89.5 14h-281v-331zM482 901h253q103 0 146.5 47.5t43.5 109.5t-43 102t-147 40h-253v-299z" />
<glyph unicode="&#x413;" horiz-adv-x="1216" d="M150 0v1496h1059v-296h-727v-1200h-332z" />
<glyph unicode="&#x414;" horiz-adv-x="1625" d="M43 275l164 35q39 34 64.5 73.5t42.5 101t27 154t18 234.5l33 623h1016v-1201h153v-641h-275v346h-966v-346h-277v621zM550 295h532v903h-409l-19 -346q-4 -70 -9 -147t-15 -151t-28.5 -142t-51.5 -117z" />
<glyph unicode="&#x415;" horiz-adv-x="1257" d="M150 0v1496h1059v-296h-727v-303h619v-286h-619v-314h727v-297h-1059z" />
<glyph unicode="&#x416;" horiz-adv-x="2150" d="M43 0l144 480q30 105 78.5 181t136.5 109l2 8q-66 28 -118 100t-81 178l-136 436h321l119 -374q21 -75 53.5 -118t69.5 -66t76 -29t74 -6h127v599h332v-599h127q35 0 74.5 6t76 29t68.5 66t54 118l120 374h320l-135 -436q-31 -105 -82.5 -177.5t-119.5 -100.5l4 -8 q86 -33 135.5 -109t80.5 -181l143 -480h-337l-114 380q-24 74 -54 120t-65 70.5t-75 33.5t-83 9h-138v-613h-332v613h-137q-43 0 -83 -9t-75 -33.5t-65 -70.5t-54 -120l-115 -380h-337z" />
<glyph unicode="&#x417;" horiz-adv-x="1285" d="M47 346l304 128q28 -70 103 -123.5t174 -53.5t167.5 47.5t68.5 133.5q0 80 -56.5 121t-138.5 41h-189v276h201q76 0 127.5 41t51.5 103q0 41 -17.5 68t-44 44.5t-62 24.5t-73.5 7q-103 0 -174.5 -48t-103.5 -118l-282 152q71 146 210 236t352 90q109 0 205 -24.5 t168 -75.5t113 -128t41 -182q0 -37 -9 -79t-32.5 -85t-65.5 -83t-111 -67l2 -12q67 -19 110 -59t68.5 -87t35.5 -96.5t10 -90.5q0 -120 -48 -206.5t-129 -142t-184.5 -82t-210.5 -26.5q-213 0 -366 94t-215 262z" />
<glyph unicode="&#x418;" horiz-adv-x="1526" d="M152 0v1496h332v-937h6l308 479l314 458h273v-1496h-331v905h-7l-220 -355l-380 -550h-295z" />
<glyph unicode="&#x419;" horiz-adv-x="1526" d="M152 0v1496h332v-937h6l308 479l314 458h273v-1496h-331v905h-7l-220 -355l-380 -550h-295zM439 1925h215q0 -21 7.5 -46.5t22.5 -48t37.5 -37t52.5 -14.5t52.5 14.5t38 37t23 47.5t7.5 47h215q-6 -50 -24.5 -110t-56.5 -112.5t-100.5 -88.5t-154.5 -36q-93 0 -155.5 36 t-99.5 88.5t-55.5 112.5t-24.5 110z" />
<glyph unicode="&#x41a;" horiz-adv-x="1401" d="M152 0v1498h330v-599h148q35 0 74.5 6t76 29t69 66t53.5 118l121 374h320l-135 -436q-31 -105 -82.5 -177.5t-120.5 -100.5l-2 -6q90 -31 141 -108t80 -184l145 -480h-338l-114 380q-24 74 -53.5 120t-65.5 70.5t-75.5 33.5t-83.5 9h-158v-613h-330z" />
<glyph unicode="&#x41b;" horiz-adv-x="1474" d="M43 240q97 19 152 66t81.5 120t34 171t7.5 224v675h985v-1496h-327v1198h-352v-357q0 -172 -17.5 -327t-73 -273t-161 -190t-284.5 -79z" />
<glyph unicode="&#x41c;" horiz-adv-x="1681" d="M150 0v1496h299l203 -433l193 -450h9l187 450l198 433h312v-1496h-330v712l-6 2l-136 -303l-100 -211h-255l-104 221l-132 293l-6 -6v-708h-332z" />
<glyph unicode="&#x41d;" horiz-adv-x="1449" d="M150 0v1496h332v-599h490v599h327v-1496h-327v611h-490v-611h-332z" />
<glyph unicode="&#x41e;" horiz-adv-x="1340" d="M88 572v353q0 117 36 222t107.5 185.5t180.5 128t255 47.5q135 0 244 -44t185 -122t117 -185.5t41 -231.5v-353q0 -133 -42 -241.5t-118.5 -185t-185 -117.5t-241.5 -41q-146 0 -255 47.5t-180.5 128t-107.5 187t-36 222.5zM421 548q0 -49 15.5 -94.5t45 -79.5t75 -55.5 t108.5 -21.5q120 0 185.5 72t65.5 179v406q0 99 -65.5 171.5t-185.5 72.5q-62 0 -108 -20.5t-75.5 -55t-45 -78.5t-15.5 -90v-406z" />
<glyph unicode="&#x41f;" horiz-adv-x="1449" d="M150 0v1496h1149v-1496h-327v1198h-490v-1198h-332z" />
<glyph unicode="&#x420;" horiz-adv-x="1309" d="M150 0v1496h618q118 0 214.5 -33t165.5 -95.5t107 -151.5t38 -201q0 -100 -41 -186.5t-111 -149t-164.5 -98t-202.5 -35.5h-292v-546h-332zM482 843h277q82 0 140 48.5t58 130.5q0 90 -54 134t-152 44h-269v-357z" />
<glyph unicode="&#x421;" horiz-adv-x="1289" d="M97 572v353q0 117 35.5 222t107.5 185.5t180.5 128t254.5 47.5q215 0 358 -104.5t200 -276.5l-315 -112q-17 78 -79.5 130.5t-165.5 52.5q-62 0 -107 -20.5t-75.5 -55t-45.5 -78.5t-15 -90v-406q0 -49 15 -94.5t45.5 -79.5t75.5 -55.5t107 -21.5q101 0 164.5 52.5 t80.5 134.5l315 -121q-56 -176 -201.5 -276t-356.5 -100q-146 0 -254.5 43.5t-180.5 120.5t-107.5 184.5t-35.5 236.5z" />
<glyph unicode="&#x422;" horiz-adv-x="1194" d="M17 1200v296h1146v-296h-408v-1200h-329v1200h-409z" />
<glyph unicode="&#x423;" horiz-adv-x="1268" d="M26 1496h361l132 -404l117 -361h11l108 353l127 412h351l-400 -1088q-45 -120 -86 -204.5t-90.5 -139t-112 -78t-150.5 -23.5h-158v271h119q49 0 74 21.5t42 58.5l13 28z" />
<glyph unicode="&#x424;" horiz-adv-x="1683" d="M97 761q0 127 37.5 241t111.5 201t185 138.5t257 56.5v98h307v-98q155 -11 269.5 -61.5t188.5 -133.5t108.5 -194.5t34.5 -247.5q0 -127 -41 -240t-117.5 -198t-188.5 -134t-254 -51v-138h-307v138q-152 12 -264 64t-185 133.5t-107.5 190t-34.5 235.5zM415 763 q0 -75 13 -138t43 -111t83 -78t134 -38v733q-148 -19 -212.5 -112.5t-60.5 -255.5zM995 398q93 6 149 36t86 79t39 112t9 138q0 58 -10 121.5t-41 118.5t-86 91.5t-146 40.5v-737z" />
<glyph unicode="&#x425;" horiz-adv-x="1352" d="M0 0l507 765l-479 731h376l267 -449l269 449h376l-479 -731l509 -765h-376l-299 486l-297 -486h-374z" />
<glyph unicode="&#x426;" horiz-adv-x="1537" d="M150 0v1496h332v-1197h490v1197h327v-1201h195v-641h-275v346h-1069z" />
<glyph unicode="&#x427;" horiz-adv-x="1391" d="M119 1000v498h322v-455q0 -237 232 -237q26 0 59 4.5t67 10.5t63.5 16t53.5 21v640h325v-1496h-327v605q-67 -37 -157 -51t-174 -14q-91 0 -175 23.5t-148.5 77.5t-102.5 140.5t-38 216.5z" />
<glyph unicode="&#x428;" horiz-adv-x="2054" d="M150 0v1496h332v-1197h382v1197h332v-1197h382v1197h328v-1496h-1756z" />
<glyph unicode="&#x429;" horiz-adv-x="2145" d="M150 0v1496h332v-1197h382v1197h332v-1197h382v1197h330v-1201h195v-641h-275v346h-1678z" />
<glyph unicode="&#x42a;" horiz-adv-x="1638" d="M28 1200v296h754v-573h306q129 0 227 -38t162 -100.5t96.5 -141.5t32.5 -165q0 -224 -138.5 -351t-385.5 -127h-630v1200h-424zM780 297h295q105 0 150 51.5t45 115.5q0 62 -45 112t-150 50h-295v-329z" />
<glyph unicode="&#x42b;" horiz-adv-x="1906" d="M150 0v1496h332v-573h308q129 0 225.5 -38t161 -100.5t96.5 -141.5t32 -165q0 -224 -138.5 -351t-386.5 -127h-630zM480 297h294q105 0 150.5 51.5t45.5 115.5q0 62 -45 112t-151 50h-294v-329zM1426 0v1496h331v-1496h-331z" />
<glyph unicode="&#x42c;" horiz-adv-x="1334" d="M150 0v1496h332v-573h303q130 0 227.5 -38t163 -100.5t97.5 -141.5t32 -165q0 -224 -138.5 -351t-386.5 -127h-630zM480 297h294q105 0 150.5 51.5t45.5 115.5q0 62 -45 112t-151 50h-294v-329z" />
<glyph unicode="&#x42d;" horiz-adv-x="1348" d="M80 368l314 120q24 -84 80.5 -135.5t157.5 -51.5q62 0 109 21.5t77.5 56t47 79.5t16.5 94v68h-408v285h408v54q0 43 -10 86t-37 78.5t-73 57t-119 21.5q-93 0 -160.5 -53t-84.5 -129l-314 111q56 172 204.5 276.5t363.5 104.5q154 0 262 -47t174.5 -128t96.5 -186.5 t30 -221.5v-353q0 -129 -37 -236.5t-110 -184.5t-182.5 -120t-255.5 -43q-211 0 -353 99.5t-197 276.5z" />
<glyph unicode="&#x42e;" horiz-adv-x="1833" d="M135 0v1496h331v-599h156v28q0 117 33 222t101.5 185.5t175 128t252.5 47.5q144 0 249.5 -44t174.5 -122t102.5 -185.5t33.5 -231.5v-353q0 -133 -39 -241.5t-111 -185t-177.5 -117.5t-238.5 -41q-146 0 -251.5 47.5t-173 128t-99.5 187t-32 222.5v39h-156v-611h-331z M954 548q0 -49 12.5 -94.5t38 -79.5t67.5 -55.5t104 -21.5q121 0 175.5 72t54.5 179v406q0 99 -53.5 171.5t-172.5 72.5q-62 0 -105 -20.5t-69.5 -55t-39 -78.5t-12.5 -90v-406z" />
<glyph unicode="&#x42f;" horiz-adv-x="1410" d="M76 0l113 415q21 77 64.5 146t133.5 97q-64 19 -112.5 58t-80.5 91.5t-47.5 114t-15.5 125.5q0 107 39 191.5t104.5 141t154 86.5t186.5 30h645v-1496h-331v604h-151q-41 0 -76 -10.5t-66.5 -38.5t-58.5 -76.5t-50 -121.5l-104 -357h-347zM476 1034q0 -84 57.5 -115 t147.5 -31h248v314h-258q-92 0 -143.5 -42t-51.5 -126z" />
<glyph unicode="&#x430;" horiz-adv-x="1108" d="M76 316q0 66 25.5 126.5t74 105.5t120.5 71t164 26h241v34q0 17 -5.5 40t-23.5 42t-53.5 33t-95.5 14q-74 0 -136.5 -18t-115.5 -66l-148 209q96 89 207 115.5t224 26.5q93 0 176 -17t144.5 -59t96.5 -112t35 -175v-712h-305v99l-6 2q-28 -33 -63 -54t-70 -34t-69.5 -18 t-59.5 -5q-78 0 -143.5 19t-113 58.5t-74 101t-26.5 147.5zM370 342q0 -10 5 -26.5t20.5 -32.5t44 -28t77.5 -12q71 0 127.5 34.5t56.5 109.5v34h-202q-41 0 -67 -7.5t-40 -19t-18 -25.5t-4 -27z" />
<glyph unicode="&#x431;" horiz-adv-x="1108" d="M69 593q5 150 14 250.5t16 132.5q34 175 136.5 295t295.5 192q62 24 151.5 49t207.5 68l91 -236q-97 -37 -156.5 -57.5t-93.5 -32.5q-97 -37 -158.5 -65t-98.5 -62.5t-54.5 -79.5t-23.5 -114q2 0 4 -2q49 56 117 75.5t113 19.5q123 0 195 -40t121 -108q49 -66 70.5 -155 t21.5 -181q0 -236 -98 -380q-60 -86 -159.5 -131.5t-238.5 -45.5q-76 0 -131.5 9.5t-96.5 26t-71 38t-52 46.5q-69 78 -95.5 203t-26.5 285zM385 505q0 -58 11.5 -107t40.5 -82q41 -49 117 -49q43 0 77 16t55 50q19 30 27.5 74.5t8.5 99.5q0 54 -7 99.5t-27 74.5 q-41 68 -134 68q-86 0 -131 -70q-21 -34 -29.5 -79.5t-8.5 -94.5z" />
<glyph unicode="&#x432;" horiz-adv-x="1117" d="M119 0v1065h539q198 0 294.5 -85t96.5 -221q0 -53 -30 -113.5t-112 -95.5q39 -12 69 -38t50.5 -57.5t31.5 -64.5t11 -61q0 -74 -28 -134t-79 -104t-121.5 -67.5t-156.5 -23.5h-565zM426 267h217q66 0 89 25.5t23 58.5q0 32 -22.5 57t-89.5 25h-217v-166zM426 643h200 q66 0 87.5 25.5t21.5 55.5q0 37 -24.5 57.5t-84.5 20.5h-200v-159z" />
<glyph unicode="&#x433;" horiz-adv-x="977" d="M117 0v1065h862v-263h-558v-802h-304z" />
<glyph unicode="&#x434;" horiz-adv-x="1328" d="M43 250l135 25q31 28 52.5 54t35 60t23.5 83t17 121l36 472h809v-796h135v-575h-266v306h-710v-306h-267v556zM503 267h344v537h-252l-14 -193q-9 -97 -23 -193t-55 -151z" />
<glyph unicode="&#x435;" horiz-adv-x="1145" d="M76 529q0 150 42 254.5t110.5 169t155.5 93.5t178 29q127 0 219 -41t152 -113t89 -173t29 -221v-75h-657q10 -103 55.5 -145t122.5 -42q41 0 108 19t133 79l189 -211q-103 -94 -219 -129.5t-219 -35.5q-88 0 -175.5 25t-157 86.5t-112.5 165.5t-43 265zM404 649h316 q-8 73 -53 113t-103 40t-103.5 -41t-56.5 -112z" />
<glyph unicode="&#x436;" horiz-adv-x="1758" d="M54 0l106 342q21 76 57.5 130.5t104.5 75.5v8q-55 19 -93 71t-59 126l-96 310h302l78 -252q14 -52 36.5 -82t50 -46t54.5 -20.5t52 -4.5h80v407h305v-407h80q26 0 53 4.5t53.5 20.5t49 46t37.5 82l78 252h303l-97 -310q-21 -74 -59 -125.5t-94 -71.5v-8q70 -21 106 -76 t58 -130l105 -342h-316l-73 252q-35 103 -85.5 133t-110.5 30h-88v-415h-305v415h-89q-59 0 -109.5 -30t-85.5 -133l-73 -252h-316z" />
<glyph unicode="&#x437;" horiz-adv-x="993" d="M21 152l168 199q19 -19 49.5 -37.5t68 -31.5t76 -21.5t73.5 -8.5q75 0 115 29t40 65q0 52 -44 69.5t-99 17.5h-154v212h176q54 0 80.5 27t26.5 57q0 84 -143 84q-43 0 -114 -21.5t-121 -58.5l-137 209q84 69 192.5 105.5t211.5 36.5q195 0 307 -77.5t112 -232.5 q0 -21 -8.5 -52.5t-26.5 -62.5t-48 -60t-73 -49l-2 -10q51 -15 84 -42t52.5 -58.5t27 -63.5t7.5 -58q0 -82 -35.5 -144.5t-95.5 -103t-139.5 -60.5t-167.5 -20q-150 0 -256.5 35t-202.5 127z" />
<glyph unicode="&#x438;" horiz-adv-x="1225" d="M119 0v1065h300v-616h7l226 316l216 300h248v-1065h-299v591h-9l-174 -245l-251 -346h-264z" />
<glyph unicode="&#x439;" horiz-adv-x="1225" d="M119 0v1065h300v-616h7l226 316l216 300h248v-1065h-299v591h-9l-174 -245l-251 -346h-264zM279 1553h216q0 -21 7 -46t22.5 -48t38 -38t52.5 -15q31 0 53 15t37 38t22.5 47.5t7.5 46.5h215q-6 -49 -24.5 -109.5t-55.5 -113t-99.5 -88.5t-155.5 -36q-92 0 -154.5 36 t-100.5 88.5t-56 113t-25 109.5z" />
<glyph unicode="&#x43a;" horiz-adv-x="1167" d="M123 0v1060h307v-404h91q26 0 52.5 4.5t53.5 20.5t49.5 47t37.5 83l78 252h302l-96 -310q-22 -74 -59.5 -125.5t-93.5 -71.5v-8q70 -21 106 -76t58 -130l105 -342h-316l-74 252q-34 103 -84.5 133t-110.5 30h-99v-415h-307z" />
<glyph unicode="&#x43b;" horiz-adv-x="1182" d="M45 200q74 14 118 43.5t65.5 75.5t27.5 112t6 154v480h805v-1065h-306v798h-230v-205q0 -127 -18 -238.5t-66.5 -193t-136.5 -129t-226 -47.5z" />
<glyph unicode="&#x43c;" horiz-adv-x="1367" d="M111 0v1065h265l162 -289l143 -269h3l135 269l160 289h277v-1065h-297v478h-5l-86 -179l-80 -159h-205l-84 159l-86 179h-5v-478h-297z" />
<glyph unicode="&#x43d;" horiz-adv-x="1190" d="M117 0v1065h302v-411h355v411h301v-1065h-301v417h-355v-417h-302z" />
<glyph unicode="&#x43e;" horiz-adv-x="1108" d="M71 533q3 82 15.5 161.5t40.5 138.5q56 120 174.5 182t268.5 62q123 0 224 -45t160 -133q46 -66 66.5 -161t17.5 -211q0 -105 -21.5 -188t-59.5 -148q-67 -107 -177.5 -156.5t-237.5 -49.5q-125 0 -222.5 40.5t-157.5 128.5q-50 72 -71.5 167.5t-19.5 211.5zM385 529 q0 -55 6.5 -99.5t23.5 -76.5q19 -41 53.5 -64.5t81.5 -23.5q56 0 96 29.5t58 85.5q6 24 12 62t6 91q2 60 -6 106.5t-19 70.5q-19 47 -57 69.5t-81 22.5q-46 0 -83 -24.5t-59 -67.5q-17 -35 -23.5 -80t-8.5 -101z" />
<glyph unicode="&#x43f;" horiz-adv-x="1165" d="M114 0v1063h927v-1063h-308v802h-312v-802h-307z" />
<glyph unicode="&#x440;" horiz-adv-x="1145" d="M135 -435v1500h306v-76l6 -2q45 49 109 67.5t121 18.5q138 0 216.5 -54.5t117 -136.5t47.5 -180t9 -183q0 -82 -15.5 -175.5t-58.5 -173.5t-122 -131.5t-211 -51.5q-53 0 -116.5 24t-96.5 73l-6 -2v-517h-306zM441 529q0 -41 4 -87t20.5 -85t46.5 -64.5t83 -25.5 q54 0 85.5 24.5t47.5 63.5t20.5 85t4.5 89q0 41 -3 87.5t-18.5 86t-47.5 65.5t-89 26q-55 0 -85 -27t-46.5 -67t-19.5 -86t-3 -85z" />
<glyph unicode="&#x441;" horiz-adv-x="995" d="M60 531q0 144 42 246.5t113 169t163.5 97.5t191.5 31q109 0 201.5 -36.5t174.5 -117.5l-197 -209q-50 47 -94 67.5t-85 20.5q-92 0 -141 -62.5t-49 -206.5q0 -141 43 -202.5t141 -61.5q43 0 90 20.5t99 69.5l201 -207q-88 -80 -189.5 -121.5t-212.5 -41.5 q-98 0 -187.5 31t-157 98t-107.5 170.5t-40 244.5z" />
<glyph unicode="&#x442;" horiz-adv-x="1001" d="M26 802v263h933v-263h-312v-802h-307v802h-314z" />
<glyph unicode="&#x443;" horiz-adv-x="1079" d="M0 1065h329l104 -304l103 -335h8l101 331l108 308h326l-482 -1272q-49 -129 -139 -176t-198 -47h-122v252h79q50 0 78.5 30.5t44.5 73.5l52 160z" />
<glyph unicode="&#x444;" horiz-adv-x="1502" d="M94 533q3 82 18 159.5t42 134.5q27 52 72 97.5t104.5 77.5t128 50.5t136.5 20.5v490h304v-490q64 0 126.5 -14t117.5 -37.5t100 -58t73 -75.5q45 -66 71 -155.5t23 -205.5q0 -211 -85 -332q-69 -96 -184 -146.5t-242 -58.5v-407h-302v407q-127 2 -235 45t-173 125 q-54 69 -75.5 163t-19.5 210zM408 529q0 -111 33 -176q19 -41 63 -68t91 -27v540q-45 0 -88 -22.5t-64 -65.5q-17 -35 -24.5 -80t-10.5 -101zM899 258q55 0 106 36.5t68 88.5q11 31 16 64t5 86q2 60 -7.5 104t-19.5 69q-17 41 -63.5 65.5t-104.5 26.5v-540z" />
<glyph unicode="&#x445;" horiz-adv-x="1156" d="M15 0l406 542l-391 523h368l178 -293l179 293h370l-394 -523l410 -542h-371l-194 306l-191 -306h-370z" />
<glyph unicode="&#x446;" horiz-adv-x="1278" d="M129 0v1065h301v-790h348v790h304v-790h155v-581h-267v306h-841z" />
<glyph unicode="&#x447;" horiz-adv-x="1098" d="M86 704v361h308v-293q0 -37 5 -65t21.5 -47.5t45.5 -29.5t76 -10q37 0 81 10t81 24v411h298v-1065h-298v415q-50 -17 -112.5 -29t-120.5 -12q-75 0 -144 17t-123 56t-86 101.5t-32 155.5z" />
<glyph unicode="&#x448;" horiz-adv-x="1730" d="M129 0v1065h294v-790h295v790h297v-790h294v790h293v-1065h-1473z" />
<glyph unicode="&#x449;" horiz-adv-x="1801" d="M129 0v1065h294v-790h295v790h299v-790h294v790h293v-790h155v-581h-267v306h-1363z" />
<glyph unicode="&#x44a;" horiz-adv-x="1305" d="M35 802v263h623v-330h215q116 0 192 -32t124 -82.5t67 -113t19 -120.5q0 -75 -22.5 -144t-72 -124t-125.5 -87t-182 -32h-516v802h-322zM656 269h187q66 0 94.5 30t28.5 66q0 35 -25 72t-98 37h-187v-205z" />
<glyph unicode="&#x44b;" horiz-adv-x="1537" d="M111 0v1065h300v-330h215q116 0 192.5 -32t123.5 -82.5t66.5 -113t19.5 -120.5q0 -75 -22.5 -144t-72 -124t-126 -87t-181.5 -32h-515zM408 269h187q67 0 95 30t28 66q0 35 -24.5 72t-98.5 37h-187v-205zM1120 0v1065h300v-1065h-300z" />
<glyph unicode="&#x44c;" horiz-adv-x="1077" d="M99 0v1065h299v-330h215q117 0 193 -32t123 -82.5t66.5 -113t19.5 -120.5q0 -75 -22.5 -144t-72.5 -124t-126 -87t-181 -32h-514zM396 269h187q66 0 94.5 30t28.5 66q0 35 -25 72t-98 37h-187v-205z" />
<glyph unicode="&#x44d;" horiz-adv-x="1036" d="M51 114l158 228q58 -47 109.5 -61t94.5 -14q82 0 142 41t65 122h-274v208h278q-7 78 -61 119t-135 41q-34 0 -87 -15t-103 -59l-156 214q76 75 169 106t203 31q109 0 201 -29t157.5 -93.5t101.5 -165.5t36 -245q0 -142 -43 -246.5t-116 -172t-168.5 -100.5t-201.5 -33 q-109 0 -196 26.5t-174 97.5z" />
<glyph unicode="&#x44e;" horiz-adv-x="1545" d="M107 0v1065h308v-416h116q7 49 19 97t29 87q55 120 170.5 184.5t263.5 64.5q123 0 222 -47.5t156 -135.5q43 -66 63.5 -160t18.5 -210q0 -105 -21.5 -186t-58.5 -148q-64 -107 -173.5 -158.5t-232.5 -51.5t-219.5 43t-154.5 132q-71 102 -84 261h-114v-421h-308zM833 531 q0 -55 6 -99.5t23 -76.5q19 -41 52.5 -64.5t80.5 -23.5q112 0 149 116q7 24 13 61.5t6 91.5q3 59 -5.5 105.5t-20.5 70.5q-19 47 -55.5 69.5t-79.5 22.5t-79.5 -24.5t-58.5 -67.5q-17 -35 -23 -80t-8 -101z" />
<glyph unicode="&#x44f;" horiz-adv-x="1145" d="M58 0l84 265q17 57 49.5 104.5t87.5 71.5q-101 33 -143 106t-44 157q0 84 27 151.5t79 113.5t124 71t160 25h535v-1065h-307v387h-93q-53 0 -98 -29t-70 -115l-71 -243h-320zM394 699q0 -49 36 -67.5t89 -18.5h191v193h-197q-51 0 -85 -25.5t-34 -81.5z" />
<glyph unicode="&#x451;" horiz-adv-x="1145" d="M76 529q0 150 42 254.5t110.5 169t155.5 93.5t178 29q127 0 219 -41t152 -113t89 -173t29 -221v-75h-657q10 -103 55.5 -145t122.5 -42q41 0 108 19t133 79l189 -211q-103 -94 -219 -129.5t-219 -35.5q-88 0 -175.5 25t-157 86.5t-112.5 165.5t-43 265zM168 1239v279h318 v-279h-318zM404 649h316q-8 73 -53 113t-103 40t-103.5 -41t-56.5 -112zM636 1239v279h321v-279h-321z" />
<glyph unicode="&#x452;" horiz-adv-x="1311" d="M13 1200v200h165v163h308v-163h409v-200h-407v-250q56 62 127.5 87.5t131.5 25.5q227 0 348.5 -127.5t121.5 -399.5q0 -121 -29 -225t-93.5 -182t-167 -123t-246.5 -45h-24t-27 2v269h26q74 0 120.5 20.5t75 59.5t39 93.5t10.5 123.5q0 47 -8.5 93.5t-31 83t-63.5 59.5 t-106 23q-39 0 -76 -14.5t-65 -43.5t-45.5 -77.5t-17.5 -114.5l-2 -538h-308v1200h-165z" />
<glyph unicode="&#x453;" horiz-adv-x="977" d="M82 0v1065h862v-263h-557v-802h-305zM357 1219l183 437l285 -93l-289 -408z" />
<glyph unicode="&#x454;" horiz-adv-x="995" d="M49 523q0 144 44.5 248.5t117.5 172t166.5 99.5t192.5 32q109 0 193 -30t173 -105l-160 -213q-47 43 -101.5 58t-95.5 15q-82 0 -132.5 -43t-66.5 -119h274v-208h-274q4 -81 60.5 -122t138.5 -41q43 0 94 14t109 61l158 -228q-86 -71 -173.5 -97.5t-196.5 -26.5 q-99 0 -192.5 29.5t-166.5 94t-117.5 165.5t-44.5 244z" />
<glyph unicode="&#x455;" horiz-adv-x="1005" d="M30 152l151 216q79 -76 165.5 -99.5t174.5 -23.5q58 0 96.5 24t38.5 55t-23.5 56.5t-109.5 36.5q-80 8 -157.5 23.5t-137.5 49t-97 90t-37 151.5q0 86 33 151.5t87.5 107.5t128.5 63.5t156 21.5q123 0 228.5 -24.5t205.5 -100.5l-137 -228q-86 58 -166 73.5t-125 15.5 q-69 0 -97 -23t-28 -46q0 -36 48 -55.5t167 -34.5q74 -8 139.5 -26.5t115 -54t78.5 -94t29 -144.5t-37.5 -150t-101 -108.5t-144.5 -66t-167 -21.5q-60 0 -119 5.5t-118 24t-119.5 50.5t-120.5 85z" />
<glyph unicode="&#x456;" horiz-adv-x="577" d="M135 0v1065h308v-1065h-308zM135 1227v269h308v-269h-308z" />
<glyph unicode="&#x457;" horiz-adv-x="788" d="M2 1223v281h318v-281h-318zM248 0v1065h306v-1065h-306zM471 1223v281h321v-281h-321z" />
<glyph unicode="&#x458;" horiz-adv-x="614" d="M-19 -164h56q39 0 62.5 10t36 26.5t15.5 35t3 41.5v1118h308v-1178q0 -144 -87 -231.5t-266 -87.5h-128v266zM154 1227v269h308v-269h-308z" />
<glyph unicode="&#x459;" horiz-adv-x="1674" d="M33 200q73 14 116.5 43.5t65 75.5t28.5 112t7 154v480h767v-330h210q117 0 193 -32t124 -82.5t67 -113t19 -120.5q0 -75 -23 -144t-72 -124t-125 -87t-183 -32h-511v798h-197v-205q0 -127 -18.5 -238.5t-67 -193t-136.5 -129t-226 -47.5zM1015 269h187q66 0 94.5 30 t28.5 66q0 35 -25 72t-98 37h-187v-205z" />
<glyph unicode="&#x45a;" horiz-adv-x="1623" d="M92 0v1065h306v-357h254v357h300v-351h216q116 0 192 -31t123.5 -80t67 -109t19.5 -118q0 -76 -22.5 -143t-72 -119t-126 -83t-181.5 -31h-516v445h-254v-445h-306zM952 262h195q66 0 90.5 28t24.5 65q0 35 -21.5 66t-93.5 31h-195v-190z" />
<glyph unicode="&#x45b;" horiz-adv-x="1248" d="M33 1182v201h160v178h308v-178h391v-201h-391v-225l8 -3q43 37 119 63t150 26q150 0 245 -97t95 -286v-660h-305v595q0 82 -43 123t-107 41q-76 0 -119 -50.5t-43 -132.5v-576h-308v1182h-160z" />
<glyph unicode="&#x45c;" horiz-adv-x="1167" d="M123 0v1060h307v-404h91q26 0 52.5 4.5t53.5 20.5t49.5 47t37.5 83l78 252h302l-96 -310q-22 -74 -59.5 -125.5t-93.5 -71.5v-8q70 -21 106 -76t58 -130l105 -342h-316l-74 252q-34 103 -84.5 133t-110.5 30h-99v-415h-307zM423 1219l184 437l285 -93l-290 -408z" />
<glyph unicode="&#x45e;" horiz-adv-x="1079" d="M0 1065h329l104 -304l103 -335h8l101 331l108 308h326l-482 -1272q-49 -129 -139 -176t-198 -47h-122v252h79q50 0 78.5 30.5t44.5 73.5l52 160zM222 1553h215q0 -21 7.5 -46t22.5 -48t37.5 -38t51.5 -15q31 0 53.5 15t38 38t22.5 47.5t7 46.5h215q-6 -49 -24.5 -109.5 t-56 -113t-100 -88.5t-155.5 -36q-92 0 -154 36t-99.5 88.5t-56 113t-24.5 109.5z" />
<glyph unicode="&#x45f;" horiz-adv-x="1162" d="M117 0v1065h289v-790h355v790h288v-1065h-333v-338h-267v338h-332z" />
<glyph unicode="&#x490;" horiz-adv-x="1216" d="M150 0v1496h790v285h269v-581h-727v-1200h-332z" />
<glyph unicode="&#x491;" horiz-adv-x="977" d="M117 0v1065h614v228h248v-491h-560v-802h-302z" />
<glyph unicode="&#x4d9;" horiz-adv-x="1145" d="M76 536v75h657q-11 103 -56 145t-123 42q-41 0 -107.5 -19.5t-132.5 -79.5l-189 210q103 95 219 130.5t220 35.5q88 0 174.5 -24.5t157 -86t113 -165.5t42.5 -266q0 -150 -41.5 -254.5t-110 -169t-156 -93.5t-177.5 -29q-127 0 -219.5 41t-153 113t-89 173t-28.5 222z M406 413q9 -74 54 -113.5t104 -39.5q58 0 103 41t55 112h-316z" />
<glyph unicode="&#x1e80;" horiz-adv-x="1835" d="M2 1492h347l105 -443l94 -425h6l115 425l129 443h240l130 -441l114 -427h11l90 425l105 443h346l-400 -1496h-266l-140 486l-105 408h-7l-108 -414l-137 -480h-269zM519 1770l193 230l387 -276l-120 -148z" />
<glyph unicode="&#x1e81;" horiz-adv-x="1619" d="M10 1065h328l75 -265l84 -332h10l97 332l86 265h246l84 -265l94 -332h13l84 332l75 265h327l-363 -1065h-259l-82 262l-94 325h-7l-92 -322l-86 -265h-256zM460 1555l289 99l199 -417l-174 -82z" />
<glyph unicode="&#x1e82;" horiz-adv-x="1835" d="M2 1492h347l105 -443l94 -425h6l115 425l129 443h240l130 -441l114 -427h11l90 425l105 443h346l-400 -1496h-266l-140 486l-105 408h-7l-108 -414l-137 -480h-269zM729 1724l387 276l193 -230l-460 -194z" />
<glyph unicode="&#x1e83;" horiz-adv-x="1619" d="M10 1065h328l75 -265l84 -332h10l97 332l86 265h246l84 -265l94 -332h13l84 332l75 265h327l-363 -1065h-259l-82 262l-94 325h-7l-92 -322l-86 -265h-256zM720 1219l183 437l287 -93l-291 -408z" />
<glyph unicode="&#x1e84;" horiz-adv-x="1835" d="M2 1492h347l105 -443l94 -425h6l115 425l129 443h240l130 -441l114 -427h11l90 425l105 443h346l-400 -1496h-266l-140 486l-105 408h-7l-108 -414l-137 -480h-269zM527 1600v286h329v-286h-329zM989 1600v286h327v-286h-327z" />
<glyph unicode="&#x1e85;" horiz-adv-x="1619" d="M10 1065h328l75 -265l84 -332h10l97 332l86 265h246l84 -265l94 -332h13l84 332l75 265h327l-363 -1065h-259l-82 262l-94 325h-7l-92 -322l-86 -265h-256zM413 1223v281h318v-281h-318zM882 1223v281h320v-281h-320z" />
<glyph unicode="&#x1ef2;" horiz-adv-x="1300" d="M15 1496h355l153 -322l129 -290h8l128 288l154 324h355l-484 -883v-613h-316v613zM284 1770l194 230l386 -276l-120 -148z" />
<glyph unicode="&#x1ef3;" horiz-adv-x="1079" d="M0 1065h329l104 -304l103 -335h8l101 331l108 308h326l-482 -1272q-49 -129 -139 -176t-198 -47h-122v252h79q50 0 78.5 30.5t44.5 73.5l52 160zM185 1555l289 99l199 -417l-174 -82z" />
<glyph unicode="&#x1f00;" horiz-adv-x="1145" d="M90 507q0 86 13.5 185.5t55 184t123 140.5t219.5 56q58 0 111 -18.5t98 -67.5l6 2v76h306v-1065h-306v84l-6 2q-37 -43 -97.5 -71t-113.5 -28q-134 0 -214 50.5t-123 128t-57.5 168.5t-14.5 173zM404 529q0 -43 3.5 -89t19.5 -84t47 -62.5t88 -24.5q53 0 83 25.5 t46.5 64.5t20.5 84t4 86q0 39 -4 85t-19.5 84.5t-46.5 66t-84 27.5q-56 0 -88.5 -26t-47.5 -64.5t-18.5 -85t-3.5 -87.5zM413 1445l82 237q135 -26 217 -89.5t82 -170.5q0 -50 -36 -131.5t-124 -161.5l-150 67q35 45 52.5 88t17.5 68q0 27 -26.5 51.5t-114.5 41.5z" />
<glyph unicode="&#x1f01;" horiz-adv-x="1145" d="M90 507q0 86 13.5 185.5t55 184t123 140.5t219.5 56q58 0 111 -18.5t98 -67.5l6 2v76h306v-1065h-306v84l-6 2q-37 -43 -97.5 -71t-113.5 -28q-134 0 -214 50.5t-123 128t-57.5 168.5t-14.5 173zM404 529q0 -43 3.5 -89t19.5 -84t47 -62.5t88 -24.5q53 0 83 25.5 t46.5 64.5t20.5 84t4 86q0 39 -4 85t-19.5 84.5t-46.5 66t-84 27.5q-56 0 -88.5 -26t-47.5 -64.5t-18.5 -85t-3.5 -87.5zM430 1422q0 107 81.5 170.5t217.5 89.5l82 -237q-89 -17 -115.5 -41.5t-26.5 -51.5q0 -26 18.5 -68.5t52.5 -87.5l-151 -67q-88 80 -123.5 161.5 t-35.5 131.5z" />
<glyph unicode="&#x1f02;" horiz-adv-x="1145" d="M90 507q0 86 13.5 185.5t55 184t123 140.5t219.5 56q58 0 111 -18.5t98 -67.5l6 2v76h306v-1065h-306v84l-6 2q-37 -43 -97.5 -71t-113.5 -28q-134 0 -214 50.5t-123 128t-57.5 168.5t-14.5 173zM142 1475l82 234q133 -24 215 -88t82 -172q0 -49 -36 -131.5t-124 -160.5 l-148 68q33 45 53 87t20 71q0 24 -28 49.5t-116 42.5zM404 529q0 -43 3.5 -89t19.5 -84t47 -62.5t88 -24.5q53 0 83 25.5t46.5 64.5t20.5 84t4 86q0 39 -4 85t-19.5 84.5t-46.5 66t-84 27.5q-56 0 -88.5 -26t-47.5 -64.5t-18.5 -85t-3.5 -87.5zM501 1664l287 60l212 -505 l-165 -64z" />
<glyph unicode="&#x1f03;" horiz-adv-x="1145" d="M90 507q0 86 13.5 185.5t55 184t123 140.5t219.5 56q58 0 111 -18.5t98 -67.5l6 2v76h306v-1065h-306v84l-6 2q-37 -43 -97.5 -71t-113.5 -28q-134 0 -214 50.5t-123 128t-57.5 168.5t-14.5 173zM114 1447q0 109 81.5 173t215.5 87l84 -234q-89 -17 -116.5 -42t-27.5 -50 q0 -29 19.5 -71t50.5 -87l-146 -66q-88 80 -124.5 160.5t-36.5 129.5zM404 529q0 -43 3.5 -89t19.5 -84t47 -62.5t88 -24.5q53 0 83 25.5t46.5 64.5t20.5 84t4 86q0 39 -4 85t-19.5 84.5t-46.5 66t-84 27.5q-56 0 -88.5 -26t-47.5 -64.5t-18.5 -85t-3.5 -87.5zM501 1664 l287 60l212 -505l-165 -64z" />
<glyph unicode="&#x1f04;" horiz-adv-x="1145" d="M90 507q0 86 13.5 185.5t55 184t123 140.5t219.5 56q58 0 111 -18.5t98 -67.5l6 2v76h306v-1065h-306v84l-6 2q-37 -43 -97.5 -71t-113.5 -28q-134 0 -214 50.5t-123 128t-57.5 168.5t-14.5 173zM256 1490l84 234q136 -24 216 -87t80 -172q0 -50 -35 -132.5t-123 -160.5 l-149 69q34 43 52.5 86t18.5 71q0 24 -27 49.5t-117 42.5zM404 529q0 -43 3.5 -89t19.5 -84t47 -62.5t88 -24.5q53 0 83 25.5t46.5 64.5t20.5 84t4 86q0 39 -4 85t-19.5 84.5t-46.5 66t-84 27.5q-56 0 -88.5 -26t-47.5 -64.5t-18.5 -85t-3.5 -87.5zM628 1219l213 505 l286 -60l-333 -509z" />
<glyph unicode="&#x1f05;" horiz-adv-x="1145" d="M90 507q0 86 13.5 185.5t55 184t123 140.5t219.5 56q58 0 111 -18.5t98 -67.5l6 2v76h306v-1065h-306v84l-6 2q-37 -43 -97.5 -71t-113.5 -28q-134 0 -214 50.5t-123 128t-57.5 168.5t-14.5 173zM256 1463q0 109 80.5 172.5t215.5 86.5l82 -234q-88 -17 -115 -42.5 t-27 -50.5q0 -26 18.5 -69.5t55.5 -86.5l-149 -69q-88 77 -124.5 160t-36.5 133zM404 529q0 -43 3.5 -89t19.5 -84t47 -62.5t88 -24.5q53 0 83 25.5t46.5 64.5t20.5 84t4 86q0 39 -4 85t-19.5 84.5t-46.5 66t-84 27.5q-56 0 -88.5 -26t-47.5 -64.5t-18.5 -85t-3.5 -87.5z M643 1219l213 505l285 -60l-333 -509z" />
<glyph unicode="&#x1f06;" horiz-adv-x="1145" d="M90 507q0 86 13.5 185.5t55 184t123 140.5t219.5 56q58 0 111 -18.5t98 -67.5l6 2v76h306v-1065h-306v84l-6 2q-37 -43 -97.5 -71t-113.5 -28q-134 0 -214 50.5t-123 128t-57.5 168.5t-14.5 173zM205 1682q55 117 121 179t162 62q41 0 82 -17.5t77.5 -37t69 -35 t57.5 -15.5q37 0 69.5 23.5t74.5 78.5l147 -86q-56 -125 -120.5 -179.5t-140.5 -54.5q-43 0 -85 16t-79.5 34t-72 34.5t-64.5 16.5q-37 0 -74 -22.5t-85 -84.5zM404 529q0 -43 3.5 -89t19.5 -84t47 -62.5t88 -24.5q53 0 83 25.5t46.5 64.5t20.5 84t4 86q0 39 -4 85 t-19.5 84.5t-46.5 66t-84 27.5q-56 0 -88.5 -26t-47.5 -64.5t-18.5 -85t-3.5 -87.5zM445 1391l84 203q129 -17 202 -66t73 -133q0 -41 -31 -107.5t-130 -150.5l-151 61q44 47 66.5 78t22.5 62q0 26 -30 38.5t-106 14.5z" />
<glyph unicode="&#x1f07;" horiz-adv-x="1145" d="M90 507q0 86 13.5 185.5t55 184t123 140.5t219.5 56q58 0 111 -18.5t98 -67.5l6 2v76h306v-1065h-306v84l-6 2q-37 -43 -97.5 -71t-113.5 -28q-134 0 -214 50.5t-123 128t-57.5 168.5t-14.5 173zM183 1703q55 117 121 179t162 62q41 0 82 -17t78 -36.5t69 -35.5t58 -16 q37 0 69 23.5t75 78.5l146 -86q-56 -125 -120.5 -179.5t-140.5 -54.5q-43 0 -84.5 16.5t-79 34.5t-72.5 34t-64 16q-37 0 -74.5 -22.5t-85.5 -84.5zM404 529q0 -43 3.5 -89t19.5 -84t47 -62.5t88 -24.5q53 0 83 25.5t46.5 64.5t20.5 84t4 86q0 39 -4 85t-19.5 84.5t-46.5 66 t-84 27.5q-56 0 -88.5 -26t-47.5 -64.5t-18.5 -85t-3.5 -87.5zM417 1389q0 84 73.5 132.5t201.5 65.5l84 -202q-76 -2 -106 -15t-30 -39q0 -30 23 -61t66 -78l-150 -61q-99 84 -130.5 150.5t-31.5 107.5z" />
<glyph unicode="&#x1f08;" horiz-adv-x="1418" d="M-47 1325l82 236q135 -26 216.5 -89.5t81.5 -170.5q0 -49 -35.5 -131t-123.5 -161l-150 66q35 45 52.5 88t17.5 70q0 26 -26.5 50t-114.5 42zM-4 0l580 1496h261l581 -1496h-349l-112 306h-501l-112 -306h-348zM559 585h295l-56 172l-88 297h-9l-86 -293z" />
<glyph unicode="&#x1f09;" horiz-adv-x="1418" d="M-54 1303q0 107 81.5 170.5t217.5 89.5l82 -236q-89 -17 -115.5 -42t-26.5 -50q0 -26 18.5 -69.5t52.5 -88.5l-151 -66q-88 80 -123.5 161.5t-35.5 130.5zM-4 0l580 1496h261l581 -1496h-349l-112 306h-501l-112 -306h-348zM559 585h295l-56 172l-88 297h-9l-86 -293z " />
<glyph unicode="&#x1f0a;" horiz-adv-x="1418" d="M-556 1354l80 235q134 -25 216 -89t82 -171q0 -49 -36 -132t-124 -161l-148 70q32 45 52.5 87t20.5 69q0 24 -27.5 50t-115.5 42zM-197 1544l285 60l213 -505l-166 -65zM-4 0l580 1496h261l581 -1496h-349l-112 306h-501l-112 -306h-348zM559 585h295l-56 172l-88 297h-9 l-86 -293z" />
<glyph unicode="&#x1f0b;" horiz-adv-x="1418" d="M-583 1329q0 109 82 173t215 87l83 -235q-88 -16 -115.5 -41t-27.5 -51q0 -28 19 -69.5t52 -86.5l-146 -68q-88 80 -125 161t-37 130zM-195 1547l285 59l213 -505l-165 -65zM-4 0l580 1496h261l581 -1496h-349l-112 306h-501l-112 -306h-348zM559 585h295l-56 172 l-88 297h-9l-86 -293z" />
<glyph unicode="&#x1f0c;" horiz-adv-x="1418" d="M-507 1368l84 234q135 -24 215.5 -87.5t80.5 -172.5q0 -49 -35 -132t-124 -161l-149 69q35 43 53.5 86t18.5 71q0 24 -27 49.5t-117 43.5zM-135 1096l213 506l285 -61l-333 -509zM-4 0l580 1496h261l581 -1496h-349l-112 306h-501l-112 -306h-348zM559 585h295l-56 172 l-88 297h-9l-86 -293z" />
<glyph unicode="&#x1f0d;" horiz-adv-x="1418" d="M-527 1344q0 109 81 172.5t216 87.5l82 -234q-88 -17 -115 -43t-27 -49q0 -26 18 -70.5t55 -87.5l-148 -69q-89 78 -125.5 161t-36.5 132zM-140 1101l214 505l285 -59l-333 -511zM-4 0l580 1496h261l581 -1496h-349l-112 306h-501l-112 -306h-348zM559 585h295l-56 172 l-88 297h-9l-86 -293z" />
<glyph unicode="&#x1f0e;" horiz-adv-x="1418" d="M-488 1445q55 116 121 178.5t162 62.5q41 0 82 -17t78 -36.5t69 -36t58 -16.5q37 0 69 24t75 80l146 -86q-56 -125 -120.5 -180t-140.5 -55q-43 0 -84.5 16t-79 34.5t-72.5 35t-64 16.5q-37 0 -74.5 -22.5t-85.5 -85.5zM-248 1155l84 202q129 -17 202 -65.5t73 -132.5 q0 -41 -31 -107.5t-129 -150.5l-151 60q44 47 66.5 78.5t22.5 61.5q0 27 -30.5 39.5t-106.5 14.5zM-4 0l580 1496h261l581 -1496h-349l-112 306h-501l-112 -306h-348zM559 585h295l-56 172l-88 297h-9l-86 -293z" />
<glyph unicode="&#x1f0f;" horiz-adv-x="1418" d="M-484 1469q56 117 122 178.5t162 61.5q41 0 81.5 -17t77.5 -36t69 -35.5t58 -16.5q37 0 69 24t75 79l146 -86q-56 -125 -120.5 -179.5t-138.5 -54.5q-43 0 -85 16.5t-80 34t-72 34t-65 16.5q-37 0 -74.5 -22.5t-84.5 -84.5zM-250 1155q0 84 73.5 132.5t202.5 64.5 l83 -201q-75 -2 -105 -15.5t-30 -39.5q0 -30 22.5 -61t65.5 -78l-150 -60q-99 84 -130.5 150.5t-31.5 107.5zM-4 0l580 1496h261l581 -1496h-349l-112 306h-501l-112 -306h-348zM559 585h295l-56 172l-88 297h-9l-86 -293z" />
<glyph unicode="&#x1f10;" horiz-adv-x="1022" d="M88 320q0 26 9.5 57t28 64t45 59.5t63.5 43.5v6q-39 11 -64.5 35t-40.5 53t-21.5 57.5t-6.5 51.5q0 69 30.5 129t86 104t138.5 69.5t188 25.5q123 0 227.5 -32t200.5 -129l-187 -210q-62 61 -119 76.5t-112 15.5q-16 0 -40 -4t-45.5 -14t-36.5 -26.5t-15 -39.5 q0 -31 22.5 -52.5t100.5 -21.5h131v-217h-144q-123 0 -123 -75q0 -24 31 -50.5t119 -26.5q54 0 116.5 17t117.5 79l197 -207q-103 -95 -217 -131.5t-237 -36.5q-96 0 -178 21.5t-141.5 63.5t-91.5 103.5t-32 141.5zM392 1445l82 237q135 -26 216.5 -89.5t81.5 -170.5 q0 -50 -35.5 -131.5t-123.5 -161.5l-151 67q35 45 53 88t18 68q0 27 -26.5 51.5t-114.5 41.5z" />
<glyph unicode="&#x1f11;" horiz-adv-x="1022" d="M88 320q0 26 9.5 57t28 64t45 59.5t63.5 43.5v6q-39 11 -64.5 35t-40.5 53t-21.5 57.5t-6.5 51.5q0 69 30.5 129t86 104t138.5 69.5t188 25.5q123 0 227.5 -32t200.5 -129l-187 -210q-62 61 -119 76.5t-112 15.5q-16 0 -40 -4t-45.5 -14t-36.5 -26.5t-15 -39.5 q0 -31 22.5 -52.5t100.5 -21.5h131v-217h-144q-123 0 -123 -75q0 -24 31 -50.5t119 -26.5q54 0 116.5 17t117.5 79l197 -207q-103 -95 -217 -131.5t-237 -36.5q-96 0 -178 21.5t-141.5 63.5t-91.5 103.5t-32 141.5zM378 1422q0 107 82 170.5t217 89.5l82 -237 q-88 -17 -115 -41.5t-27 -51.5q0 -26 18.5 -68.5t52.5 -87.5l-150 -67q-89 80 -124.5 161.5t-35.5 131.5z" />
<glyph unicode="&#x1f12;" horiz-adv-x="1022" d="M88 320q0 26 9.5 57t28 64t45 59.5t63.5 43.5v6q-39 11 -64.5 35t-40.5 53t-21.5 57.5t-6.5 51.5q0 69 30.5 129t86 104t138.5 69.5t188 25.5q123 0 227.5 -32t200.5 -129l-187 -210q-62 61 -119 76.5t-112 15.5q-16 0 -40 -4t-45.5 -14t-36.5 -26.5t-15 -39.5 q0 -31 22.5 -52.5t100.5 -21.5h131v-217h-144q-123 0 -123 -75q0 -24 31 -50.5t119 -26.5q54 0 116.5 17t117.5 79l197 -207q-103 -95 -217 -131.5t-237 -36.5q-96 0 -178 21.5t-141.5 63.5t-91.5 103.5t-32 141.5zM90 1475l82 234q134 -24 215 -88t81 -172 q0 -49 -35 -131.5t-123 -160.5l-148 68q32 45 52 87t20 71q0 24 -28 49.5t-116 42.5zM449 1664l286 60l213 -505l-166 -64z" />
<glyph unicode="&#x1f13;" horiz-adv-x="1022" d="M39 1447q0 109 82 173t214 87l84 -234q-88 -17 -116 -42t-28 -50q0 -29 19.5 -71t51.5 -87l-146 -66q-89 80 -125 160.5t-36 129.5zM88 320q0 26 9.5 57t28 64t45 59.5t63.5 43.5v6q-39 11 -64.5 35t-40.5 53t-21.5 57.5t-6.5 51.5q0 69 30.5 129t86 104t138.5 69.5 t188 25.5q123 0 227.5 -32t200.5 -129l-187 -210q-62 61 -119 76.5t-112 15.5q-16 0 -40 -4t-45.5 -14t-36.5 -26.5t-15 -39.5q0 -31 22.5 -52.5t100.5 -21.5h131v-217h-144q-123 0 -123 -75q0 -24 31 -50.5t119 -26.5q54 0 116.5 17t117.5 79l197 -207 q-103 -95 -217 -131.5t-237 -36.5q-96 0 -178 21.5t-141.5 63.5t-91.5 103.5t-32 141.5zM426 1664l286 60l213 -505l-166 -64z" />
<glyph unicode="&#x1f14;" horiz-adv-x="1022" d="M88 320q0 26 9.5 57t28 64t45 59.5t63.5 43.5v6q-39 11 -64.5 35t-40.5 53t-21.5 57.5t-6.5 51.5q0 69 30.5 129t86 104t138.5 69.5t188 25.5q123 0 227.5 -32t200.5 -129l-187 -210q-62 61 -119 76.5t-112 15.5q-16 0 -40 -4t-45.5 -14t-36.5 -26.5t-15 -39.5 q0 -31 22.5 -52.5t100.5 -21.5h131v-217h-144q-123 0 -123 -75q0 -24 31 -50.5t119 -26.5q54 0 116.5 17t117.5 79l197 -207q-103 -95 -217 -131.5t-237 -36.5q-96 0 -178 21.5t-141.5 63.5t-91.5 103.5t-32 141.5zM209 1490l84 234q135 -24 215.5 -87t80.5 -172 q0 -50 -35 -132.5t-124 -160.5l-149 69q35 43 53.5 86t18.5 71q0 24 -27 49.5t-117 42.5zM581 1219l213 505l285 -60l-332 -509z" />
<glyph unicode="&#x1f15;" horiz-adv-x="1022" d="M88 320q0 26 9.5 57t28 64t45 59.5t63.5 43.5v6q-39 11 -64.5 35t-40.5 53t-21.5 57.5t-6.5 51.5q0 69 30.5 129t86 104t138.5 69.5t188 25.5q123 0 227.5 -32t200.5 -129l-187 -210q-62 61 -119 76.5t-112 15.5q-16 0 -40 -4t-45.5 -14t-36.5 -26.5t-15 -39.5 q0 -31 22.5 -52.5t100.5 -21.5h131v-217h-144q-123 0 -123 -75q0 -24 31 -50.5t119 -26.5q54 0 116.5 17t117.5 79l197 -207q-103 -95 -217 -131.5t-237 -36.5q-96 0 -178 21.5t-141.5 63.5t-91.5 103.5t-32 141.5zM170 1463q0 109 80.5 172.5t215.5 86.5l82 -234 q-88 -17 -115 -42.5t-27 -50.5q0 -26 18.5 -69.5t55.5 -86.5l-149 -69q-88 77 -124.5 160t-36.5 133zM556 1219l214 505l286 -60l-334 -509z" />
<glyph unicode="&#x1f18;" horiz-adv-x="1257" d="M-374 1338l81 236q135 -26 217 -89t82 -171q0 -50 -35 -131.5t-123 -160.5l-151 66q34 45 52.5 88t18.5 69q0 27 -27 51t-115 42zM150 0v1496h1059v-296h-727v-303h619v-286h-619v-314h727v-297h-1059z" />
<glyph unicode="&#x1f19;" horiz-adv-x="1257" d="M-376 1314q0 107 81.5 171t216.5 89l82 -236q-88 -17 -115 -42.5t-27 -50.5q0 -26 18.5 -69t53.5 -88l-151 -66q-89 79 -124 160.5t-35 131.5zM150 0v1496h1059v-296h-727v-303h619v-286h-619v-314h727v-297h-1059z" />
<glyph unicode="&#x1f1a;" horiz-adv-x="1257" d="M-837 1368l82 234q133 -24 215 -88.5t82 -171.5q0 -49 -35.5 -132t-123.5 -161l-148 69q32 45 52.5 87t20.5 70q0 24 -28.5 49.5t-116.5 43.5zM-478 1557l287 60l212 -505l-165 -65zM150 0v1496h1059v-296h-727v-303h619v-286h-619v-314h727v-297h-1059z" />
<glyph unicode="&#x1f1b;" horiz-adv-x="1257" d="M-847 1340q0 109 81.5 172.5t215.5 87.5l84 -235q-88 -17 -116.5 -41.5t-28.5 -50.5q0 -29 19.5 -70.5t51.5 -86.5l-146 -67q-88 80 -124.5 160.5t-36.5 130.5zM-460 1557l286 60l213 -505l-166 -65zM150 0v1496h1059v-296h-727v-303h619v-286h-619v-314h727v-297h-1059z " />
<glyph unicode="&#x1f1c;" horiz-adv-x="1257" d="M-845 1383l84 234q135 -24 216 -87t81 -173q0 -50 -36 -133t-124 -159l-148 68q35 43 53 86t18 71q0 25 -27 50t-117 43zM-474 1112l214 505l286 -60l-334 -510zM150 0v1496h1059v-296h-727v-303h619v-286h-619v-314h727v-297h-1059z" />
<glyph unicode="&#x1f1d;" horiz-adv-x="1257" d="M-858 1354q0 110 80.5 174t215.5 87l82 -234q-88 -17 -115 -43.5t-27 -49.5q0 -26 18.5 -70t55.5 -87l-149 -68q-88 77 -124.5 159.5t-36.5 131.5zM-471 1112l213 505l286 -60l-334 -510zM150 0v1496h1059v-296h-727v-303h619v-286h-619v-314h727v-297h-1059z" />
<glyph unicode="&#x1f20;" horiz-adv-x="1184" d="M129 0v1065h308v-89h4q49 46 123 72.5t135 26.5q175 0 265 -96.5t90 -286.5v-692h-305v628q0 82 -43 123t-109 41q-69 0 -114.5 -41t-45.5 -123v-628h-308zM387 1445l81 237q136 -26 218 -89.5t82 -170.5q0 -50 -35.5 -131.5t-123.5 -161.5l-151 67q34 45 52.5 88 t18.5 68q0 27 -26.5 51.5t-115.5 41.5z" />
<glyph unicode="&#x1f21;" horiz-adv-x="1184" d="M129 0v1065h308v-89h4q49 46 123 72.5t135 26.5q175 0 265 -96.5t90 -286.5v-692h-305v628q0 82 -43 123t-109 41q-69 0 -114.5 -41t-45.5 -123v-628h-308zM390 1422q0 107 81 170.5t217 89.5l82 -237q-89 -17 -115.5 -41.5t-26.5 -51.5q0 -26 18.5 -68.5t52.5 -87.5 l-151 -67q-88 80 -123 161.5t-35 131.5z" />
<glyph unicode="&#x1f22;" horiz-adv-x="1184" d="M119 1475l81 234q133 -24 215 -88t82 -172q0 -49 -35.5 -131.5t-123.5 -160.5l-149 68q33 45 53 87t20 71q0 24 -27.5 49.5t-115.5 42.5zM129 0v1065h308v-89h4q49 46 123 72.5t135 26.5q175 0 265 -96.5t90 -286.5v-692h-305v628q0 82 -43 123t-109 41q-69 0 -114.5 -41 t-45.5 -123v-628h-308zM478 1664l285 60l213 -505l-165 -64z" />
<glyph unicode="&#x1f23;" horiz-adv-x="1184" d="M99 1447q0 109 81.5 173t215.5 87l84 -234q-88 -17 -116.5 -42t-28.5 -50q0 -29 19.5 -71t51.5 -87l-146 -66q-88 80 -124.5 160.5t-36.5 129.5zM129 0v1065h308v-89h4q49 46 123 72.5t135 26.5q175 0 265 -96.5t90 -286.5v-692h-305v628q0 82 -43 123t-109 41 q-69 0 -114.5 -41t-45.5 -123v-628h-308zM486 1664l286 60l213 -505l-166 -64z" />
<glyph unicode="&#x1f24;" horiz-adv-x="1184" d="M129 0v1065h308v-89h4q49 46 123 72.5t135 26.5q175 0 265 -96.5t90 -286.5v-692h-305v628q0 82 -43 123t-109 41q-69 0 -114.5 -41t-45.5 -123v-628h-308zM193 1490l84 234q136 -24 216.5 -87t80.5 -172q0 -50 -35.5 -132.5t-123.5 -160.5l-148 69q34 43 52.5 86 t18.5 71q0 24 -27 49.5t-118 42.5zM566 1219l212 505l287 -60l-334 -509z" />
<glyph unicode="&#x1f25;" horiz-adv-x="1184" d="M129 0v1065h308v-89h4q49 46 123 72.5t135 26.5q175 0 265 -96.5t90 -286.5v-692h-305v628q0 82 -43 123t-109 41q-69 0 -114.5 -41t-45.5 -123v-628h-308zM217 1463q0 109 80.5 172.5t215.5 86.5l82 -234q-88 -17 -114.5 -42.5t-26.5 -50.5q0 -26 18 -69.5t55 -86.5 l-149 -69q-88 77 -124.5 160t-36.5 133zM604 1219l213 505l287 -60l-334 -509z" />
<glyph unicode="&#x1f26;" horiz-adv-x="1184" d="M129 0v1065h308v-89h4q49 46 123 72.5t135 26.5q175 0 265 -96.5t90 -286.5v-692h-305v628q0 82 -43 123t-109 41q-69 0 -114.5 -41t-45.5 -123v-628h-308zM135 1682q56 117 121.5 179t162.5 62q41 0 82 -17.5t77.5 -37t68.5 -35t59 -15.5q36 0 68 23.5t75 78.5l146 -86 q-55 -125 -119.5 -179.5t-140.5 -54.5q-43 0 -84.5 16t-79.5 34t-72.5 34.5t-63.5 16.5q-37 0 -75 -22.5t-85 -84.5zM376 1391l84 203q129 -17 202 -66t73 -133q0 -41 -31 -107.5t-130 -150.5l-151 61q43 47 65.5 78t22.5 62q0 26 -29.5 38.5t-105.5 14.5z" />
<glyph unicode="&#x1f27;" horiz-adv-x="1184" d="M129 0v1065h308v-89h4q49 46 123 72.5t135 26.5q175 0 265 -96.5t90 -286.5v-692h-305v628q0 82 -43 123t-109 41q-69 0 -114.5 -41t-45.5 -123v-628h-308zM131 1701q56 117 121.5 178.5t162.5 61.5q41 0 82 -16.5t77.5 -36t68.5 -36t58 -16.5q37 0 69 24t75 79l146 -86 q-55 -125 -120 -179.5t-140 -54.5q-43 0 -85 16.5t-79.5 34.5t-72 34t-64.5 16q-36 0 -74 -22.5t-85 -84.5zM365 1387q0 84 73 132.5t202 64.5l84 -201q-75 -2 -105 -15.5t-30 -38.5q0 -30 22.5 -61t65.5 -78l-150 -61q-99 84 -130.5 150.5t-31.5 107.5z" />
<glyph unicode="&#x1f28;" horiz-adv-x="1449" d="M-380 1338l81 236q135 -26 217 -89t82 -171q0 -50 -35.5 -131.5t-124.5 -160.5l-150 66q35 45 53.5 88t18.5 69q0 27 -27.5 51t-114.5 42zM150 0v1496h332v-599h490v599h327v-1496h-327v611h-490v-611h-332z" />
<glyph unicode="&#x1f29;" horiz-adv-x="1449" d="M-383 1314q0 107 82 171t217 89l82 -236q-88 -17 -115 -42.5t-27 -50.5q0 -26 18.5 -69t51.5 -88l-150 -66q-88 79 -123.5 160.5t-35.5 131.5zM150 0v1496h332v-599h490v599h327v-1496h-327v611h-490v-611h-332z" />
<glyph unicode="&#x1f2a;" horiz-adv-x="1449" d="M-841 1368l82 234q133 -24 215 -88.5t82 -171.5q0 -49 -35.5 -132t-124.5 -161l-148 69q33 45 53 87t20 70q0 24 -28 49.5t-116 43.5zM-482 1557l287 60l212 -505l-165 -65zM150 0v1496h332v-599h490v599h327v-1496h-327v611h-490v-611h-332z" />
<glyph unicode="&#x1f2b;" horiz-adv-x="1449" d="M-884 1340q0 109 82 172.5t215 87.5l84 -235q-88 -17 -116 -41.5t-28 -50.5q0 -29 19 -70.5t52 -86.5l-146 -67q-89 80 -125.5 160.5t-36.5 130.5zM-497 1557l286 60l213 -505l-166 -65zM150 0v1496h332v-599h490v599h327v-1496h-327v611h-490v-611h-332z" />
<glyph unicode="&#x1f2c;" horiz-adv-x="1449" d="M-821 1383l84 234q135 -24 215.5 -87t80.5 -173q0 -50 -35 -133t-124 -159l-149 68q35 43 53.5 86t18.5 71q0 25 -27 50t-117 43zM-449 1112l213 505l285 -60l-333 -510zM150 0v1496h332v-599h490v599h327v-1496h-327v611h-490v-611h-332z" />
<glyph unicode="&#x1f2d;" horiz-adv-x="1449" d="M-827 1354q0 110 80 174t216 87l82 -234q-89 -17 -115.5 -43.5t-26.5 -49.5q0 -26 18.5 -70t53.5 -87l-148 -68q-88 77 -124 159.5t-36 131.5zM-441 1112l213 505l286 -60l-333 -510zM150 0v1496h332v-599h490v599h327v-1496h-327v611h-490v-611h-332z" />
<glyph unicode="&#x1f2e;" horiz-adv-x="1449" d="M-815 1447q56 116 121.5 178.5t162.5 62.5q41 0 82 -17t77.5 -36.5t68.5 -36t58 -16.5q37 0 69 24t75 80l146 -86q-55 -125 -120 -180t-140 -55q-43 0 -85 16.5t-79.5 34.5t-72 34.5t-65.5 16.5q-36 0 -73.5 -22.5t-84.5 -85.5zM-574 1157l84 202q129 -17 202 -65.5 t73 -132.5q0 -41 -31 -107.5t-130 -150.5l-151 61q43 47 65.5 78t22.5 62q0 26 -30 38.5t-105 14.5zM150 0v1496h332v-599h490v599h327v-1496h-327v611h-490v-611h-332z" />
<glyph unicode="&#x1f2f;" horiz-adv-x="1449" d="M-811 1469q56 117 121.5 178.5t162.5 61.5q41 0 82 -17t77.5 -36t68.5 -35.5t59 -16.5q36 0 68 24t75 79l146 -86q-55 -125 -119.5 -179.5t-140.5 -54.5q-43 0 -85 16.5t-79.5 34t-72 34t-63.5 16.5q-37 0 -75 -22.5t-85 -84.5zM-576 1155q0 84 73 132.5t202 64.5 l84 -201q-76 -2 -106 -15.5t-30 -39.5q0 -30 22.5 -61t65.5 -78l-150 -60q-98 84 -129.5 150.5t-31.5 107.5zM150 0v1496h332v-599h490v599h327v-1496h-327v611h-490v-611h-332z" />
<glyph unicode="&#x1f30;" horiz-adv-x="644" d="M94 1445l82 237q136 -26 218 -89.5t82 -170.5q0 -50 -36 -131.5t-124 -161.5l-150 67q35 45 52.5 88t17.5 68q0 27 -26.5 51.5t-115.5 41.5zM133 312v753h306v-732q0 -43 20.5 -72t104.5 -29l-2 -249q-24 -2 -55 -2h-51q-117 0 -181 33t-96.5 82.5t-39 107.5t-6.5 108z " />
<glyph unicode="&#x1f31;" horiz-adv-x="644" d="M90 1422q0 107 82 170.5t218 89.5l81 -237q-88 -17 -115 -41.5t-27 -51.5q0 -26 18 -68.5t53 -87.5l-150 -67q-88 80 -124 161.5t-36 131.5zM133 312v753h306v-732q0 -43 20.5 -72t104.5 -29l-2 -249q-24 -2 -55 -2h-51q-117 0 -181 33t-96.5 82.5t-39 107.5t-6.5 108z " />
<glyph unicode="&#x1f32;" horiz-adv-x="644" d="M-129 1475l82 234q133 -24 215 -88t82 -172q0 -49 -36 -131.5t-124 -160.5l-148 68q33 45 53 87t20 71q0 24 -28 49.5t-116 42.5zM133 312v753h306v-732q0 -43 20.5 -72t104.5 -29l-2 -249q-24 -2 -55 -2h-51q-117 0 -181 33t-96.5 82.5t-39 107.5t-6.5 108zM230 1664 l287 60l212 -505l-165 -64z" />
<glyph unicode="&#x1f33;" horiz-adv-x="644" d="M-142 1451q0 109 81.5 173t214.5 88l84 -235q-88 -16 -116 -41.5t-28 -50.5q0 -28 19.5 -70t52.5 -88l-147 -66q-88 80 -124.5 160.5t-36.5 129.5zM133 312v753h306v-732q0 -43 20.5 -72t104.5 -29l-2 -249q-24 -2 -55 -2h-51q-117 0 -181 33t-96.5 82.5t-39 107.5 t-6.5 108zM245 1668l286 61l213 -506l-165 -64z" />
<glyph unicode="&#x1f34;" horiz-adv-x="644" d="M-35 1490l84 234q136 -24 216.5 -87t80.5 -172q0 -50 -35.5 -132.5t-123.5 -160.5l-148 69q35 43 52.5 86t17.5 71q0 24 -26.5 49.5t-117.5 42.5zM133 312v753h306v-732q0 -43 20.5 -72t104.5 -29l-2 -249q-24 -2 -55 -2h-51q-117 0 -181 33t-96.5 82.5t-39 107.5 t-6.5 108zM338 1219l212 505l287 -60l-334 -509z" />
<glyph unicode="&#x1f35;" horiz-adv-x="644" d="M-54 1463q0 109 80.5 172.5t216.5 86.5l81 -234q-88 -17 -114.5 -42.5t-26.5 -50.5q0 -26 18 -69.5t55 -86.5l-149 -69q-88 77 -124.5 160t-36.5 133zM133 312v753h306v-732q0 -43 20.5 -72t104.5 -29l-2 -249q-24 -2 -55 -2h-51q-117 0 -181 33t-96.5 82.5t-39 107.5 t-6.5 108zM333 1219l213 505l287 -60l-334 -509z" />
<glyph unicode="&#x1f36;" horiz-adv-x="644" d="M-109 1682q55 117 121 179t162 62q41 0 82 -17.5t77.5 -37t69 -35t57.5 -15.5q37 0 69.5 23.5t74.5 78.5l147 -86q-56 -125 -120.5 -179.5t-140.5 -54.5q-43 0 -85 16t-79.5 34t-72 34.5t-64.5 16.5q-37 0 -74 -22.5t-85 -84.5zM131 1391l84 203q129 -17 202 -66t73 -133 q0 -41 -31 -107.5t-130 -150.5l-151 61q44 47 66.5 78t22.5 62q0 26 -30 38.5t-106 14.5zM133 312v753h306v-732q0 -43 20.5 -72t104.5 -29l-2 -249q-24 -2 -55 -2h-51q-117 0 -181 33t-96.5 82.5t-39 107.5t-6.5 108z" />
<glyph unicode="&#x1f37;" horiz-adv-x="644" d="M-142 1703q56 117 121.5 179t162.5 62q41 0 82 -17t77.5 -36.5t68.5 -35.5t58 -16q37 0 69 23.5t75 78.5l146 -86q-55 -125 -120 -179.5t-140 -54.5q-43 0 -85 16.5t-79.5 34.5t-72 34t-63.5 16q-37 0 -75 -22.5t-85 -84.5zM92 1389q0 84 73 132.5t203 65.5l84 -202 q-76 -2 -106 -15t-30 -39q0 -30 22.5 -61t65.5 -78l-150 -61q-99 84 -130.5 150.5t-31.5 107.5zM133 312v753h306v-732q0 -43 20.5 -72t104.5 -29l-2 -249q-24 -2 -55 -2h-51q-117 0 -181 33t-96.5 82.5t-39 107.5t-6.5 108z" />
<glyph unicode="&#x1f38;" horiz-adv-x="632" d="M-308 1338l82 236q136 -26 218 -89t82 -171q0 -50 -36 -131.5t-124 -160.5l-150 66q34 45 52 88t18 69q0 27 -26.5 51t-115.5 42zM158 0v1496h330v-1496h-330z" />
<glyph unicode="&#x1f39;" horiz-adv-x="632" d="M-310 1314q0 107 82 171t218 89l81 -236q-88 -17 -115 -42.5t-27 -50.5q0 -26 18 -69t53 -88l-150 -66q-88 79 -124 160.5t-36 131.5zM158 0v1496h330v-1496h-330z" />
<glyph unicode="&#x1f3a;" horiz-adv-x="632" d="M-800 1368l82 234q133 -24 215 -88.5t82 -171.5q0 -49 -35.5 -132t-124.5 -161l-148 69q33 45 53 87t20 70q0 24 -28 49.5t-116 43.5zM-441 1557l287 60l212 -505l-165 -65zM158 0v1496h330v-1496h-330z" />
<glyph unicode="&#x1f3b;" horiz-adv-x="632" d="M-825 1340q0 109 81 172.5t215 87.5l84 -235q-88 -17 -116 -41.5t-28 -50.5q0 -29 19.5 -70.5t50.5 -86.5l-146 -67q-88 80 -124 160.5t-36 130.5zM-439 1557l287 60l212 -505l-165 -65zM158 0v1496h330v-1496h-330z" />
<glyph unicode="&#x1f3c;" horiz-adv-x="632" d="M-768 1383l84 234q136 -24 216.5 -87t80.5 -173q0 -50 -35.5 -133t-123.5 -159l-149 68q35 43 53 86t18 71q0 25 -26.5 50t-117.5 43zM-396 1112l213 505l286 -60l-333 -510zM158 0v1496h330v-1496h-330z" />
<glyph unicode="&#x1f3d;" horiz-adv-x="632" d="M-785 1354q0 110 80.5 174t216.5 87l82 -234q-89 -17 -115.5 -43.5t-26.5 -49.5q0 -26 18.5 -70t53.5 -87l-148 -68q-88 77 -124.5 159.5t-36.5 131.5zM-398 1112l213 505l286 -60l-333 -510zM158 0v1496h330v-1496h-330z" />
<glyph unicode="&#x1f3e;" horiz-adv-x="632" d="M-772 1445q56 116 121.5 178.5t162.5 62.5q41 0 82 -17t77 -36.5t68.5 -36t57.5 -16.5q37 0 69.5 24t75.5 80l146 -86q-55 -125 -120 -180t-140 -55q-43 0 -85 16t-79.5 34.5t-72 35t-65.5 16.5q-36 0 -73.5 -22.5t-84.5 -85.5zM-531 1155l84 202q129 -17 202 -65.5 t73 -132.5q0 -41 -31 -107.5t-130 -150.5l-151 60q43 47 65.5 78.5t22.5 61.5q0 27 -30 39.5t-105 14.5zM158 0v1496h330v-1496h-330z" />
<glyph unicode="&#x1f3f;" horiz-adv-x="632" d="M-768 1467q56 116 121.5 178t162.5 62q41 0 82 -17t77.5 -36.5t68.5 -35.5t59 -16q36 0 68 24t75 79l146 -86q-55 -125 -119.5 -179.5t-140.5 -54.5q-43 0 -85 16.5t-79.5 34t-72 34t-63.5 16.5q-37 0 -75 -22.5t-85 -84.5zM-533 1153q0 84 73 132.5t202 64.5l84 -201 q-76 -2 -106 -15.5t-30 -39.5q0 -30 22.5 -61t65.5 -79l-150 -59q-98 84 -129.5 150.5t-31.5 107.5zM158 0v1496h330v-1496h-330z" />
<glyph unicode="&#x1f40;" horiz-adv-x="1108" d="M71 533q3 82 15.5 161.5t40.5 138.5q56 120 174.5 182t268.5 62q123 0 224 -45t160 -133q46 -66 66.5 -161t17.5 -211q0 -105 -21.5 -188t-59.5 -148q-67 -107 -177.5 -156.5t-237.5 -49.5q-125 0 -222.5 40.5t-157.5 128.5q-50 72 -71.5 167.5t-19.5 211.5zM385 529 q0 -55 6.5 -99.5t23.5 -76.5q19 -41 53.5 -64.5t81.5 -23.5q56 0 96 29.5t58 85.5q6 24 12 62t6 91q2 60 -6 106.5t-19 70.5q-19 47 -57 69.5t-81 22.5q-46 0 -83 -24.5t-59 -67.5q-17 -35 -23.5 -80t-8.5 -101zM390 1445l81 237q136 -26 217.5 -89.5t81.5 -170.5 q0 -50 -35.5 -131.5t-123.5 -161.5l-151 67q35 45 53 88t18 68q0 27 -26.5 51.5t-114.5 41.5z" />
<glyph unicode="&#x1f41;" horiz-adv-x="1108" d="M71 533q3 82 15.5 161.5t40.5 138.5q56 120 174.5 182t268.5 62q123 0 224 -45t160 -133q46 -66 66.5 -161t17.5 -211q0 -105 -21.5 -188t-59.5 -148q-67 -107 -177.5 -156.5t-237.5 -49.5q-125 0 -222.5 40.5t-157.5 128.5q-50 72 -71.5 167.5t-19.5 211.5zM385 529 q0 -55 6.5 -99.5t23.5 -76.5q19 -41 53.5 -64.5t81.5 -23.5q56 0 96 29.5t58 85.5q6 24 12 62t6 91q2 60 -6 106.5t-19 70.5q-19 47 -57 69.5t-81 22.5q-46 0 -83 -24.5t-59 -67.5q-17 -35 -23.5 -80t-8.5 -101zM402 1422q0 107 82 170.5t217 89.5l81 -237 q-88 -17 -115 -41.5t-27 -51.5q0 -26 18.5 -68.5t53.5 -87.5l-150 -67q-88 80 -124 161.5t-36 131.5z" />
<glyph unicode="&#x1f42;" horiz-adv-x="1108" d="M71 533q3 82 15.5 161.5t40.5 138.5q56 120 174.5 182t268.5 62q123 0 224 -45t160 -133q46 -66 66.5 -161t17.5 -211q0 -105 -21.5 -188t-59.5 -148q-67 -107 -177.5 -156.5t-237.5 -49.5q-125 0 -222.5 40.5t-157.5 128.5q-50 72 -71.5 167.5t-19.5 211.5zM109 1475 l82 234q133 -24 215 -88t82 -172q0 -49 -35.5 -131.5t-123.5 -160.5l-148 68q32 45 52.5 87t20.5 71q0 24 -28.5 49.5t-116.5 42.5zM385 529q0 -55 6.5 -99.5t23.5 -76.5q19 -41 53.5 -64.5t81.5 -23.5q56 0 96 29.5t58 85.5q6 24 12 62t6 91q2 60 -6 106.5t-19 70.5 q-19 47 -57 69.5t-81 22.5q-46 0 -83 -24.5t-59 -67.5q-17 -35 -23.5 -80t-8.5 -101zM468 1664l287 60l213 -505l-166 -64z" />
<glyph unicode="&#x1f43;" horiz-adv-x="1108" d="M71 533q3 82 15.5 161.5t40.5 138.5q56 120 174.5 182t268.5 62q123 0 224 -45t160 -133q46 -66 66.5 -161t17.5 -211q0 -105 -21.5 -188t-59.5 -148q-67 -107 -177.5 -156.5t-237.5 -49.5q-125 0 -222.5 40.5t-157.5 128.5q-50 72 -71.5 167.5t-19.5 211.5zM105 1447 q0 109 82 173t215 87l84 -234q-88 -17 -116 -42t-28 -50q0 -29 19 -71t52 -87l-146 -66q-89 80 -125.5 160.5t-36.5 129.5zM385 529q0 -55 6.5 -99.5t23.5 -76.5q19 -41 53.5 -64.5t81.5 -23.5q56 0 96 29.5t58 85.5q6 24 12 62t6 91q2 60 -6 106.5t-19 70.5 q-19 47 -57 69.5t-81 22.5q-46 0 -83 -24.5t-59 -67.5q-17 -35 -23.5 -80t-8.5 -101zM492 1664l286 60l213 -505l-166 -64z" />
<glyph unicode="&#x1f44;" horiz-adv-x="1108" d="M71 533q3 82 15.5 161.5t40.5 138.5q56 120 174.5 182t268.5 62q123 0 224 -45t160 -133q46 -66 66.5 -161t17.5 -211q0 -105 -21.5 -188t-59.5 -148q-67 -107 -177.5 -156.5t-237.5 -49.5q-125 0 -222.5 40.5t-157.5 128.5q-50 72 -71.5 167.5t-19.5 211.5zM200 1490 l84 234q135 -24 216 -87t81 -172q0 -50 -36 -132.5t-124 -160.5l-148 69q35 43 53 86t18 71q0 24 -27 49.5t-117 42.5zM385 529q0 -55 6.5 -99.5t23.5 -76.5q19 -41 53.5 -64.5t81.5 -23.5q56 0 96 29.5t58 85.5q6 24 12 62t6 91q2 60 -6 106.5t-19 70.5q-19 47 -57 69.5 t-81 22.5q-46 0 -83 -24.5t-59 -67.5q-17 -35 -23.5 -80t-8.5 -101zM572 1219l213 505l286 -60l-334 -509z" />
<glyph unicode="&#x1f45;" horiz-adv-x="1108" d="M71 533q3 82 15.5 161.5t40.5 138.5q56 120 174.5 182t268.5 62q123 0 224 -45t160 -133q46 -66 66.5 -161t17.5 -211q0 -105 -21.5 -188t-59.5 -148q-67 -107 -177.5 -156.5t-237.5 -49.5q-125 0 -222.5 40.5t-157.5 128.5q-50 72 -71.5 167.5t-19.5 211.5zM217 1463 q0 109 80.5 172.5t215.5 86.5l82 -234q-88 -17 -114.5 -42.5t-26.5 -50.5q0 -26 18 -69.5t55 -86.5l-149 -69q-88 77 -124.5 160t-36.5 133zM385 529q0 -55 6.5 -99.5t23.5 -76.5q19 -41 53.5 -64.5t81.5 -23.5q56 0 96 29.5t58 85.5q6 24 12 62t6 91q2 60 -6 106.5 t-19 70.5q-19 47 -57 69.5t-81 22.5q-46 0 -83 -24.5t-59 -67.5q-17 -35 -23.5 -80t-8.5 -101zM604 1219l213 505l287 -60l-334 -509z" />
<glyph unicode="&#x1f48;" horiz-adv-x="1340" d="M-329 1338l81 236q136 -26 217.5 -89t81.5 -171q0 -50 -35 -131.5t-123 -160.5l-151 66q34 45 52.5 88t18.5 69q0 27 -26.5 51t-115.5 42zM88 572v353q0 117 36 222t107.5 185.5t180.5 128t255 47.5q135 0 244 -44t185 -122t117 -185.5t41 -231.5v-353q0 -133 -42 -241.5 t-118.5 -185t-185 -117.5t-241.5 -41q-146 0 -255 47.5t-180.5 128t-107.5 187t-36 222.5zM421 548q0 -49 15.5 -94.5t45 -79.5t75 -55.5t108.5 -21.5q120 0 185.5 72t65.5 179v406q0 99 -65.5 171.5t-185.5 72.5q-62 0 -108 -20.5t-75.5 -55t-45 -78.5t-15.5 -90v-406z" />
<glyph unicode="&#x1f49;" horiz-adv-x="1340" d="M-329 1314q0 107 81.5 171t217.5 89l81 -236q-88 -17 -114.5 -42.5t-26.5 -50.5q0 -26 18 -69t53 -88l-151 -66q-88 79 -123.5 160.5t-35.5 131.5zM88 572v353q0 117 36 222t107.5 185.5t180.5 128t255 47.5q135 0 244 -44t185 -122t117 -185.5t41 -231.5v-353 q0 -133 -42 -241.5t-118.5 -185t-185 -117.5t-241.5 -41q-146 0 -255 47.5t-180.5 128t-107.5 187t-36 222.5zM421 548q0 -49 15.5 -94.5t45 -79.5t75 -55.5t108.5 -21.5q120 0 185.5 72t65.5 179v406q0 99 -65.5 171.5t-185.5 72.5q-62 0 -108 -20.5t-75.5 -55t-45 -78.5 t-15.5 -90v-406z" />
<glyph unicode="&#x1f4a;" horiz-adv-x="1340" d="M-811 1368l82 234q134 -24 215 -88.5t81 -171.5q0 -49 -35 -132t-123 -161l-149 69q32 45 52.5 87t20.5 70q0 24 -27.5 49.5t-116.5 43.5zM-452 1557l286 60l213 -505l-166 -65zM88 572v353q0 117 36 222t107.5 185.5t180.5 128t255 47.5q135 0 244 -44t185 -122 t117 -185.5t41 -231.5v-353q0 -133 -42 -241.5t-118.5 -185t-185 -117.5t-241.5 -41q-146 0 -255 47.5t-180.5 128t-107.5 187t-36 222.5zM421 548q0 -49 15.5 -94.5t45 -79.5t75 -55.5t108.5 -21.5q120 0 185.5 72t65.5 179v406q0 99 -65.5 171.5t-185.5 72.5 q-62 0 -108 -20.5t-75.5 -55t-45 -78.5t-15.5 -90v-406z" />
<glyph unicode="&#x1f4b;" horiz-adv-x="1340" d="M-843 1340q0 109 82 172.5t215 87.5l84 -235q-88 -17 -116.5 -41.5t-28.5 -50.5q0 -29 19.5 -70.5t51.5 -86.5l-145 -67q-89 80 -125.5 160.5t-36.5 130.5zM-456 1557l286 60l213 -505l-166 -65zM88 572v353q0 117 36 222t107.5 185.5t180.5 128t255 47.5q135 0 244 -44 t185 -122t117 -185.5t41 -231.5v-353q0 -133 -42 -241.5t-118.5 -185t-185 -117.5t-241.5 -41q-146 0 -255 47.5t-180.5 128t-107.5 187t-36 222.5zM421 548q0 -49 15.5 -94.5t45 -79.5t75 -55.5t108.5 -21.5q120 0 185.5 72t65.5 179v406q0 99 -65.5 171.5t-185.5 72.5 q-62 0 -108 -20.5t-75.5 -55t-45 -78.5t-15.5 -90v-406z" />
<glyph unicode="&#x1f4c;" horiz-adv-x="1340" d="M-712 1383l84 234q136 -24 216.5 -87t80.5 -173q0 -50 -35.5 -133t-123.5 -159l-148 68q34 43 52 86t18 71q0 25 -27 50t-117 43zM-340 1112l213 505l287 -60l-334 -510zM88 572v353q0 117 36 222t107.5 185.5t180.5 128t255 47.5q135 0 244 -44t185 -122t117 -185.5 t41 -231.5v-353q0 -133 -42 -241.5t-118.5 -185t-185 -117.5t-241.5 -41q-146 0 -255 47.5t-180.5 128t-107.5 187t-36 222.5zM421 548q0 -49 15.5 -94.5t45 -79.5t75 -55.5t108.5 -21.5q120 0 185.5 72t65.5 179v406q0 99 -65.5 171.5t-185.5 72.5q-62 0 -108 -20.5 t-75.5 -55t-45 -78.5t-15.5 -90v-406z" />
<glyph unicode="&#x1f4d;" horiz-adv-x="1340" d="M-731 1354q0 110 80.5 174t215.5 87l82 -234q-88 -17 -115 -43.5t-27 -49.5q0 -26 18.5 -70t55.5 -87l-149 -68q-88 77 -124.5 159.5t-36.5 131.5zM-344 1112l213 505l285 -60l-332 -510zM88 572v353q0 117 36 222t107.5 185.5t180.5 128t255 47.5q135 0 244 -44 t185 -122t117 -185.5t41 -231.5v-353q0 -133 -42 -241.5t-118.5 -185t-185 -117.5t-241.5 -41q-146 0 -255 47.5t-180.5 128t-107.5 187t-36 222.5zM421 548q0 -49 15.5 -94.5t45 -79.5t75 -55.5t108.5 -21.5q120 0 185.5 72t65.5 179v406q0 99 -65.5 171.5t-185.5 72.5 q-62 0 -108 -20.5t-75.5 -55t-45 -78.5t-15.5 -90v-406z" />
<glyph unicode="&#x1f50;" horiz-adv-x="1184" d="M129 394v671h308v-626q0 -82 44 -122t112 -40q66 0 112 40t46 122v626h305v-671q0 -93 -35.5 -168.5t-97 -128t-147.5 -80t-185 -27.5q-96 0 -180 28.5t-146 81t-99 128t-37 166.5zM413 1445l82 237q135 -26 217 -89.5t82 -170.5q0 -50 -36 -131.5t-124 -161.5l-150 67 q35 45 52.5 88t17.5 68q0 27 -26.5 51.5t-114.5 41.5z" />
<glyph unicode="&#x1f51;" horiz-adv-x="1184" d="M129 394v671h308v-626q0 -82 44 -122t112 -40q66 0 112 40t46 122v626h305v-671q0 -93 -35.5 -168.5t-97 -128t-147.5 -80t-185 -27.5q-96 0 -180 28.5t-146 81t-99 128t-37 166.5zM423 1422q0 107 82 170.5t217 89.5l82 -237q-88 -17 -114.5 -41.5t-26.5 -51.5 q0 -26 18 -68.5t52 -87.5l-150 -67q-88 80 -124 161.5t-36 131.5z" />
<glyph unicode="&#x1f52;" horiz-adv-x="1184" d="M129 394v671h308v-626q0 -82 44 -122t112 -40q66 0 112 40t46 122v626h305v-671q0 -93 -35.5 -168.5t-97 -128t-147.5 -80t-185 -27.5q-96 0 -180 28.5t-146 81t-99 128t-37 166.5zM131 1475l82 234q133 -24 214.5 -88t81.5 -172q0 -49 -35 -131.5t-123 -160.5l-148 68 q32 45 52 87t20 71q0 24 -28 49.5t-116 42.5zM490 1664l286 60l213 -505l-166 -64z" />
<glyph unicode="&#x1f53;" horiz-adv-x="1184" d="M114 1447q0 109 81.5 173t215.5 87l84 -234q-89 -17 -116.5 -42t-27.5 -50q0 -29 19.5 -71t50.5 -87l-146 -66q-88 80 -124.5 160.5t-36.5 129.5zM129 394v671h308v-626q0 -82 44 -122t112 -40q66 0 112 40t46 122v626h305v-671q0 -93 -35.5 -168.5t-97 -128t-147.5 -80 t-185 -27.5q-96 0 -180 28.5t-146 81t-99 128t-37 166.5zM501 1664l287 60l212 -505l-165 -64z" />
<glyph unicode="&#x1f54;" horiz-adv-x="1184" d="M129 394v671h308v-626q0 -82 44 -122t112 -40q66 0 112 40t46 122v626h305v-671q0 -93 -35.5 -168.5t-97 -128t-147.5 -80t-185 -27.5q-96 0 -180 28.5t-146 81t-99 128t-37 166.5zM267 1490l84 234q135 -24 215.5 -87t80.5 -172q0 -50 -35.5 -132.5t-123.5 -160.5 l-148 69q35 43 53 86t18 71q0 24 -27 49.5t-117 42.5zM638 1219l214 505l285 -60l-333 -509z" />
<glyph unicode="&#x1f55;" horiz-adv-x="1184" d="M129 394v671h308v-626q0 -82 44 -122t112 -40q66 0 112 40t46 122v626h305v-671q0 -93 -35.5 -168.5t-97 -128t-147.5 -80t-185 -27.5q-96 0 -180 28.5t-146 81t-99 128t-37 166.5zM248 1463q0 109 80 172.5t216 86.5l82 -234q-88 -17 -115 -42.5t-27 -50.5 q0 -26 18.5 -69.5t53.5 -86.5l-148 -69q-88 77 -124 160t-36 133zM634 1219l213 505l286 -60l-333 -509z" />
<glyph unicode="&#x1f56;" horiz-adv-x="1184" d="M129 394v671h308v-626q0 -82 44 -122t112 -40q66 0 112 40t46 122v626h305v-671q0 -93 -35.5 -168.5t-97 -128t-147.5 -80t-185 -27.5q-96 0 -180 28.5t-146 81t-99 128t-37 166.5zM172 1682q56 117 121.5 179t162.5 62q41 0 82 -17.5t77.5 -37t68.5 -35t58 -15.5 q37 0 69 23.5t75 78.5l146 -86q-56 -125 -120.5 -179.5t-139.5 -54.5q-43 0 -85 16t-79.5 34t-72 34.5t-64.5 16.5q-36 0 -74 -22.5t-85 -84.5zM413 1391l84 203q129 -17 202 -66t73 -133q0 -41 -31 -107.5t-130 -150.5l-151 61q43 47 65.5 78t22.5 62q0 26 -30 38.5 t-105 14.5z" />
<glyph unicode="&#x1f57;" horiz-adv-x="1184" d="M129 394v671h308v-626q0 -82 44 -122t112 -40q66 0 112 40t46 122v626h305v-671q0 -93 -35.5 -168.5t-97 -128t-147.5 -80t-185 -27.5q-96 0 -180 28.5t-146 81t-99 128t-37 166.5zM176 1703q56 117 121.5 179t162.5 62q41 0 82 -17t77.5 -36.5t68.5 -35.5t59 -16 q36 0 68 23.5t75 78.5l146 -86q-55 -125 -119.5 -179.5t-140.5 -54.5q-43 0 -85 16.5t-79.5 34.5t-72 34t-63.5 16q-37 0 -75 -22.5t-85 -84.5zM411 1389q0 84 72.5 132.5t202.5 65.5l84 -202q-76 -2 -106 -15t-30 -39q0 -30 22.5 -61t65.5 -78l-150 -61 q-98 84 -129.5 150.5t-31.5 107.5z" />
<glyph unicode="&#x1f59;" horiz-adv-x="1300" d="M-392 1314q0 107 82 171t218 89l82 -236q-89 -17 -115.5 -42.5t-26.5 -50.5q0 -26 17.5 -69t52.5 -88l-150 -66q-88 79 -124 160.5t-36 131.5zM15 1496h355l153 -322l129 -290h8l128 288l154 324h355l-484 -883v-613h-316v613z" />
<glyph unicode="&#x1f5b;" horiz-adv-x="1300" d="M-843 1340q0 109 82 172.5t215 87.5l84 -235q-88 -17 -116.5 -41.5t-28.5 -50.5q0 -29 19.5 -70.5t51.5 -86.5l-145 -67q-89 80 -125.5 160.5t-36.5 130.5zM-456 1557l286 60l213 -505l-166 -65zM15 1496h355l153 -322l129 -290h8l128 288l154 324h355l-484 -883v-613 h-316v613z" />
<glyph unicode="&#x1f5d;" horiz-adv-x="1300" d="M-931 1354q0 110 80.5 174t216.5 87l82 -234q-88 -17 -115.5 -43.5t-27.5 -49.5q0 -26 18.5 -70t54.5 -87l-148 -68q-88 77 -124.5 159.5t-36.5 131.5zM-544 1112l213 505l286 -60l-333 -510zM15 1496h355l153 -322l129 -290h8l128 288l154 324h355l-484 -883v-613h-316 v613z" />
<glyph unicode="&#x1f5f;" horiz-adv-x="1300" d="M-890 1471q55 117 120.5 179t162.5 62q41 0 82 -17.5t77.5 -36.5t69 -35.5t58.5 -16.5q36 0 68.5 24t75.5 79l146 -86q-56 -125 -120.5 -179.5t-139.5 -54.5q-43 0 -85 16.5t-79.5 34.5t-72.5 34t-64 16q-37 0 -75 -22.5t-85 -84.5zM-656 1157q0 84 73.5 132.5 t202.5 64.5l83 -201q-76 -2 -106 -15t-30 -39q0 -30 23 -61.5t66 -78.5l-151 -60q-98 84 -129.5 150.5t-31.5 107.5zM15 1496h355l153 -322l129 -290h8l128 288l154 324h355l-484 -883v-613h-316v613z" />
<glyph unicode="&#x1f60;" horiz-adv-x="1627" d="M86 536q0 98 20.5 191.5t71 168t133.5 122t210 57.5l45 -287q-105 -17 -138.5 -82.5t-33.5 -180.5q0 -33 2 -77t14.5 -84t41 -66.5t79.5 -26.5q60 0 99 37.5t39 124.5v277h297v-277q0 -87 38.5 -124.5t99.5 -37.5q51 0 79 26.5t42 66.5t16 84t2 77q0 58 -5 104 t-23.5 79.5t-53 53.5t-90.5 26l39 287q135 -4 221.5 -51.5t134.5 -122t66.5 -170t18.5 -195.5q0 -117 -23.5 -217t-75.5 -171.5t-134.5 -113.5t-203.5 -42q-94 0 -167.5 44t-115.5 118h-8q-43 -75 -113 -118.5t-160 -43.5q-129 0 -217 38.5t-143 109.5t-79.5 172t-24.5 224z M636 1445l82 237q136 -26 217.5 -89.5t81.5 -170.5q0 -50 -35.5 -131.5t-123.5 -161.5l-150 67q34 45 52 88t18 68q0 27 -27 51.5t-115 41.5z" />
<glyph unicode="&#x1f61;" horiz-adv-x="1627" d="M86 536q0 98 20.5 191.5t71 168t133.5 122t210 57.5l45 -287q-105 -17 -138.5 -82.5t-33.5 -180.5q0 -33 2 -77t14.5 -84t41 -66.5t79.5 -26.5q60 0 99 37.5t39 124.5v277h297v-277q0 -87 38.5 -124.5t99.5 -37.5q51 0 79 26.5t42 66.5t16 84t2 77q0 58 -5 104 t-23.5 79.5t-53 53.5t-90.5 26l39 287q135 -4 221.5 -51.5t134.5 -122t66.5 -170t18.5 -195.5q0 -117 -23.5 -217t-75.5 -171.5t-134.5 -113.5t-203.5 -42q-94 0 -167.5 44t-115.5 118h-8q-43 -75 -113 -118.5t-160 -43.5q-129 0 -217 38.5t-143 109.5t-79.5 172t-24.5 224z M634 1422q0 107 82 170.5t217 89.5l82 -237q-88 -17 -115 -41.5t-27 -51.5q0 -26 18 -68.5t53 -87.5l-150 -67q-88 80 -124 161.5t-36 131.5z" />
<glyph unicode="&#x1f62;" horiz-adv-x="1627" d="M86 536q0 98 20.5 191.5t71 168t133.5 122t210 57.5l45 -287q-105 -17 -138.5 -82.5t-33.5 -180.5q0 -33 2 -77t14.5 -84t41 -66.5t79.5 -26.5q60 0 99 37.5t39 124.5v277h297v-277q0 -87 38.5 -124.5t99.5 -37.5q51 0 79 26.5t42 66.5t16 84t2 77q0 58 -5 104 t-23.5 79.5t-53 53.5t-90.5 26l39 287q135 -4 221.5 -51.5t134.5 -122t66.5 -170t18.5 -195.5q0 -117 -23.5 -217t-75.5 -171.5t-134.5 -113.5t-203.5 -42q-94 0 -167.5 44t-115.5 118h-8q-43 -75 -113 -118.5t-160 -43.5q-129 0 -217 38.5t-143 109.5t-79.5 172t-24.5 224z M385 1475l81 234q134 -24 215.5 -88t81.5 -172q0 -49 -35.5 -131.5t-123.5 -160.5l-148 68q32 45 52.5 87t20.5 71q0 24 -27.5 49.5t-116.5 42.5zM744 1664l286 60l213 -505l-166 -64z" />
<glyph unicode="&#x1f63;" horiz-adv-x="1627" d="M86 536q0 98 20.5 191.5t71 168t133.5 122t210 57.5l45 -287q-105 -17 -138.5 -82.5t-33.5 -180.5q0 -33 2 -77t14.5 -84t41 -66.5t79.5 -26.5q60 0 99 37.5t39 124.5v277h297v-277q0 -87 38.5 -124.5t99.5 -37.5q51 0 79 26.5t42 66.5t16 84t2 77q0 58 -5 104 t-23.5 79.5t-53 53.5t-90.5 26l39 287q135 -4 221.5 -51.5t134.5 -122t66.5 -170t18.5 -195.5q0 -117 -23.5 -217t-75.5 -171.5t-134.5 -113.5t-203.5 -42q-94 0 -167.5 44t-115.5 118h-8q-43 -75 -113 -118.5t-160 -43.5q-129 0 -217 38.5t-143 109.5t-79.5 172t-24.5 224z M349 1447q0 109 81 173t215 87l84 -234q-89 -17 -116.5 -42t-27.5 -50q0 -29 19.5 -71t51.5 -87l-147 -66q-88 80 -124 160.5t-36 129.5zM735 1664l287 60l213 -505l-166 -64z" />
<glyph unicode="&#x1f64;" horiz-adv-x="1627" d="M86 536q0 98 20.5 191.5t71 168t133.5 122t210 57.5l45 -287q-105 -17 -138.5 -82.5t-33.5 -180.5q0 -33 2 -77t14.5 -84t41 -66.5t79.5 -26.5q60 0 99 37.5t39 124.5v277h297v-277q0 -87 38.5 -124.5t99.5 -37.5q51 0 79 26.5t42 66.5t16 84t2 77q0 58 -5 104 t-23.5 79.5t-53 53.5t-90.5 26l39 287q135 -4 221.5 -51.5t134.5 -122t66.5 -170t18.5 -195.5q0 -117 -23.5 -217t-75.5 -171.5t-134.5 -113.5t-203.5 -42q-94 0 -167.5 44t-115.5 118h-8q-43 -75 -113 -118.5t-160 -43.5q-129 0 -217 38.5t-143 109.5t-79.5 172t-24.5 224z M464 1490l84 234q136 -24 216.5 -87t80.5 -172q0 -50 -35.5 -132.5t-123.5 -160.5l-148 69q34 43 52.5 86t18.5 71q0 24 -27.5 49.5t-117.5 42.5zM837 1219l212 505l287 -60l-334 -509z" />
<glyph unicode="&#x1f65;" horiz-adv-x="1627" d="M86 536q0 98 20.5 191.5t71 168t133.5 122t210 57.5l45 -287q-105 -17 -138.5 -82.5t-33.5 -180.5q0 -33 2 -77t14.5 -84t41 -66.5t79.5 -26.5q60 0 99 37.5t39 124.5v277h297v-277q0 -87 38.5 -124.5t99.5 -37.5q51 0 79 26.5t42 66.5t16 84t2 77q0 58 -5 104 t-23.5 79.5t-53 53.5t-90.5 26l39 287q135 -4 221.5 -51.5t134.5 -122t66.5 -170t18.5 -195.5q0 -117 -23.5 -217t-75.5 -171.5t-134.5 -113.5t-203.5 -42q-94 0 -167.5 44t-115.5 118h-8q-43 -75 -113 -118.5t-160 -43.5q-129 0 -217 38.5t-143 109.5t-79.5 172t-24.5 224z M460 1463q0 109 81 172.5t216 86.5l82 -234q-88 -17 -115 -42.5t-27 -50.5q0 -26 18 -69.5t55 -86.5l-148 -69q-89 77 -125.5 160t-36.5 133zM847 1219l213 505l286 -60l-333 -509z" />
<glyph unicode="&#x1f66;" horiz-adv-x="1627" d="M86 536q0 98 20.5 191.5t71 168t133.5 122t210 57.5l45 -287q-105 -17 -138.5 -82.5t-33.5 -180.5q0 -33 2 -77t14.5 -84t41 -66.5t79.5 -26.5q60 0 99 37.5t39 124.5v277h297v-277q0 -87 38.5 -124.5t99.5 -37.5q51 0 79 26.5t42 66.5t16 84t2 77q0 58 -5 104 t-23.5 79.5t-53 53.5t-90.5 26l39 287q135 -4 221.5 -51.5t134.5 -122t66.5 -170t18.5 -195.5q0 -117 -23.5 -217t-75.5 -171.5t-134.5 -113.5t-203.5 -42q-94 0 -167.5 44t-115.5 118h-8q-43 -75 -113 -118.5t-160 -43.5q-129 0 -217 38.5t-143 109.5t-79.5 172t-24.5 224z M404 1682q56 117 121.5 179t162.5 62q41 0 82 -17.5t77.5 -37t68.5 -35t58 -15.5q37 0 69 23.5t75 78.5l146 -86q-55 -125 -120 -179.5t-140 -54.5q-43 0 -84.5 16t-79.5 34t-72.5 34.5t-63.5 16.5q-37 0 -75 -22.5t-85 -84.5zM645 1391l84 203q129 -17 202 -66t73 -133 q0 -41 -31 -107.5t-130 -150.5l-151 61q43 47 65.5 78t22.5 62q0 26 -30 38.5t-105 14.5z" />
<glyph unicode="&#x1f67;" horiz-adv-x="1627" d="M86 536q0 98 20.5 191.5t71 168t133.5 122t210 57.5l45 -287q-105 -17 -138.5 -82.5t-33.5 -180.5q0 -33 2 -77t14.5 -84t41 -66.5t79.5 -26.5q60 0 99 37.5t39 124.5v277h297v-277q0 -87 38.5 -124.5t99.5 -37.5q51 0 79 26.5t42 66.5t16 84t2 77q0 58 -5 104 t-23.5 79.5t-53 53.5t-90.5 26l39 287q135 -4 221.5 -51.5t134.5 -122t66.5 -170t18.5 -195.5q0 -117 -23.5 -217t-75.5 -171.5t-134.5 -113.5t-203.5 -42q-94 0 -167.5 44t-115.5 118h-8q-43 -75 -113 -118.5t-160 -43.5q-129 0 -217 38.5t-143 109.5t-79.5 172t-24.5 224z M415 1703q55 117 121.5 179t162.5 62q41 0 81.5 -17t77.5 -36.5t69 -35.5t58 -16q37 0 69 23.5t75 78.5l146 -86q-56 -125 -120.5 -179.5t-139.5 -54.5q-43 0 -85 16.5t-79.5 34.5t-72 34t-64.5 16q-37 0 -74.5 -22.5t-85.5 -84.5zM649 1389q0 84 73.5 132.5t202.5 65.5 l84 -202q-76 -2 -106 -15t-30 -39q0 -30 22.5 -61t65.5 -78l-150 -61q-99 84 -130.5 150.5t-31.5 107.5z" />
<glyph unicode="&#x1f68;" horiz-adv-x="1350" d="M-349 1338l82 236q136 -26 218 -89t82 -171q0 -50 -36 -131.5t-124 -160.5l-150 66q34 45 52 88t18 69q0 27 -26.5 51t-115.5 42zM56 0v297h129l2 11q-60 57 -79.5 144.5t-19.5 175.5v297q0 117 36 222t107.5 185.5t180.5 128t255 47.5q135 0 244 -44t185 -122 t117 -185.5t41 -231.5v-297q0 -97 -22.5 -177.5t-80.5 -149.5l2 -4h135v-297h-548v312q86 21 131 86.5t45 155.5v400q0 99 -65.5 171.5t-185.5 72.5q-62 0 -108 -20.5t-75.5 -55t-45 -78.5t-15.5 -90v-400q0 -84 43 -154.5t138 -89.5v-310h-546z" />
<glyph unicode="&#x1f69;" horiz-adv-x="1350" d="M-346 1314q0 107 81.5 171t217.5 89l82 -236q-89 -17 -115.5 -42.5t-26.5 -50.5q0 -26 18 -69t52 -88l-150 -66q-88 79 -123.5 160.5t-35.5 131.5zM56 0v297h129l2 11q-60 57 -79.5 144.5t-19.5 175.5v297q0 117 36 222t107.5 185.5t180.5 128t255 47.5q135 0 244 -44 t185 -122t117 -185.5t41 -231.5v-297q0 -97 -22.5 -177.5t-80.5 -149.5l2 -4h135v-297h-548v312q86 21 131 86.5t45 155.5v400q0 99 -65.5 171.5t-185.5 72.5q-62 0 -108 -20.5t-75.5 -55t-45 -78.5t-15.5 -90v-400q0 -84 43 -154.5t138 -89.5v-310h-546z" />
<glyph unicode="&#x1f6a;" horiz-adv-x="1350" d="M-815 1368l82 234q133 -24 214.5 -88.5t81.5 -171.5q0 -49 -35 -132t-123 -161l-149 69q32 45 52.5 87t20.5 70q0 24 -28 49.5t-116 43.5zM-456 1557l286 60l213 -505l-166 -65zM56 0v297h129l2 11q-60 57 -79.5 144.5t-19.5 175.5v297q0 117 36 222t107.5 185.5 t180.5 128t255 47.5q135 0 244 -44t185 -122t117 -185.5t41 -231.5v-297q0 -97 -22.5 -177.5t-80.5 -149.5l2 -4h135v-297h-548v312q86 21 131 86.5t45 155.5v400q0 99 -65.5 171.5t-185.5 72.5q-62 0 -108 -20.5t-75.5 -55t-45 -78.5t-15.5 -90v-400q0 -84 43 -154.5 t138 -89.5v-310h-546z" />
</font>
</defs>
</svg>
